<svg width="783" height="405" viewBox="0 0 783 405" fill="none" xmlns="http://www.w3.org/2000/svg">
<path d="M234.29 118.442C234.29 118.442 234.29 117.882 234.29 117.393C234.048 117.008 233.882 116.581 233.8 116.134C233.728 115.812 233.728 115.478 233.8 115.156V114.387C233.737 114.111 233.737 113.824 233.8 113.548C234.709 109.493 235.758 105.368 236.946 101.104C238.135 96.8389 239.184 93.0637 240.232 89.708C242.064 84.4992 243.33 79.1083 244.007 73.6284C244.378 69.6988 244.378 65.7431 244.007 61.8134C243.86 59.2535 243.414 56.7195 242.679 54.263C242.291 53.3061 241.964 52.3254 241.7 51.3268C241.695 50.958 241.544 50.6061 241.281 50.348C241.281 50.348 241.281 50.348 240.861 50.348C238.904 57.3391 237.366 63.7709 236.107 69.5736C234.849 75.3762 233.521 80.6195 232.192 85.2337C229.326 96 227.159 104.459 225.831 110.611C224.502 116.764 223.593 121.448 223.104 124.594C222.694 126.547 222.507 128.541 222.545 130.536C222.545 131.375 222.545 131.864 222.545 132.074C222.545 132.284 222.894 132.843 223.593 133.472C224.307 134.156 225.261 134.533 226.25 134.521C229.466 134.032 232.752 133.752 236.177 133.542H245.615H256.731C257.99 133.542 258.269 134.032 257.57 134.871C257.516 135.005 257.516 135.156 257.57 135.29C257.564 135.462 257.615 135.632 257.717 135.771C257.818 135.911 257.964 136.012 258.129 136.059L258.479 137.318C258.281 137.566 258.172 137.874 258.172 138.191C258.172 138.509 258.281 138.817 258.479 139.065C257.556 138.877 256.605 138.877 255.683 139.065H238.065H234.989H232.682H229.815H224.992H216.742C214.414 139.211 212.079 139.211 209.751 139.065L205.836 138.506C205.032 138.302 204.256 137.997 203.529 137.597C202.722 136.81 202.06 135.887 201.571 134.871C200.564 132.453 200.019 129.869 199.963 127.25C200.054 125.467 200.264 123.692 200.593 121.937C201.012 119.42 201.571 116.414 202.34 112.919C203.109 109.423 203.878 105.927 204.857 101.523C205.836 97.1186 206.815 93.2735 207.863 89.1487C210.31 79.4311 212.967 68.6647 215.973 56.9896C215.903 56.339 215.903 55.6827 215.973 55.0321L216.602 52.1657C216.602 51.2568 217.092 50.348 217.371 49.5091C217.651 48.6701 217.371 48.1108 217.861 47.6914C218.244 47.2524 218.508 46.7231 218.63 46.1533C218.904 45.3796 219.115 44.5846 219.259 43.7763C219.259 42.9374 219.678 42.1684 219.888 41.5392C220.098 40.91 219.888 40.4905 220.447 40.4905C221.007 40.4905 220.447 39.8613 220.447 39.4419C220.447 39.0224 221.706 38.7427 223.384 38.7427C226.153 38.9493 228.934 38.9493 231.703 38.7427L237.506 38.3233C239.044 38.3233 240.372 38.3233 241.491 37.8339C242.537 37.7362 243.59 37.7362 244.637 37.8339C248.571 38.014 252.374 39.2981 255.613 41.5392C258.313 43.5231 260.515 46.108 262.044 49.0896C263.599 52.0873 264.639 55.325 265.121 58.6674C265.593 61.8374 265.803 65.0408 265.75 68.2453C265.731 70.8878 265.544 73.5264 265.19 76.1452C265.011 77.5847 264.731 79.0097 264.352 80.4098C264.352 81.039 264.002 82.4372 263.513 84.5346C263.023 86.6319 262.464 88.939 261.765 91.5257C261.066 94.1124 260.367 97.0487 259.458 100.055C258.549 103.061 257.85 105.788 257.081 108.374C256.312 110.961 255.753 113.198 255.123 114.946C254.837 116.023 254.463 117.076 254.005 118.092C252.818 117.991 251.626 117.991 250.439 118.092H244.846H239.393H236.527C235.886 118.365 235.196 118.508 234.5 118.511C234.639 118.861 234.29 118.721 234.29 118.442Z" fill="#FFEFDB"/>
<path d="M324.336 38.463C326.59 39.6521 328.421 41.5076 329.58 43.7763C330.839 46.2015 331.667 48.8273 332.027 51.5364C332.349 54.6975 332.349 57.8832 332.027 61.0443C332.027 64.4467 331.747 67.9422 331.188 71.531C330.626 77.7486 329.739 83.9325 328.531 90.0575C327.238 96.5581 325.342 102.924 322.868 109.073C320.497 114.996 317.372 120.588 313.57 125.712C310.043 130.557 305.451 134.527 300.147 137.317C298.79 137.96 297.357 138.43 295.883 138.716C294.221 139.051 292.54 139.285 290.849 139.415H286.235H283.438C283.051 139.533 282.637 139.533 282.25 139.415H281.271C280.082 139.454 278.903 139.189 277.846 138.646C276.894 138.153 276.041 137.49 275.329 136.688C272.036 134.099 269.62 130.56 268.408 126.551C267.036 121.734 266.4 116.737 266.52 111.73C266.627 106.033 267.33 100.362 268.617 94.8114C269.891 89.0901 271.55 83.4611 273.581 77.9628C274.845 73.5311 276.458 69.2064 278.405 65.0293C280.291 61.0683 282.44 57.2379 284.837 53.5638C286.9 50.3815 289.239 47.387 291.828 44.6152C293.819 42.4742 296.189 40.7202 298.819 39.4418H299.798C300.659 39.5089 301.523 39.5089 302.384 39.4418C303.573 39.4418 304.622 38.9524 305.74 38.6028H308.956C309.838 38.7185 310.731 38.7185 311.613 38.6028H314.339C315.08 38.7229 315.835 38.7229 316.576 38.6028C317.132 38.5127 317.699 38.5127 318.254 38.6028C319.568 38.5705 320.882 38.6878 322.169 38.9524L324.336 38.463ZM289.381 129.348C291.543 127.177 293.53 124.839 295.323 122.356C296.931 119.91 298.679 116.973 300.567 113.408C302.636 109.372 304.343 105.161 305.67 100.824C307.848 94.3749 309.692 87.8178 311.193 81.1787C311.752 78.5221 312.312 75.6557 312.731 72.7195C313.151 69.7832 313.64 66.777 313.85 63.9107C314.022 61.1169 314.022 58.3151 313.85 55.5213C313.738 52.9857 313.316 50.4734 312.591 48.0408C312.287 48.1236 312.001 48.2662 311.752 48.4603C311.577 48.6462 311.362 48.7896 311.123 48.8798C310.963 48.8383 310.794 48.8383 310.634 48.8798C308.534 50.729 306.657 52.8171 305.041 55.1019C302.447 58.7077 300.111 62.4924 298.05 66.4275C295.403 71.2124 293.068 76.1631 291.059 81.2487C288.833 86.6083 287.17 92.1845 286.095 97.8875C284.997 103.338 284.621 108.908 284.976 114.456C285.227 119.768 286.737 124.944 289.381 129.557V129.348Z" fill="#FFEFDB"/>
<path d="M332.235 136.758C332.235 136.339 332.235 134.801 332.584 132.074C332.934 129.348 333.214 125.852 333.703 121.587L335.381 107.605C336.01 102.292 336.709 96.8388 337.478 91.176C338.247 85.5132 339.366 79.5009 340.414 73.7682C341.463 68.0354 342.372 62.9319 343.211 58.3877C344.05 53.8435 344.819 50.1382 345.378 47.2718C345.583 45.6907 345.982 44.1409 346.567 42.6577C346.436 42.487 346.366 42.2782 346.366 42.0634C346.366 41.8487 346.436 41.6398 346.567 41.4692C346.934 41.1945 347.369 41.0252 347.825 40.9798H349.713C350.437 40.9037 351.144 40.715 351.81 40.4205C351.81 40.4205 352.719 39.9311 353.837 39.8612L357.613 39.4418C358.652 39.1787 359.66 38.8037 360.619 38.3232C361.084 38.084 361.599 37.9592 362.122 37.9592C362.645 37.9592 363.16 38.084 363.625 38.3232C364.044 38.3232 364.394 39.9311 364.744 42.2382C365.093 44.5453 365.373 47.132 365.582 49.9284C365.792 52.7249 366.072 55.5213 366.282 58.178C366.491 60.8346 366.282 62.5824 366.701 63.4213C366.613 64.3747 366.613 65.3342 366.701 66.2877C366.701 67.7558 367.19 69.5036 367.47 71.6009C367.75 73.6982 368.099 75.9354 368.519 78.592C368.938 81.2486 369.288 83.5557 369.637 86.0725C370.616 92.0849 371.665 98.6565 372.853 105.857C372.853 105.857 372.853 104.529 373.203 102.432C373.552 100.334 373.832 97.6778 374.391 94.322C374.881 88.5194 375.58 82.5071 376.559 76.285C377.537 70.0629 378.516 64.3301 379.635 59.0868C380.753 53.8434 382.082 47.0621 383.48 41.1895C383.48 40.4205 384.109 40.1409 384.808 40.2807C385.564 40.4824 386.359 40.4824 387.115 40.2807H388.513C389.297 40.1125 390.107 40.1125 390.89 40.2807C391.868 40.3369 392.849 40.3369 393.827 40.2807L397.182 39.6515C397.638 39.6406 398.083 39.7889 398.441 40.071C398.737 40.2259 398.999 40.44 399.21 40.7002C399.296 41.0207 399.296 41.3583 399.21 41.6789C398.907 43.482 398.463 45.2585 397.881 46.9922C397.123 49.2801 396.516 51.6156 396.064 53.9833C395.225 58.3877 394.316 63.4912 393.337 69.154C392.358 74.8168 391.45 80.7593 390.541 86.7716C389.632 92.784 388.723 98.7963 387.814 104.669C386.905 110.541 387.255 114.806 386.556 119.56C385.857 124.314 385.437 128.509 385.088 131.794C384.738 135.08 384.459 137.108 384.459 138.017C384.401 138.4 384.23 138.757 383.969 139.043C383.707 139.33 383.367 139.532 382.99 139.625C382.361 139.848 381.7 139.966 381.033 139.974H375.02C373.903 140.048 372.782 140.048 371.665 139.974C370.616 139.974 369.987 139.555 369.917 139.205C369.847 138.855 369.358 138.506 368.449 138.576H366.282C365.898 138.715 365.477 138.715 365.093 138.576C364.681 138.142 364.307 137.675 363.974 137.178C363.974 136.711 363.695 135.523 363.136 133.612C363.136 131.794 362.297 129.487 361.807 126.621C361.318 123.755 360.828 120.888 360.339 117.533L358.661 107.535L354.467 80.8292C354.467 81.5283 353.977 82.9964 353.488 85.3734C352.998 87.7504 352.439 90.5468 351.88 93.7628C351.321 96.9787 350.761 100.754 350.132 104.319C349.503 107.885 349.014 111.87 348.594 115.435C348.175 119.001 348.035 120.679 347.895 123.125C347.755 125.572 347.895 127.67 347.475 129.557C347.056 131.445 347.475 132.913 347.475 134.171C347.475 135.43 347.475 136.059 347.475 136.269C347.433 136.547 347.433 136.83 347.475 137.108C347.475 137.457 347.475 137.807 347.126 138.086C346.967 138.424 346.695 138.696 346.357 138.855C346.151 138.96 345.923 139.014 345.693 139.014C345.462 139.014 345.234 138.96 345.029 138.855C344.408 139.115 343.744 139.257 343.071 139.275H340.275H336.499C335.722 139.493 334.9 139.493 334.122 139.275C333.647 139.129 333.242 138.813 332.984 138.388C332.726 137.962 332.634 137.457 332.724 136.968L332.235 136.758Z" fill="#FFEFDB"/>
<path d="M417.106 40.3506H419.134C420.249 40.2241 421.349 39.99 422.42 39.6515C424.041 38.9677 425.767 38.5658 427.523 38.4631C429.97 38.4631 432.906 37.9737 436.262 37.8339H447.028C450.874 37.8339 454.509 37.8339 458.004 37.8339C461.5 37.8339 464.996 37.8338 467.512 38.2533C469.622 38.3632 471.723 38.5967 473.804 38.9524C473.858 39.2999 473.858 39.6536 473.804 40.0011C473.858 40.6058 473.858 41.2141 473.804 41.8188C473.804 42.5179 473.804 43.4967 473.315 44.7551L472.686 47.7612C472.686 48.4604 472.686 49.0196 472.266 49.3692C472.327 49.6691 472.327 49.9781 472.266 50.278C472.131 50.6309 471.942 50.961 471.707 51.2568C471.707 51.2568 471.707 51.2568 471.707 51.7462C471.744 52.1181 471.744 52.4928 471.707 52.8648C471.679 53.377 471.679 53.8905 471.707 54.4028V54.9621C471.74 55.1705 471.74 55.3828 471.707 55.5913C471.707 55.5913 471.707 55.5913 471.707 56.1506H470.868C470.852 56.3133 470.852 56.4772 470.868 56.64L470.379 57.409C469.663 57.6713 468.903 57.7901 468.142 57.7585H461.5L447.098 56.64H439.059H435.283C434.709 56.4978 434.109 56.4978 433.536 56.64C433.536 56.64 433.536 57.8984 433.116 59.786C432.697 61.6736 432.487 63.7709 432.137 66.0081L430.669 74.9567H437.311C438.496 75.0894 439.691 75.0894 440.876 74.9567H450.943C452.081 74.9379 453.214 75.1032 454.299 75.4461C456.257 75.9354 457.375 76.3549 457.655 76.8443C457.891 77.1471 458.037 77.5107 458.074 77.893C457.954 78.3038 457.954 78.7405 458.074 79.1514C458.074 79.7806 458.074 80.4797 458.074 81.3186C458.005 82.0861 458.005 82.8582 458.074 83.6257V85.0938C458.05 85.576 457.879 86.0393 457.585 86.4221L456.606 87.5407C456.606 87.5407 456.187 87.5407 456.117 88.3097C456.08 88.8218 456.08 89.3357 456.117 89.8478C456.049 90.761 455.836 91.6577 455.488 92.5044C455.247 93.0707 454.849 93.5561 454.341 93.9031C453.833 94.25 453.236 94.444 452.621 94.4619C451.616 94.7342 450.585 94.8982 449.545 94.9513H444.442H432.906C431.463 94.8654 430.015 94.8654 428.572 94.9513C427.383 94.9513 426.754 94.9513 426.684 95.5106C426.236 96.9111 425.862 98.3347 425.566 99.7752C425.076 102.152 424.447 104.669 423.818 107.326L421.301 117.882H422.21H425.985C427.453 117.882 428.921 117.882 430.529 117.882H434.654C436.203 118.141 437.768 118.281 439.338 118.302L445.56 118.721H451.153H454.089C454.439 118.721 454.089 118.721 454.089 119.77C453.659 120.34 453.393 121.017 453.32 121.727C453.32 122.217 453.32 123.195 453.32 124.594C453.176 125.84 452.871 127.062 452.412 128.229C452.172 128.889 451.985 129.567 451.852 130.256C451.706 130.989 451.52 131.712 451.293 132.424C450.857 133.116 450.615 133.913 450.594 134.731C450.613 135.442 450.353 136.133 449.87 136.656C449.387 137.178 448.718 137.491 448.007 137.527C446.314 137.757 444.597 137.757 442.904 137.527H434.864H426.824H418.225C414.502 137.228 410.762 137.228 407.039 137.527H401.796C401.406 137.625 400.998 137.625 400.607 137.527L399.838 136.968C399.59 136.677 399.464 136.301 399.489 135.919C399.489 135.919 399.489 135.36 399.489 135.08C399.147 134.818 398.731 134.671 398.3 134.661C398.3 134.661 397.951 134.661 397.741 133.612C397.502 132.814 397.502 131.963 397.741 131.165C398.004 130.824 398.15 130.407 398.16 129.977V128.858C398.116 128.759 398.093 128.652 398.093 128.544C398.093 128.435 398.116 128.328 398.16 128.229C398.16 128.229 398.58 127.67 398.58 126.971C399.419 123.685 400.328 119.98 401.237 115.365C402.145 110.751 403.054 106.137 404.033 101.383C404.802 98.0973 405.571 94.392 406.41 91.246C407.249 88.1 407.948 84.2549 408.647 80.7593L410.325 70.762C410.808 67.5601 411.461 64.3863 412.283 61.2541C412.632 57.9683 413.052 54.9621 413.401 52.2356C413.751 49.509 414.17 47.132 414.59 45.2444C414.809 43.7264 415.232 42.2449 415.848 40.84C415.988 40.7002 416.547 40.2807 417.106 40.3506Z" fill="#FFEFDB"/>
<path d="M504.845 104.32C504.845 104.32 504.426 105.019 503.866 105.927L502.119 109.004C501.419 110.052 500.72 111.171 500.091 112.289L498.483 114.806C497.994 115.575 497.225 116.834 496.176 118.651C495.128 120.469 494.079 122.287 493.03 124.174C491.982 126.062 490.933 127.95 490.024 129.627C489.378 130.671 488.884 131.801 488.556 132.983C488.143 134.06 487.578 135.072 486.878 135.989C486.039 137.038 485.48 137.597 485.06 137.597C484.509 137.464 483.934 137.464 483.382 137.597C482.687 137.5 481.981 137.5 481.285 137.597C480.5 137.625 479.723 137.766 478.978 138.017C478.258 138.102 477.531 138.102 476.811 138.017C476.672 137.817 476.482 137.66 476.26 137.561C476.038 137.463 475.793 137.427 475.552 137.457C474.264 137.722 473.001 138.096 471.777 138.576C470.663 138.719 469.535 138.719 468.421 138.576C467.881 138.571 467.352 138.426 466.883 138.157C466.685 138.04 466.534 137.856 466.457 137.639C466.38 137.421 466.383 137.184 466.464 136.968C466.464 136.968 466.464 136.479 466.464 135.71C466.639 135.325 466.875 134.971 467.163 134.661C467.624 133.485 468.161 132.341 468.771 131.235C469.358 129.967 470.012 128.73 470.729 127.53C471.498 126.132 472.476 124.664 473.525 122.986C474.574 121.308 476.321 118.931 477.79 116.554L482.334 109.563L486.878 102.572C488.346 100.125 489.814 97.8877 491.143 95.5806L493.45 91.6656C494.219 90.4072 494.848 89.2886 495.477 88.3798L497.365 85.3037L496.246 82.4373C495.547 80.6196 494.638 78.3825 493.52 75.4462C492.401 72.5099 491.213 69.7834 489.954 66.5675C488.696 63.3516 487.507 60.2056 486.389 57.1295C485.221 52.9783 483.404 49.0379 481.005 45.4543C480.516 44.8251 480.376 44.4756 480.516 44.2658C480.656 44.0561 480.516 43.6366 480.166 43.0074C480.184 42.5111 480.383 42.0384 480.726 41.6791L481.285 41.2596C481.695 40.4776 482.362 39.8605 483.173 39.5119L484.781 38.8128C484.858 38.7801 484.941 38.7632 485.025 38.7632C485.109 38.7632 485.193 38.7801 485.27 38.8128C485.27 38.8128 485.759 38.8128 486.389 38.8128L490.304 37.3446L492.401 36.8552C492.77 36.7779 493.151 36.7779 493.52 36.8552H494.428H497.085C497.644 36.8552 498.413 37.6942 499.322 39.0225C500.291 40.6564 501.133 42.3626 501.839 44.126C502.958 46.9225 504.216 49.7888 505.544 52.8649C506.873 55.941 508.76 60.5551 510.578 65.0295C511.489 63.2398 512.517 61.5116 513.654 59.856C515.052 57.6888 516.66 55.4516 518.338 52.8649L523.372 45.8738L527.357 40.2809C527.788 39.7521 528.309 39.3026 528.895 38.9526C529.545 38.5357 530.222 38.162 530.922 37.834C531.691 37.4145 532.6 37.065 533.579 36.6455H535.326H537.913H541.199H542.947H544.695H546.652C547.421 36.6455 547.841 37.3446 547.771 37.834C547.726 38.2483 547.555 38.6389 547.281 38.9526V39.8614C547.276 40.2302 547.125 40.582 546.862 40.8402L544.485 43.7765C543.157 45.4543 541.688 47.6216 540.011 50.2083C538.333 52.795 535.466 56.3605 533.019 59.9958L526.028 70.2728C523.861 73.4188 522.043 76.1453 520.645 78.4524C519.247 80.7595 518.478 81.878 518.478 81.948C518.277 82.1098 518.111 82.3112 517.991 82.5396C517.87 82.7681 517.798 83.0188 517.779 83.2763C517.742 83.34 517.723 83.4124 517.723 83.486C517.723 83.5596 517.742 83.632 517.779 83.6957C517.779 83.6957 518.198 84.4648 518.827 85.7931C519.457 87.1214 520.226 88.7993 521.065 90.8966C521.904 92.9939 522.952 95.3709 524.071 97.8877L527.846 106.207C528.308 107.575 528.868 108.906 529.524 110.192C530.153 111.381 530.782 112.569 531.481 113.688C532.794 115.712 533.985 117.813 535.047 119.98C535.914 121.682 536.684 123.433 537.354 125.223C538.053 126.971 538.612 128.649 539.102 130.187C539.31 130.53 539.452 130.909 539.521 131.305C539.577 131.699 539.577 132.1 539.521 132.494V133.053C539.585 133.234 539.585 133.431 539.521 133.612C539.521 134.032 539.521 134.172 538.822 134.172H536.515L534.697 135.08C534.083 135.36 533.415 135.503 532.74 135.5C531.961 135.711 531.141 135.711 530.363 135.5H528.405C527.363 135.58 526.333 135.768 525.329 136.059C524.332 136.282 523.385 136.685 522.533 137.248C521.834 137.248 521.414 137.667 521.204 137.248C520.995 136.828 520.715 136.828 520.226 136.129C519.891 135.941 519.584 135.706 519.317 135.43C518.804 134.599 518.47 133.671 518.338 132.703C518.338 132.004 517.849 131.165 517.429 130.117C517.01 129.068 516.66 127.95 516.171 126.831C515.681 125.712 515.192 124.664 514.633 123.615C514.208 122.718 513.717 121.853 513.165 121.028C512.722 119.631 512.112 118.293 511.347 117.043C510.61 115.897 510.045 114.648 509.669 113.338C509.25 112.569 508.83 111.59 508.201 110.472C507.572 109.353 507.152 108.165 506.663 106.976L504.845 104.32Z" fill="#FFEFDB"/>
<path d="M612.79 43.5667C613.582 43.8929 613.862 44.1726 613.629 44.4056C613.444 44.4453 613.254 44.4453 613.07 44.4056V44.8251C613.397 45.0217 613.655 45.3167 613.806 45.6681C613.956 46.0195 613.992 46.4095 613.908 46.7826C613.908 47.5516 613.419 48.1109 613.279 48.6003C612.874 49.4749 612.682 50.4334 612.72 51.3967C612.72 51.8162 612.51 52.5153 612.091 53.4941C612.102 53.7571 612.026 54.0166 611.874 54.2317C611.722 54.4468 611.503 54.6054 611.252 54.6826H610.483C610.483 54.6826 610.483 56.5702 611.112 59.4365C611.741 62.3029 611.741 65.9383 612.091 70.2728C612.44 74.6073 612.86 79.3612 613.279 84.255C613.699 89.1488 613.978 94.6718 614.258 99.7753C614.538 104.879 614.258 108.654 614.608 112.919C614.957 117.183 614.608 120.888 614.608 124.104C614.608 127.32 614.608 129.907 614.608 131.934C614.574 133.014 614.457 134.089 614.258 135.15C614.29 136.295 614.1 137.434 613.699 138.506C613.349 138.506 613.139 138.995 612.93 138.995H611.112C610.203 138.995 609.644 138.995 609.364 138.995H608.385C607.399 138.882 606.419 138.719 605.449 138.506C604.425 138.435 603.397 138.435 602.373 138.506H599.227L595.801 138.926C594.893 138.926 594.403 138.926 594.263 138.926C593.989 138.532 593.82 138.075 593.774 137.597C593.401 137.194 593.115 136.718 592.935 136.199C593.006 135.9 593.006 135.589 592.935 135.29V134.521C592.909 134.009 592.909 133.495 592.935 132.983C592.873 132.731 592.873 132.467 592.935 132.214V129.208H587.901H583.008H577.834C576.696 129.082 575.547 129.082 574.409 129.208H572.032H570.004C569.784 129.178 569.56 129.224 569.369 129.339C569.179 129.453 569.033 129.629 568.956 129.837C568.956 130.257 568.466 131.305 567.977 132.913L567.278 135.22L566.718 136.968C566.522 137.488 566.381 138.027 566.299 138.576C566.068 138.752 565.785 138.847 565.495 138.847C565.204 138.847 564.922 138.752 564.691 138.576C563.611 138.159 562.484 137.877 561.335 137.737C560.008 137.827 558.677 137.827 557.35 137.737C555.873 137.484 554.375 137.368 552.876 137.388C552.062 137.316 551.243 137.316 550.429 137.388C548.404 137.393 548.404 137.393 546.376 137.393C545.885 137.388 545.675 137.388 545.745 137.388C545.812 137.271 545.848 137.138 545.848 137.003C545.848 136.868 545.812 136.735 545.745 136.618C545.419 136.202 545.269 135.676 545.326 135.15C545.292 134.872 545.292 134.59 545.326 134.311C545.326 134.311 545.745 132.703 546.584 129.767C547.423 126.831 548.472 122.776 549.87 118.442C551.268 114.107 552.806 108.584 554.484 102.851C556.162 97.1187 557.91 91.1762 559.657 85.2338C561.405 79.2913 562.663 74.7471 564.062 69.7135C565.46 64.6799 566.648 60.1356 567.697 56.0808C568.746 52.0259 569.585 48.6702 570.214 46.0136C570.663 44.433 570.99 42.8204 571.193 41.1897C571.542 39.8614 571.962 39.1623 572.311 39.1623H577.974C577.974 39.1623 577.974 39.1623 577.974 38.7428C579.802 38.458 581.647 38.2946 583.497 38.2534H589.509C590.853 38.0437 592.221 38.0437 593.564 38.2534L598.458 39.0924C598.898 39.1574 599.346 39.1574 599.786 39.0924C600.895 39.2265 601.993 39.4367 603.072 39.7216L606.078 40.3508L608.735 40.7003H611.182C611.671 40.7003 611.881 40.7003 611.881 41.2596C611.922 41.4201 611.922 41.5885 611.881 41.749V42.4481L612.72 42.8676L612.79 43.5667ZM624.046 30.1437C624.381 30.9218 624.593 31.7473 624.675 32.5906C624.877 33.747 624.877 34.9298 624.675 36.0862C624.348 37.5445 623.781 38.9384 622.997 40.211C622.016 41.858 620.707 43.2857 619.152 44.4056C618.451 45.0647 617.703 45.6722 616.915 46.2233C614.28 48.097 611.35 49.5149 608.246 50.418C606.306 50.9277 604.309 51.1862 602.303 51.187C600.776 51.179 599.253 51.015 597.759 50.6976C595.923 50.2758 594.158 49.593 592.516 48.6702C590.502 47.543 588.645 46.1562 586.993 44.5454C584.93 42.4516 583.144 40.1021 581.679 37.5543H581.26C580.218 35.8895 578.999 34.3425 577.624 32.9402C576.412 31.724 575.049 30.6668 573.57 29.7942C572.117 28.8359 570.416 28.3254 568.676 28.326C568.168 28.2312 567.646 28.2312 567.138 28.326L565.67 28.8853C563.812 29.5849 562.031 30.4752 560.356 31.542C559.268 32.3248 558.261 33.2148 557.35 34.1986C556.755 34.817 556.259 35.5247 555.882 36.2959L555.533 37.2747C555.08 38.3849 554.842 39.5712 554.833 40.7702C554.849 41.8422 555.038 42.9047 555.393 43.9162C555.894 45.0981 556.688 46.1328 557.7 46.9224L559.378 48.2507L561.056 49.5091C561.801 50.7209 561.941 51.5599 561.475 52.0259C561.203 52.5658 560.793 53.0241 560.287 53.3542C560.045 53.5657 559.734 53.6822 559.413 53.6822C559.091 53.6822 558.781 53.5657 558.539 53.3542L557.28 52.8649C556.347 52.4122 555.458 51.8739 554.624 51.2569C553.523 50.4897 552.514 49.5983 551.618 48.6003C550.684 47.5622 550.013 46.3157 549.66 44.9649C549.439 43.8109 549.299 42.6429 549.241 41.4694C549.229 40.0748 549.418 38.6858 549.8 37.3446C550.227 35.7643 550.887 34.2563 551.757 32.8703C552.929 31.0996 554.341 29.4997 555.952 28.1163C557.625 26.4964 559.596 25.2146 561.755 24.3411C563.989 23.4988 566.358 23.0723 568.746 23.0827C570.932 23.084 573.095 23.5311 575.102 24.3966C577.109 25.262 578.919 26.5277 580.421 28.1163C581.779 29.3936 583.063 30.7474 584.266 32.1712L586.783 35.3172C587.594 36.0235 588.322 36.8211 588.95 37.6941C589.512 38.5356 590.195 39.2895 590.978 39.9313C592.882 41.2794 594.92 42.4273 597.06 43.3569C598.876 44.1182 600.823 44.5217 602.793 44.5454C606.904 44.2174 610.846 42.7664 614.188 40.3508C615.068 39.5994 615.865 38.7557 616.565 37.834C617.066 37.1346 617.532 36.4113 617.963 35.6667C618.441 34.9423 618.839 34.1688 619.152 33.3596C619.322 32.8611 619.322 32.3201 619.152 31.8216C617.557 30.6594 615.595 30.1131 613.629 30.2835C612.082 30.2905 610.538 30.4308 609.015 30.703C607.481 30.9628 605.963 31.3129 604.47 31.7517L600.835 33.08L598.947 33.9888C598.368 34.075 597.779 34.075 597.2 33.9888H595.732C595.506 33.994 595.283 33.9383 595.086 33.8276C594.889 33.7169 594.726 33.5552 594.613 33.3596C594.368 33.0446 594.179 32.6899 594.054 32.311C593.996 31.8467 593.996 31.377 594.054 30.9128C594.008 30.3708 594.107 29.8265 594.34 29.3353C594.574 28.844 594.933 28.4234 595.382 28.1163C596.298 27.5334 597.256 27.0194 598.248 26.5783L600.416 25.8791L604.4 24.6907L608.945 23.7119C610.281 23.4512 611.638 23.3109 613 23.2924C614.682 23.2335 616.362 23.4702 617.963 23.9916C619.114 24.3686 620.181 24.9618 621.109 25.7393C621.882 26.3232 622.525 27.0612 622.997 27.9066C623.425 28.6128 623.777 29.3628 624.046 30.1437ZM589.999 110.052C589.999 103.387 589.789 97.5847 589.37 92.6443C589.37 87.7506 588.88 83.3461 588.531 79.5709C588.181 75.7957 587.762 72.5798 587.272 69.5037C586.783 66.4276 586.294 63.9108 585.734 61.2542C585.734 61.2542 585.734 61.2542 585.734 61.8834C585.798 62.2065 585.798 62.5391 585.734 62.8622C585.175 65.379 584.476 67.8958 583.777 70.5524C583.078 73.209 582.309 75.3064 581.539 78.1727C580.77 81.0391 579.862 83.9753 578.953 86.8417C578.044 89.7081 577.415 92.6443 576.576 95.3709C575.737 98.0974 575.038 100.474 574.339 102.362C573.64 104.25 572.801 107.186 572.032 109.353H572.661C574.618 109.353 576.646 109.353 578.673 109.773C580.575 110.004 582.49 110.121 584.406 110.122H590.069C589.999 110.961 589.999 110.751 589.999 110.052Z" fill="#FFEFDB"/>
<path d="M675.498 38.4632C677.769 39.6518 679.623 41.5055 680.811 43.7764C682.071 46.2016 682.899 48.8275 683.258 51.5366C683.58 54.6977 683.58 57.8834 683.258 61.0445C683.258 64.4468 682.979 67.9424 682.419 71.5312C681.867 77.7539 680.956 83.9396 679.693 90.0576C678.456 96.564 676.582 102.933 674.1 109.073C671.703 114.984 668.579 120.573 664.802 125.712C661.275 130.557 656.682 134.527 651.379 137.318C650.017 137.95 648.586 138.419 647.114 138.716C645.452 139.052 643.771 139.285 642.081 139.415H637.466H634.6C634.237 139.537 633.844 139.537 633.482 139.415H632.433C631.268 139.442 630.114 139.178 629.077 138.646C628.113 138.173 627.256 137.507 626.56 136.688C623.17 133.999 620.722 130.303 619.569 126.132C618.164 121.322 617.527 116.32 617.682 111.311C617.789 105.613 618.491 99.943 619.779 94.3921C621.021 88.6624 622.68 83.0312 624.743 77.5435C626.007 73.1118 627.62 68.7871 629.567 64.6099C631.425 60.635 633.575 56.8028 635.998 53.1445C638.062 49.9622 640.401 46.9678 642.989 44.1959C644.979 42.0525 647.349 40.2981 649.981 39.0224H651.029C651.89 39.0853 652.755 39.0853 653.616 39.0224C654.735 39.0224 655.853 38.5331 656.902 38.1835H660.188C661.069 38.2993 661.962 38.2993 662.844 38.1835H665.571C666.312 38.3036 667.067 38.3036 667.808 38.1835C668.364 38.0935 668.93 38.0935 669.486 38.1835C670.8 38.1548 672.113 38.272 673.401 38.5331L675.498 38.4632ZM640.543 129.348C642.704 127.177 644.691 124.84 646.485 122.357C648.093 119.91 649.841 116.973 651.728 113.408C653.797 109.372 655.505 105.161 656.832 100.824C659.01 94.375 660.853 87.8179 662.355 81.1789C662.914 78.5223 663.404 75.6559 663.893 72.7196C664.382 69.7834 664.732 66.7772 665.011 63.9108C665.184 61.117 665.184 58.3153 665.011 55.5215C664.9 52.9858 664.477 50.4735 663.753 48.041C663.448 48.1237 663.163 48.2663 662.914 48.4605C662.739 48.6464 662.524 48.7898 662.285 48.8799H661.726C659.671 50.7541 657.82 52.8397 656.203 55.102C653.585 58.6919 651.247 62.4783 649.212 66.4276C646.565 71.2126 644.23 76.1633 642.22 81.2488C640.005 86.618 638.319 92.1908 637.187 97.8877C636.077 103.336 635.724 108.912 636.138 114.457C636.301 119.773 637.791 124.964 640.473 129.557L640.543 129.348Z" fill="#FFEFDB"/>
<path d="M308.254 165.142C309.443 165.701 309.932 166.191 309.653 166.471C309.375 166.717 309.038 166.886 308.674 166.96C308.538 167.008 308.39 167.008 308.254 166.96C308.254 166.96 307.765 167.519 307.765 167.659C308.313 167.931 308.743 168.394 308.974 168.96C309.206 169.526 309.223 170.157 309.023 170.735C308.674 171.854 308.324 172.832 308.045 173.601C307.412 175.005 307.125 176.539 307.206 178.076C307.206 178.775 307.206 179.824 306.157 181.362C306.185 181.773 306.068 182.18 305.825 182.513C305.582 182.845 305.229 183.081 304.829 183.179H303.71C303.71 183.669 304.13 186.185 304.619 190.73C305.108 195.274 305.598 201.007 306.157 207.858C306.716 214.709 307.415 222.33 308.045 230.649C308.674 238.968 309.163 247.078 309.653 255.188C310.142 263.298 310.142 269.17 310.212 276.161C310.282 283.152 310.212 288.815 310.212 293.919C310.212 299.022 309.862 303.147 309.653 306.363C309.622 308.054 309.435 309.74 309.093 311.396C309.182 313.213 308.872 315.026 308.185 316.71C307.695 317.269 307.346 317.549 306.996 317.549H304.13C302.731 317.549 301.753 317.549 301.333 317.549H299.795L295.111 316.78C293.482 316.671 291.847 316.671 290.217 316.78H285.324C283.471 316.914 281.628 317.147 279.801 317.479C279.021 317.683 278.203 317.683 277.424 317.479C277.033 316.811 276.772 316.076 276.655 315.311C276.064 314.703 275.632 313.959 275.396 313.144C275.444 312.656 275.444 312.164 275.396 311.676V310.418C275.463 309.568 275.603 308.726 275.816 307.901C275.816 307.901 275.816 307.411 275.816 306.782V301.958H267.846H260.086H251.836C250.047 301.771 248.242 301.771 246.453 301.958H242.678C241.607 302.019 240.533 302.019 239.462 301.958C238.553 301.958 237.994 301.958 237.784 302.937L236.316 307.831C235.826 309.229 235.477 310.488 235.127 311.536C234.899 312.468 234.595 313.38 234.218 314.263C234.218 315.172 233.729 316.011 233.519 316.78C233.219 317.139 232.8 317.379 232.339 317.456C231.877 317.533 231.403 317.442 231.003 317.199C229.314 316.548 227.554 316.102 225.759 315.871C223.628 315.919 221.496 315.755 219.397 315.381C217.081 315.065 214.744 314.924 212.406 314.962C211.201 314.623 209.953 314.458 208.701 314.473C206.51 314.339 204.319 314.199 202.129 314.053C201.43 314.053 201.081 314.053 201.22 313.494C201.324 313.3 201.379 313.084 201.379 312.865C201.379 312.645 201.324 312.429 201.22 312.235C200.746 311.564 200.523 310.747 200.591 309.928C200.523 309.465 200.523 308.994 200.591 308.53C200.591 308.53 201.22 306.013 202.549 301.539C203.877 297.065 205.555 290.912 207.792 283.642C210.029 276.371 212.406 268.121 214.783 258.963L222.893 230.999C225.34 222.609 227.647 214.43 229.884 206.46C232.121 198.49 234.009 191.289 235.687 184.857C237.364 178.425 238.693 173.182 239.741 168.987C240.42 166.464 240.911 163.893 241.21 161.297C241.839 159.2 242.398 158.151 243.027 158.151H251.906C251.906 158.151 251.906 157.732 251.906 157.452C252.042 157.5 252.19 157.5 252.325 157.452C255.234 156.931 258.18 156.651 261.134 156.613H270.642C272.754 156.334 274.893 156.334 277.004 156.613C279.171 156.613 281.758 157.382 284.764 158.011H286.862C287.421 158.011 289.169 158.011 292.105 158.92C293.685 159.388 295.297 159.739 296.929 159.969L300.984 160.528C302.287 160.627 303.596 160.627 304.899 160.528C305.668 160.528 306.017 160.528 306.017 161.437C306.099 161.639 306.099 161.864 306.017 162.066L305.528 163.255C306.029 163.409 306.502 163.645 306.926 163.954C307.004 163.986 307.087 164.003 307.171 164.003C307.255 164.003 307.338 163.986 307.416 163.954C307.368 164.089 307.368 164.238 307.416 164.373L307.765 164.863L308.254 165.142ZM271.901 270.428C271.901 259.942 271.271 250.783 270.922 242.953C270.572 235.123 270.083 228.132 269.524 221.98C268.964 215.828 268.335 210.654 267.566 206.11C266.797 201.566 265.958 197.231 265.049 193.107C265.049 192.757 265.049 193.107 265.049 194.016C265.105 194.55 265.105 195.089 265.049 195.623C264.14 199.539 263.022 203.593 261.833 207.718L258.268 219.813C257.01 224.357 255.681 228.971 254.283 233.795C252.885 238.619 251.836 243.023 250.508 247.288C249.179 251.552 248.061 255.328 247.012 258.683C245.964 262.039 244.565 266.304 243.307 269.659H244.216C247.432 269.659 250.648 270.219 253.864 270.359C257.079 270.498 259.596 270.848 262.882 270.918C266.168 270.988 269.104 270.918 271.901 271.477C272.04 271.827 272.25 271.547 271.901 270.428Z" fill="#EF8903"/>
<path d="M316.716 267.702C316.653 267.238 316.653 266.768 316.716 266.304C316.887 265.839 317.157 265.418 317.507 265.068C317.857 264.718 318.279 264.448 318.743 264.276H324.965H335.801C338.738 264.276 341.884 264.276 345.03 264.836C347.057 264.836 347.966 264.836 347.826 265.884C347.729 266.175 347.717 266.487 347.791 266.784C347.865 267.082 348.023 267.351 348.246 267.562C348.246 267.562 348.665 269.659 349.504 272.945C350.343 276.231 351.462 279.936 352.79 284.271C354.118 288.605 355.726 292.73 357.474 296.925C358.733 300.284 360.553 303.404 362.857 306.153C363.37 306.526 365.048 305.897 367.891 304.265C371.471 302.205 374.883 299.868 378.098 297.274C382.372 293.633 386.303 289.608 389.843 285.25C393.905 280.291 397.248 274.784 399.77 268.89C402.471 262.594 404.056 255.875 404.454 249.036C404.827 241.292 403.416 233.566 400.329 226.454C400.194 226.502 400.046 226.502 399.91 226.454C399.706 226.524 399.485 226.524 399.281 226.454C399.281 226.454 398.861 226.454 398.722 226.944L393.828 230.09C391.031 231.977 387.815 233.935 384.32 236.032C380.824 238.13 377.329 240.157 373.973 241.905C371.621 243.3 369 244.182 366.283 244.491C364.528 244.565 362.778 244.729 361.039 244.981C358.603 245.268 356.152 245.408 353.699 245.4C351.837 244.982 349.942 244.725 348.036 244.631H342.513H329.51C328.552 244.666 327.605 244.423 326.783 243.932C325.03 243.383 323.459 242.368 322.239 240.996C320.475 238.438 319.371 235.484 319.023 232.397C318.784 229.077 319.487 225.757 321.05 222.819C323.459 218.411 326.317 214.264 329.579 210.445C333.494 205.481 338.738 199.469 345.24 192.268C347.547 189.891 350.832 186.745 355.097 182.9L367.681 171.714C372.342 167.426 377.515 163.022 383.201 158.501C383.738 157.952 384.35 157.481 385.019 157.102C385.954 156.739 386.911 156.435 387.885 156.194C389.421 155.842 390.994 155.678 392.569 155.704H417.458C420.541 155.824 423.505 156.927 425.917 158.85C428.664 160.723 431.036 163.094 432.908 165.841C433.24 167.571 433.427 169.324 433.467 171.085C433.467 172.902 433.467 174.51 433.467 175.839C433.462 179.095 433.039 182.337 432.209 185.486C431.454 188.402 430.472 191.253 429.273 194.016C428.084 196.532 427.036 198.7 426.057 200.447C425.078 202.195 424.449 203.104 424.309 203.314C424.173 203.266 424.025 203.266 423.89 203.314C423.744 203.84 423.744 204.396 423.89 204.922C423.89 205.341 423.75 205.551 423.47 205.551C423.47 205.551 422.981 205.551 422.981 204.922C422.981 204.292 421.722 203.803 421.093 204.362C420.464 204.922 420.044 205.341 420.044 205.831H418.227C417.784 205.894 417.37 206.089 417.038 206.39C416.605 206.747 416.062 206.945 415.5 206.949C414.873 206.873 414.24 206.873 413.613 206.949C413.342 207.124 413.026 207.217 412.704 207.217C412.381 207.217 412.066 207.124 411.795 206.949C410.389 206.13 408.852 205.562 407.251 205.271C405.035 204.73 402.703 204.927 400.609 205.831C400.074 206.085 399.489 206.217 398.896 206.217C398.304 206.217 397.719 206.085 397.184 205.831C396.092 205.335 395.097 204.648 394.247 203.803C393.455 203.337 393.036 202.149 392.989 200.238C392.867 198.668 392.985 197.088 393.338 195.554C394.667 193.247 395.855 191.219 396.834 189.401C398 187.034 398.734 184.477 399.001 181.851C399.001 181.362 398.092 181.851 396.135 183.109C393.714 184.858 391.381 186.725 389.144 188.702C386.138 191.149 382.852 194.085 379.216 197.511C375.581 200.937 372.225 204.502 368.8 208.138C365.599 211.668 362.633 215.405 359.921 219.323C357.535 222.526 355.627 226.058 354.258 229.81L355.866 228.901C357.005 227.807 358.246 226.824 359.571 225.965C362.234 224.006 365.013 222.208 367.891 220.582C371.406 218.568 375.076 216.838 378.867 215.408C382.69 213.97 386.737 213.213 390.822 213.171L410.956 214.29C415.174 214.393 419.341 215.245 423.26 216.807C428.458 218.773 432.709 222.649 435.145 227.643C438.442 235.228 439.719 243.537 438.851 251.762C438.243 258.254 436.737 264.63 434.376 270.708C431.767 277.618 428.138 284.098 423.61 289.934C418.782 296.212 413.058 301.748 406.622 306.363C399.67 311.359 391.845 315.01 383.551 317.129C381.941 317.76 380.243 318.138 378.517 318.248C376.192 318.476 373.851 318.476 371.526 318.248C367.894 317.986 364.278 317.543 360.69 316.919C359.275 316.538 357.82 316.326 356.355 316.29C354.678 316.29 353 316.29 351.322 316.29C349.644 316.29 347.616 316.29 345.589 316.29C341.495 315.935 337.681 314.066 334.893 311.047C330.964 306.979 327.792 302.245 325.525 297.065C321.377 287.682 318.418 277.818 316.716 267.702Z" fill="#EF8903"/>
<path d="M517.08 155.285C531.063 155.797 540.99 156.287 546.863 156.753C552.735 157.312 555.671 157.801 555.671 158.291L555.252 158.99C554.902 159.409 554.623 159.619 554.343 159.619C554.167 159.85 554.072 160.133 554.072 160.423C554.072 160.714 554.167 160.996 554.343 161.227L554.832 162.136C555.252 162.625 555.322 164.373 554.832 167.519C554.545 170.696 553.767 173.809 552.525 176.747C552.525 179.544 552.525 182.061 552.525 184.298C552.525 186.605 552.525 188.492 552.106 190.031C551.686 191.569 551.686 190.73 550.917 190.73H549.799C547.772 190.294 545.716 190.014 543.647 189.891C541.969 189.891 540.221 189.891 538.473 189.891H532.531C530.364 189.891 527.497 189.891 524.002 189.891H518.129C516.872 189.823 515.611 189.823 514.354 189.891H511.627C510.718 189.891 509.949 191.009 509.25 193.107C508.395 195.885 507.694 198.709 507.153 201.566C506.524 205.061 505.825 209.186 505.126 213.87C504.426 218.554 503.588 223.518 502.469 228.552C501.001 236.312 499.393 244.352 497.715 252.741C496.037 261.13 494.429 269.03 492.891 276.511C491.353 283.991 490.025 290.493 488.906 296.715C487.788 302.937 486.949 307.341 486.529 310.697C486.28 311.158 485.999 311.602 485.69 312.026C485.478 312.336 485.291 312.664 485.131 313.004C485.131 313.004 484.712 313.494 484.712 313.634C484.362 314.892 484.012 315.591 483.663 315.801C483.321 315.904 482.956 315.904 482.614 315.801C481.829 315.773 481.052 315.632 480.307 315.381C479.666 315.099 478.979 314.933 478.28 314.892C477.883 315.065 477.454 315.155 477.021 315.155C476.588 315.155 476.16 315.065 475.763 314.892C474.857 314.79 473.942 314.79 473.036 314.892C472.415 314.641 471.749 314.522 471.079 314.542H462.41C460.802 314.542 459.474 314.542 458.425 314.892C456.728 315.33 454.948 315.33 453.251 314.892C452.709 314.449 452.338 313.831 452.203 313.144C451.958 312.534 451.77 311.902 451.644 311.257C451.61 310.744 451.61 310.231 451.644 309.718C451.553 309.28 451.553 308.828 451.644 308.39C451.557 306.532 451.745 304.671 452.203 302.867C452.762 300.141 453.391 297.065 454.16 293.779C454.929 290.493 455.768 286.788 456.677 283.432C457.586 280.076 458.425 276.93 459.194 274.343C460.382 269.31 461.501 264.066 462.48 258.543C463.458 253.02 464.367 247.498 465.136 241.905C465.905 236.312 467.304 230.509 468.003 225.196C468.702 219.883 469.261 215.059 469.681 210.794C470.1 206.53 470.729 201.146 471.079 196.812C471.04 196.277 471.04 195.739 471.079 195.204C471.218 194.441 471.218 193.66 471.079 192.897C471.035 192.558 470.918 192.233 470.737 191.944C470.556 191.654 470.315 191.407 470.03 191.219C469.541 190.8 468.562 191.219 467.164 191.219C465.183 191.655 463.132 191.655 461.151 191.219C458.285 191.219 455.489 191.219 452.552 191.219C450.84 191.123 449.223 190.402 448.008 189.192C447.797 189.033 447.638 188.816 447.55 188.567C447.463 188.318 447.452 188.049 447.519 187.793C447.846 186.059 448.08 184.309 448.218 182.55C448.218 181.082 448.218 179.544 448.567 178.006C448.917 176.468 448.567 175.139 448.567 173.881C448.357 171.555 448.357 169.216 448.567 166.89C448.675 165.108 448.885 163.334 449.197 161.577C449.512 160.052 449.745 158.512 449.896 156.963H450.805C451.615 156.622 452.459 156.365 453.321 156.193H455.139C457.796 155.774 461.291 155.355 465.696 155.075L480.657 154.236C486.18 154.236 492.122 154.236 498.344 153.817L517.08 155.285Z" fill="#EF8903"/>
<path d="M623.976 155.494C629.363 156.305 634.486 158.364 638.937 161.507C642.567 164.326 645.409 168.034 647.186 172.273C649.002 176.708 649.906 181.463 649.843 186.255C649.811 191.53 649.178 196.784 647.955 201.915C646.736 207.408 645.052 212.788 642.922 217.995C640.901 223.166 638.566 228.209 635.931 233.096C633.596 237.555 630.858 241.79 627.751 245.75C624.815 249.315 622.158 252.321 619.711 254.768C617.066 257.303 614.239 259.639 611.252 261.759C613.069 270.428 614.817 278.189 616.495 285.04L618.383 293.639C618.942 296.435 619.501 298.952 620.061 301.119C620.62 303.287 621.039 305.174 621.319 306.503C621.599 307.831 621.808 308.67 621.808 308.81C622.19 309.167 622.457 309.629 622.577 310.138C622.609 310.604 622.609 311.071 622.577 311.536C622.706 311.759 622.774 312.013 622.774 312.27C622.774 312.528 622.706 312.781 622.577 313.004C622.24 313.674 622.095 314.424 622.158 315.172C621.529 316.08 620.131 316.36 617.893 315.871C615.846 315.443 613.763 315.209 611.671 315.172H593.844C592.166 315.661 590.978 315.172 590.418 312.934C590.019 311.906 589.783 310.82 589.719 309.718C588.461 303.916 587.412 298.673 586.503 293.919C585.594 289.165 585.035 286.228 584.336 282.733C583.989 280.651 583.498 278.595 582.868 276.581C582.428 277.536 582.123 278.548 581.959 279.587C581.47 281.404 580.98 283.572 580.421 286.158C579.862 288.745 579.302 291.611 578.603 294.757C577.904 297.903 577.275 300.84 576.646 303.566L575.178 310.557C574.93 311.759 574.743 312.972 574.618 314.193C574.618 315.078 573.849 315.358 572.311 315.032C569.134 314.592 565.911 314.592 562.734 315.032H554.344C553.056 315.56 551.681 315.844 550.289 315.871H545.885C545.303 315.831 544.74 315.643 544.251 315.325C543.761 315.007 543.361 314.569 543.088 314.053C543.088 313.634 543.438 312.026 543.997 309.299C544.557 306.572 545.465 302.867 546.444 298.183C547.423 293.499 548.611 288.186 549.94 282.104C551.268 276.021 552.736 269.45 554.064 262.459C555.882 253.44 557.42 244.212 558.539 234.494C559.657 224.776 561.056 216.107 562.734 207.578C565.53 194.924 567.557 184.368 568.956 175.908C569.854 171.29 570.461 166.62 570.773 161.926C570.854 161.193 571.131 160.495 571.573 159.905C572.016 159.314 572.609 158.854 573.29 158.571L576.436 157.592C576.436 157.242 577.135 157.032 578.044 156.893H581.26H585.035H588.321C589.874 157.12 591.452 157.12 593.005 156.893L597.06 156.263L601.814 155.704C604.259 155.561 606.71 155.561 609.155 155.704C610.676 155.244 612.25 154.986 613.839 154.935H618.732L623.976 155.494ZM604.82 229.53C607.691 224.032 610.213 218.358 612.37 212.542C614.536 206.674 616.014 200.574 616.775 194.365C617.501 188.717 617.193 182.984 615.866 177.447C614.617 171.983 611.623 167.075 607.337 163.464C607.337 164.093 606.917 164.373 605.729 164.373C604.54 164.373 604.68 163.884 604.331 164.373C604.078 164.61 603.927 164.936 603.911 165.282C602.653 170.176 601.534 175.209 600.486 180.383C599.437 185.556 598.318 189.821 597.27 195.554C596.221 201.286 595.032 206.949 593.844 212.542C592.655 218.135 591.817 222.19 590.978 226.524C590.139 230.859 589.44 235.193 588.81 238.759C588.181 242.324 587.762 245.33 587.412 247.777C587.063 250.224 586.993 251.762 586.993 252.321C589.11 250.332 591.095 248.207 592.935 245.96L598.668 238.619C600.923 235.733 602.978 232.696 604.82 229.53Z" fill="#EF8903"/>
<path d="M736.182 157.102C739.719 159.021 742.612 161.939 744.501 165.492C746.489 169.344 747.813 173.504 748.416 177.796C749.105 182.799 749.292 187.857 748.976 192.897C748.976 198.28 748.207 203.803 747.577 209.466C746.7 219.321 745.299 229.122 743.383 238.829C741.389 249.095 738.392 259.14 734.434 268.82C730.719 278.235 725.783 287.119 719.753 295.247C714.236 302.877 707.066 309.163 698.779 313.634C696.547 314.641 694.199 315.369 691.788 315.801C689.159 316.345 686.496 316.718 683.818 316.919C681.49 317.037 679.156 317.037 676.827 316.919H672.423C671.854 317.27 671.203 317.462 670.535 317.479H668.997C667.127 317.51 665.277 317.078 663.614 316.22C662.111 315.444 660.761 314.402 659.629 313.144C654.183 308.896 650.239 303.016 648.374 296.366C646.212 288.753 645.221 280.856 645.437 272.945C645.646 263.933 646.747 254.964 648.723 246.169C650.744 237.097 653.383 228.175 656.623 219.463C658.591 212.449 661.164 205.618 664.313 199.049C667.221 192.739 670.61 186.662 674.45 180.872C677.766 175.858 681.559 171.175 685.776 166.89C688.895 163.475 692.646 160.698 696.822 158.71H698.43C699.823 158.643 701.205 158.432 702.555 158.081C704.372 157.708 706.12 157.289 707.798 156.823H712.971C714.384 156.768 715.788 156.581 717.166 156.263H721.501C722.706 156.267 723.906 156.103 725.066 155.774C725.904 155.502 726.773 155.337 727.653 155.285C729.746 155.208 731.839 155.42 733.875 155.914C734.684 156.228 735.457 156.626 736.182 157.102ZM680.882 301.329C684.312 297.769 687.445 293.934 690.25 289.864C693.297 285.372 696.075 280.703 698.57 275.882C701.864 269.52 704.578 262.875 706.679 256.027C710.115 245.84 713.008 235.479 715.348 224.986C716.257 220.722 717.096 216.177 717.865 211.493C718.634 206.809 719.193 202.125 719.613 197.511C719.89 193.088 719.89 188.651 719.613 184.228C719.452 180.201 718.795 176.209 717.655 172.343C717.186 172.52 716.739 172.755 716.327 173.042C716.012 173.323 715.659 173.558 715.278 173.741C714.993 173.819 714.729 173.963 714.509 174.161C711.197 177.09 708.241 180.399 705.701 184.018C701.415 189.688 697.559 195.671 694.165 201.915C689.96 209.544 686.201 217.411 682.91 225.476C679.455 233.964 676.833 242.767 675.08 251.762C673.323 260.407 672.736 269.248 673.332 278.049C673.953 286.301 676.542 294.283 680.882 301.329ZM687.873 141.792H691.369C693.694 142.022 696.035 142.022 698.36 141.792L709.196 141.372C713.202 141.159 717.216 141.159 721.221 141.372H728.212C730.799 141.372 733.246 141.372 735.553 141.372L743.523 140.673C743.896 140.3 744.664 140.3 745.83 140.673C747.266 140.899 748.728 140.899 750.164 140.673C750.933 140.673 751.283 141.093 751.283 141.862C751.223 142.067 751.223 142.286 751.283 142.491C751.283 143.12 751.283 143.54 751.982 143.679C752.26 143.971 752.495 144.301 752.681 144.658C752.785 144.839 752.84 145.044 752.84 145.252C752.84 145.461 752.785 145.666 752.681 145.847C752.526 146.174 752.445 146.533 752.445 146.895C752.445 147.258 752.526 147.616 752.681 147.944C752.961 148.367 753.152 148.843 753.24 149.342C753.59 149.971 753.24 150.321 752.331 150.391H749.115H742.963C741.475 150.256 739.977 150.256 738.489 150.391H729.82H721.85H716.747C715.141 150.278 713.529 150.278 711.923 150.391H697.941C696.663 150.246 695.373 150.246 694.095 150.391C692.434 150.731 690.753 150.965 689.062 151.09C687.034 151.09 685.916 151.09 685.636 150.391C685.356 149.692 684.867 149.482 684.797 149.552C684.727 149.622 684.797 149.552 684.238 149.552C683.679 149.552 683.259 147.874 683.679 147.455C684 147.054 684.194 146.568 684.238 146.056C684.486 145.288 684.918 144.592 685.496 144.029L686.755 142.701L687.873 141.792Z" fill="#EF8903"/>
<path d="M199.334 97.8877C198.376 99.0324 197.078 99.8408 195.628 100.195C194.698 100.278 193.762 100.278 192.832 100.195H189.966C188.637 100.195 185.701 100.195 181.297 99.4956L167.314 97.9576L153.332 96.2098C150.419 95.9003 147.525 95.4336 144.663 94.8115H137.672C137.113 96.9089 136.553 99.2159 135.924 101.803C135.322 104.452 134.575 107.066 133.687 109.633C144.523 111.311 153.122 112.849 159.624 114.177C166.126 115.505 171.09 116.624 174.725 117.603C177.712 118.365 180.654 119.299 183.534 120.399C186.19 121.588 187.798 122.846 188.218 124.104C188.727 125.493 188.987 126.96 188.987 128.439C188.218 128.439 187.519 129.068 186.959 130.396C186.4 131.725 184.792 132.424 182.136 132.424H180.667C177.863 131.732 175.013 131.241 172.138 130.956L158.156 129.278L144.174 127.67C139.909 127.25 137.183 126.971 136.344 126.971C136.091 126.621 135.767 126.328 135.394 126.111C135.021 125.894 134.606 125.758 134.176 125.712H131.17C129.598 132.962 128.408 140.29 127.605 147.664C126.766 155.425 125.647 163.325 124.319 171.294V176.678C123.62 182.76 122.851 187.444 122.222 190.66C122.063 192.07 121.361 193.363 120.264 194.263C119.168 195.164 117.763 195.602 116.349 195.484C115.419 195.571 114.483 195.571 113.553 195.484C112.364 195.484 111.525 194.435 110.966 192.967C110.775 192.973 110.589 192.914 110.436 192.799C110.284 192.685 110.175 192.522 110.127 192.338C109.913 192.118 109.752 191.854 109.655 191.563C109.558 191.272 109.528 190.964 109.568 190.66C109.568 190.31 109.568 188.353 109.568 184.787C109.568 181.222 109.568 176.608 110.127 170.805C110.686 165.002 110.896 158.081 111.665 150.251C112.434 142.421 113.483 134.032 114.811 124.943H81.1837C79.8554 134.032 78.7368 141.512 77.8979 147.385C77.059 153.257 76.4298 158.011 76.0802 161.367C75.733 163.964 75.523 166.578 75.451 169.197C75.3651 170.464 75.5807 171.734 76.0802 172.902V179.893L74.3324 181.012C74.4245 182.549 74.4245 184.089 74.3324 185.626C74.155 187.261 73.8273 188.876 73.3537 190.45C72.95 191.858 72.2598 193.167 71.3262 194.295C70.9393 194.793 70.4397 195.192 69.8685 195.46C69.2973 195.727 68.6707 195.855 68.0404 195.833C66.7577 195.838 65.4906 195.551 64.3351 194.994C63.7763 194.694 63.3188 194.235 63.0203 193.675C62.7217 193.115 62.5954 192.48 62.6573 191.848C62.6573 191.848 62.6573 189.681 62.6573 185.906C62.6573 182.131 62.6573 177.167 62.6573 171.085C62.6573 165.002 62.6573 157.941 63.4962 150.111C64.3352 142.281 64.6847 133.822 65.6634 125.083C56.7148 125.642 49.2343 125.992 43.152 126.202C38.0906 126.29 33.0428 126.757 28.0512 127.6H7.77699C6.32662 127.628 4.8983 127.242 3.65988 126.487C2.42146 125.731 1.42441 124.638 0.78587 123.335C0.193771 122.194 -0.0723229 120.912 0.0168429 119.63C0.318009 117.969 1.18213 116.463 2.46372 115.365C2.46372 115.365 2.81329 115.365 3.02303 115.365C3.23276 115.365 3.58233 115.016 3.58233 114.247C4.82514 113.502 6.25918 113.137 7.70706 113.198H13.0203H16.7256C17.7303 113.128 18.7081 112.842 19.592 112.359C20.8366 111.772 22.2013 111.485 23.5769 111.52H27.5619C32.2408 111.336 36.9075 110.916 41.5441 110.262C49.663 109.29 57.8366 108.846 66.013 108.934C66.7195 106.658 67.1881 104.315 67.4112 101.942C67.6334 99.8144 68.1268 97.7234 68.8794 95.7204C61.4688 95.7204 54.8971 95.7204 49.6538 95.7204C45.287 95.6782 40.928 96.1 36.6503 96.9788H15.607C14.0725 96.9276 12.5976 96.3728 11.4098 95.3998C10.2221 94.4269 9.38767 93.09 9.03539 91.5956C9.11341 89.789 9.59092 88.0221 10.4336 86.4222C11.4124 84.5346 12.2513 83.6258 13.0203 83.6258C13.7425 82.172 14.895 80.976 16.321 80.2004C17.7471 79.4248 19.3774 79.1074 20.9902 79.2913L25.2548 80.7594H35.8114C40.4051 79.7066 45.0852 79.0747 49.7936 78.8718C56.7848 78.4523 63.7758 78.1727 72.305 78.1727C72.7887 77.5323 73.1231 76.7918 73.2837 76.0054C73.3158 75.4 73.3158 74.7932 73.2837 74.1877C75.3811 63.3515 76.7094 55.0321 77.4085 49.0896C78.1076 43.1472 78.3873 38.6729 78.3873 35.1074C77.873 35.1562 77.3541 35.1009 76.8616 34.9448C76.3691 34.7886 75.9132 34.5348 75.521 34.1986C75.2834 34.152 75.0594 34.0523 74.8657 33.907C74.672 33.7618 74.5136 33.5746 74.4023 33.3596C73.843 31.9622 73.6041 30.4572 73.7032 28.9552C74.0976 26.3209 74.9243 23.7697 76.1501 21.4048C76.6771 17.1961 78.0314 13.1331 80.1351 9.44999C80.1351 9.44999 80.5545 9.44998 80.974 8.89069C80.903 8.61555 80.903 8.32689 80.974 8.05176C81.4687 6.08576 82.2458 4.20187 83.281 2.45887C83.729 1.66252 84.394 1.00976 85.1984 0.576574C86.0029 0.143391 86.9139 -0.0523854 87.8253 0.0119913C89.3116 -0.0299324 90.7675 0.438882 91.9501 1.34029C92.9678 2.15933 93.8016 3.18365 94.397 4.34648C94.9368 5.45148 95.3135 6.62891 95.5155 7.84204C95.5979 8.8424 95.5979 9.84785 95.5155 10.8482C95.7271 14.6904 95.7271 18.5413 95.5155 22.3835C95.5155 27.0676 94.9562 31.6817 94.397 36.3658C93.8377 41.0498 93.2085 44.895 92.6492 48.1808C92.4113 50.0696 92.0375 51.9387 91.5306 53.7737V62.0232C90.7615 64.6798 90.0625 67.3365 89.3633 69.9931C88.6642 72.6497 88.1049 75.3063 87.5456 77.9629H122.501C124.981 68.3945 128.23 59.0425 132.219 49.9985C135.627 42.0956 139.527 34.4137 143.894 26.9977C143.807 25.3909 143.807 23.7806 143.894 22.1738C144.189 20.0044 145.058 17.953 146.411 16.2314V13.2951C147.123 11.6891 147.707 10.0293 148.159 8.33141C148.718 6.30399 150.466 5.32523 153.262 5.32523C153.728 5.28516 154.196 5.33875 154.64 5.48284C155.085 5.62694 155.496 5.8586 155.849 6.16416C156.459 6.7963 157.02 7.47408 157.527 8.19159L158.436 9.31016C159.068 11.2474 159.306 13.2918 159.135 15.3225C158.771 20.0152 158.14 24.6835 157.247 29.3048C157.168 30.4589 156.833 31.5811 156.268 32.5906C155.434 34.6634 154.825 36.8197 154.451 39.0224C154.451 39.9313 154.451 40.9799 154.451 42.0286C154.451 43.0773 154.451 44.056 153.961 44.9649C153.472 45.8737 153.961 46.9923 153.402 48.1109V49.6489H151.724C150.745 51.5365 149.697 53.7737 148.578 56.64C147.46 59.5064 146.481 62.163 145.152 65.7984C143.584 70.1741 142.254 74.6317 141.168 79.1515C152.004 80.6895 162.141 82.4373 171.229 84.4647C179.697 86.2312 188.035 88.5669 196.188 91.4558C196.369 91.3918 196.566 91.3918 196.747 91.4558C197.306 92.0151 197.586 92.3647 197.586 92.5744C197.586 92.7841 198.075 92.5744 198.425 93.1337C198.361 93.3146 198.361 93.512 198.425 93.693L199.334 97.8877ZM117.607 108.444C117.59 105.949 117.872 103.461 118.446 101.034C119.006 98.7965 119.635 96.2797 120.404 93.6231H85.4483C85.4519 96.1039 85.2649 98.5814 84.889 101.034C84.4811 103.482 84.2939 105.962 84.3297 108.444H117.677H117.607Z" fill="#FFEFDB"/>
<path d="M265.329 392.214C269.524 390.606 273.369 389.138 276.935 387.879L286.163 384.943C288.411 384.134 290.767 383.663 293.154 383.545C295.522 383.597 297.883 383.266 300.145 382.566C300.837 382.378 301.48 382.044 302.033 381.587C311.75 379.35 323.006 376.554 334.961 373.128C373.552 362.571 392.498 363.41 452.342 355.86C494.289 350.617 528.126 346.352 562.312 340.969C580.555 342.373 598.879 342.373 617.123 340.969C623.694 340.41 633.901 339.501 646.835 339.081C656.692 339.081 665.641 338.662 673.751 339.081C681.86 339.501 688.502 339.571 693.815 340.06C696.982 340.269 700.133 340.665 703.253 341.249C705.211 342.554 705.7 344.092 704.721 345.863C703.928 347.084 703.425 348.471 703.253 349.918C701.97 351.282 700.909 352.839 700.107 354.532C699.423 355.807 699.018 357.213 698.919 358.656C698.738 359.752 698.214 360.762 697.423 361.541C696.631 362.32 695.613 362.828 694.514 362.991H672.772C671.793 362.991 668.158 363.41 661.866 364.179C655.574 364.948 649.212 366.067 642.78 367.325C637.419 367.249 632.061 367.646 626.77 368.514C623.414 369.071 620.162 370.131 617.123 371.66C613.837 373.268 531.971 383.405 529.244 383.405C526.718 383.418 524.202 383.089 521.764 382.426L515.961 380.748C515.348 380.461 514.68 380.313 514.004 380.313C513.327 380.313 512.659 380.461 512.046 380.748C510.438 381.727 342.651 398.086 338.596 398.716C334.361 399.436 330.091 399.926 325.803 400.184C321.258 400.184 316.994 400.673 312.939 400.673H304.06C300.404 400.693 296.756 401.02 293.154 401.652C290.363 402.193 287.535 402.52 284.695 402.631C282.472 403.528 280.101 404.003 277.704 404.029C275.117 404.029 273.859 403.539 273.859 402.631C272.88 400.393 271.831 399.065 270.713 398.716C269.683 398.457 268.628 398.316 267.567 398.296C266.238 398.296 265.609 397.317 265.609 395.36C265.208 394.362 265.11 393.267 265.329 392.214Z" fill="#FFEFDB"/>
<path d="M728.842 89.8479C728.842 94.7416 728.982 99.2159 729.261 103.271C729.261 106.766 729.261 110.262 729.261 113.058C729.342 114.844 729.178 116.631 728.772 118.372C728.213 118.372 727.933 118.511 727.933 118.791V119.211C727.933 119.211 727.444 119.211 727.304 119.211C727.164 119.211 726.884 119.211 726.884 118.372V116.274C726.884 116.274 726.884 114.527 726.884 111.8C726.884 109.073 726.884 106.067 726.884 102.851L726.465 89.8479C721.804 94.8815 717.61 99.5422 713.881 103.83L709.267 109.004L705.072 113.827L701.996 117.463C701.432 118.042 701.044 118.769 700.877 119.56C700.701 120.017 700.396 120.412 699.998 120.697C699.601 120.983 699.129 121.147 698.64 121.168C697.592 121.168 697.102 121.168 697.102 120.609L696.123 119.56C696.075 119.283 696.075 118.999 696.123 118.721C696.082 118.514 696.082 118.3 696.123 118.092V117.393C696.254 117.1 696.445 116.839 696.683 116.624L698.78 114.317L703.394 109.283L709.127 102.921L715 95.9301L719.823 90.6169L722.27 87.9603H719.823H714.37L707.379 87.4709L700.388 86.9116H695.005H692.628H691.16H688.923C688.231 86.8079 687.566 86.5705 686.965 86.2125C686.713 86.0754 686.503 85.8734 686.355 85.6276C686.208 85.3818 686.129 85.1009 686.126 84.8142C686.686 84.8142 688.293 84.8142 690.95 84.3249C693.731 83.9553 696.534 83.7684 699.339 83.7656C700.877 83.7656 702.975 84.3249 705.631 84.5346L713.462 85.1638L720.453 85.5833H723.948C723.747 85.0532 723.463 84.5579 723.109 84.1151L722.061 82.4373L720.383 79.9205C719.404 78.8019 717.656 76.6347 715.139 73.4187L707.239 63.4913L699.899 54.1232C697.731 51.3268 696.613 49.7887 696.473 49.5091C695.488 49.1031 694.639 48.4239 694.026 47.5516C693.876 47.3816 693.769 47.1775 693.715 46.9569C693.661 46.7364 693.662 46.506 693.717 46.2857C693.772 46.0655 693.88 45.8619 694.031 45.6927C694.182 45.5235 694.373 45.3936 694.586 45.3144C694.787 45.2328 695.013 45.2328 695.215 45.3144L695.844 45.7339L696.473 46.1534C697.172 46.1534 698.57 47.202 700.668 49.2994C701.368 50.6451 702.212 51.9109 703.185 53.0746L708.008 59.5064C709.826 61.9533 711.784 64.4701 713.881 67.1267C715.978 69.7833 717.866 72.3001 719.614 74.6072C721.361 76.9143 722.83 78.8718 724.018 80.5497C724.759 81.4381 725.371 82.4266 725.836 83.4859C725.836 76.4948 726.115 69.9931 726.675 63.9807C726.675 58.9471 727.304 54.0533 727.793 49.2294C727.992 45.9043 728.603 42.6167 729.611 39.4419V41.3295C729.611 41.749 729.611 41.9587 729.611 41.9587C729.611 41.9587 729.611 42.6578 729.611 44.056C729.451 45.0282 729.451 46.0201 729.611 46.9923C729.611 48.81 729.611 51.1171 729.611 53.9834C729.611 56.8498 729.611 59.5763 729.611 62.6524C729.611 65.7285 729.611 68.6648 729.611 71.3913C729.611 74.1178 729.611 76.4249 729.611 78.3824C729.611 80.3399 729.611 81.4585 729.611 81.7382C734.272 76.5647 738.676 71.904 742.824 67.7559C744.502 65.9382 746.18 64.1905 747.928 62.4427C749.675 60.6949 751.353 59.0869 752.961 57.6188L757.296 53.8436C758.262 52.9879 759.316 52.2379 760.442 51.6064V52.2356C760.523 52.4374 760.523 52.663 760.442 52.8648C760.27 53.0516 760.129 53.2638 760.022 53.494C759.054 54.3166 758.143 55.2042 757.296 56.1507C756.037 57.479 755.408 58.3878 755.408 58.9471C755.408 59.5064 754.709 60.2754 753.381 61.6737C752.27 62.7897 751.328 64.0614 750.584 65.4488L747.089 69.1542L741.146 75.5161L735.274 81.9479C734.165 83.0488 733.181 84.2679 732.338 85.5833L740.098 86.2125C742.277 86.5118 744.471 86.6985 746.669 86.7718H752.472C754.15 86.7718 756.527 87.331 759.463 87.5408L769.111 88.2399L778.059 89.0089C779.624 89.0123 781.179 89.2479 782.674 89.708C783.512 90.1275 782.674 90.547 780.856 90.9664C778.693 91.4001 776.491 91.6109 774.284 91.5956C773.166 91.5956 771.068 91.5956 767.992 91.5956L757.785 89.9877L748.417 89.3585H743.523H740.657H736.392L730.52 88.7293C731.175 89.2662 731.741 89.9032 732.198 90.6169C732.897 91.4558 733.806 92.7142 734.994 94.3222C736.183 95.9301 737.93 98.0974 740.168 100.894C742.405 103.69 743.733 105.788 745.9 108.374C748.068 110.961 751.004 114.527 754.639 119.141C754.919 119.84 755.198 120.469 755.478 121.028C756.037 122.287 756.037 122.916 755.478 122.916C755.176 122.904 754.881 122.815 754.624 122.655C754.367 122.496 754.155 122.273 754.01 122.007C753.869 121.733 753.659 121.499 753.403 121.328C753.146 121.156 752.85 121.053 752.542 121.028C752.436 120.272 752.064 119.578 751.493 119.071L749.606 117.043C748.249 115.682 747.009 114.209 745.9 112.639L738.909 103.62L728.842 89.8479Z" fill="#EF8903"/>
<path d="M53.7096 286.438C53.2605 276.933 54.0834 267.411 56.1565 258.124C58.1092 249.011 60.822 240.078 64.2662 231.418C67.3864 223.471 71.078 215.761 75.3121 208.347C79.367 201.356 83.1422 195.204 86.6378 190.031C90.1333 184.857 93.0696 180.732 95.4466 177.726C97.8236 174.72 99.0121 173.042 99.2218 172.902C99.8403 172.063 100.518 171.269 101.249 170.525L103.976 167.449L106.493 164.373L108.101 162.206C107.947 161.636 107.987 161.032 108.215 160.487C108.442 159.943 108.845 159.49 109.359 159.2C110.663 158.392 112.111 157.846 113.623 157.592C115.71 157.116 117.845 156.881 119.985 156.893C119.937 156.757 119.937 156.609 119.985 156.473C120.447 156.125 121.016 155.952 121.593 155.984H128.584C130.35 155.567 132.154 155.333 133.968 155.285C135.318 155.198 136.672 155.198 138.022 155.285C138.991 155.397 139.949 155.584 140.889 155.844C141.658 155.844 142.217 155.844 142.497 155.844C142.776 155.844 144.664 155.145 148.09 155.145C151.515 155.145 155.99 155.145 161.443 155.844H167.875H172.209L175.635 156.263C180.309 157.423 184.332 160.39 186.821 164.513C189.213 168.799 190.554 173.59 190.736 178.495C190.992 184.002 190.569 189.52 189.477 194.924C188.289 200.727 186.89 206.32 185.213 211.773C183.535 217.226 181.927 222.05 180.459 226.454C179.277 229.754 178.273 233.114 177.452 236.522C175.827 236.331 174.184 236.331 172.559 236.522H170.182C167.37 236.221 164.534 236.221 161.722 236.522C157.879 236.718 154.051 237.138 150.257 237.78C148.878 238.107 147.441 238.107 146.062 237.78C145.04 237.434 144.074 236.939 143.196 236.312C142.385 235.642 141.759 234.775 141.378 233.795C141.378 232.886 142.567 230.16 143.965 225.685C145.363 221.211 146.901 215.898 148.369 209.815C149.804 203.517 150.901 197.146 151.655 190.73C152.504 184.771 152.504 178.721 151.655 172.762C151.426 171.232 150.904 169.76 150.117 168.428C149.581 167.503 148.839 166.714 147.95 166.121C147.163 165.531 146.207 165.212 145.223 165.212C136.808 174.603 128.92 184.452 121.593 194.715C115.574 202.82 110.109 211.321 105.234 220.162C101.42 227.173 98.1483 234.465 95.4466 241.975C93.3338 247.888 91.7202 253.968 90.6227 260.151C88.3885 271.203 89.1857 282.654 92.9298 293.289C93.7633 295.869 95.1199 298.249 96.9147 300.28C98.4608 301.924 100.345 303.212 102.438 304.056C104.68 304.922 107.034 305.463 109.429 305.664C111.946 305.664 114.602 306.013 117.539 306.013C120.475 306.013 123.481 306.013 126.277 305.664C129.074 305.314 131.661 305.174 133.968 304.825C136.275 304.475 139.281 304.126 141.728 303.706C142.357 301.399 143.266 298.113 144.594 293.849C145.922 289.584 147.111 285.25 148.369 280.845C149.628 276.441 151.445 270.498 153.123 264.836C150.886 264.836 147.391 264.836 142.776 264.836L128.794 265.535C124.04 265.535 119.636 265.884 115.791 265.884C111.946 265.884 109.639 265.465 108.8 264.696C108.272 264.311 107.841 263.808 107.541 263.228C107.246 262.585 106.817 262.013 106.283 261.55C105.609 261.513 104.957 261.295 104.395 260.92C103.696 260.92 103.976 260.361 105.164 260.361C105.932 260.135 106.646 259.755 107.262 259.243L107.891 258.543C107.858 258.621 107.841 258.704 107.841 258.788C107.841 258.872 107.858 258.955 107.891 259.033C107.891 259.033 108.31 259.033 108.8 258.543C109.771 258.347 110.696 257.967 111.526 257.425C112.621 256.734 113.87 256.326 115.162 256.236H121.314H125.788H129.144C130.76 255.802 132.437 255.637 134.107 255.747L136.205 256.236C137.533 256.236 140.05 256.236 143.755 256.236L155.71 255.817C160.045 255.817 164.519 255.398 169.063 255.258C173.607 255.118 177.522 255.258 180.738 255.258C184.03 254.984 187.331 255.663 190.246 257.215C190.66 257.485 191.012 257.84 191.279 258.256C191.546 258.672 191.721 259.14 191.794 259.629C191.867 260.118 191.835 260.617 191.701 261.092C191.566 261.568 191.333 262.01 191.015 262.389C191.015 263.437 190.036 265.954 188.988 270.009C187.939 274.064 186.751 278.328 185.562 282.943C184.374 287.557 183.185 291.612 182.206 295.387C181.228 299.162 180.738 301.119 180.738 301.399C180.01 302.801 179.514 304.312 179.27 305.873C179.27 307.342 178.781 308.6 178.571 309.649C178.399 310.632 177.964 311.55 177.313 312.305C176.913 312.656 176.448 312.923 175.943 313.091C175.439 313.259 174.906 313.325 174.376 313.284C170.979 313.017 167.566 313.017 164.169 313.284C158.926 313.284 152.494 313.773 145.014 314.193L119.846 315.801L91.8811 317.618C84.3174 318.748 76.5891 317.553 69.7193 314.193C65.1216 311.68 61.2091 308.08 58.3237 303.706C55.3152 298.447 53.7252 292.497 53.7096 286.438Z" fill="#EF8903"/>
</svg>
