<svg width="91" height="90" viewBox="0 0 91 90" fill="none" xmlns="http://www.w3.org/2000/svg">
<circle cx="45.8326" cy="45" r="45" fill="#EEE1D1"/>
<path d="M71.7419 41.4825C44.6761 23.8903 17.9699 37.6911 8 46.7905C18.2772 62.2595 56.64 56.9429 73.6052 51.5928L84 56.7744L82.3329 46.7903L84 38.07L71.7419 41.4825Z" stroke="#E8522A" stroke-width="4.1318" stroke-linecap="round"/>
<path d="M22.1213 37.9443C23.3961 39.9243 25.3182 45.1733 22.8077 50.3297" stroke="#E8522A" stroke-width="3.30544" stroke-linecap="round"/>
<ellipse cx="1.27484" cy="1.51657" rx="1.27484" ry="1.51657" transform="matrix(-1 0 0 1 20.6503 43.3789)" fill="#E8522A"/>
<path d="M32.2051 47.4026C32.1412 42.5404 28.381 43.9532 25.4703 45.9878C24.4778 46.6816 24.4859 48.1139 25.4833 48.8007C28.451 50.8442 32.2693 52.278 32.2051 47.4026Z" stroke="#E8522A" stroke-width="2.47908" stroke-linecap="round"/>
</svg>
