<svg width="170" height="170" viewBox="0 0 170 170" fill="none" xmlns="http://www.w3.org/2000/svg">
<circle cx="85" cy="85" r="85" fill="#E8522A" fill-opacity="0.21"/>
<path d="M88 101L86.8 112.2V111.6C86.8 110.533 86.8667 109.067 87 107.2C87 105.467 87.3333 103.4 88 101ZM88 114.4C87.0667 114.4 86.6 114 86.6 113.2C86.6 112.8 86.6667 112.467 86.8 112.2V113.2V111.6C86.8 110.533 86.8667 109.2 87 107.6C87 106.133 87.3333 103.933 88 101V85C88 83.5333 88.0667 82.1333 88.2 80.8C88.2 79.4667 88.4 78.0667 88.8 76.6C89.0667 73.9333 89.4 71.4667 89.8 69.2C90.0667 66.8 90.3333 64.6667 90.6 62.8C91 60.6667 91.4 58.6667 91.8 56.8V54.8V54C91.8 53.3333 91.9333 52.9333 92.2 52.8C92.4667 52.6667 92.6 52.4 92.6 52C92.3333 51.2 92.4 50.8 92.8 50.8C93.0667 50.8 93.3333 50.9333 93.6 51.2C93.6 50.9333 93.8 50.8 94.2 50.8C94.6 50.6667 95.0667 50.6 95.6 50.6C96 50.6 96.4 50.6 96.8 50.6C97.2 50.4667 97.4 50.2667 97.4 50C97.8 50 98.0667 50.0667 98.2 50.2C98.2 50.2 98.2 50.5333 98.2 51.2V52C97.8 55.8667 97.3333 59.4667 96.8 62.8C96.5333 65.4667 96.2667 68 96 70.4C95.6 72.8 95.4 74.1333 95.4 74.4V79.4C95.4 79.8 95.6667 79.9333 96.2 79.8C96.6 79.5333 97.2667 79.4 98.2 79.4H106C106.267 79.4 106.733 79.3333 107.4 79.2C108.067 79.0667 108.867 79 109.8 79C110.6 78.8667 111.4 78.7333 112.2 78.6C112.867 78.4667 113.267 78.4 113.4 78.4C113.533 78.4 113.733 78.4667 114 78.6C114.267 78.7333 114.533 78.8667 114.8 79C114.933 79 115.133 79.1333 115.4 79.4C115.933 79.4 116.067 79.7333 115.8 80.4C115.8 80.6667 115.667 81 115.4 81.4C115.4 81.8 115.067 83.4 114.4 86.2C113.6 89.1333 113 92.5333 112.6 96.4C111.533 100.533 110.667 104.133 110 107.2C109.2 110.267 108.8 111.933 108.8 112.2C108.8 113.267 108.6 113.867 108.2 114C107.667 114.267 107.2 114.4 106.8 114.4H99.2C98.9333 114.4 98.2667 114.4 97.2 114.4C96.1333 114.533 95.0667 114.667 94 114.8L89.6 115.2C89.2 115.2 88.9333 115.067 88.8 114.8C88.6667 114.533 88.4 114.4 88 114.4ZM56.1641 101L54.9641 112.2V111.6C54.9641 110.533 55.0307 109.067 55.1641 107.2C55.1641 105.467 55.4974 103.4 56.1641 101ZM56.1641 114.4C55.2307 114.4 54.7641 114 54.7641 113.2C54.7641 112.8 54.8307 112.467 54.9641 112.2V113.2V111.6C54.9641 110.533 55.0307 109.2 55.1641 107.6C55.1641 106.133 55.4974 103.933 56.1641 101L56.1641 85C56.1641 83.5333 56.2307 82.1333 56.3641 80.8C56.3641 79.4667 56.5641 78.0667 56.9641 76.6C57.2307 73.9333 57.5641 71.4667 57.9641 69.2C58.2307 66.8 58.4974 64.6667 58.7641 62.8C59.1641 60.6667 59.5641 58.6667 59.9641 56.8L59.9641 54.8V54C59.9641 53.3333 60.0974 52.9333 60.3641 52.8C60.6307 52.6667 60.7641 52.4 60.7641 52C60.4974 51.2 60.5641 50.8 60.9641 50.8C61.2307 50.8 61.4974 50.9333 61.7641 51.2C61.7641 50.9333 61.9641 50.8 62.3641 50.8C62.7641 50.6667 63.2307 50.6 63.7641 50.6C64.1641 50.6 64.5641 50.6 64.9641 50.6C65.3641 50.4667 65.5641 50.2667 65.5641 50C65.9641 50 66.2307 50.0667 66.3641 50.2C66.3641 50.2 66.3641 50.5333 66.3641 51.2V52C65.9641 55.8667 65.4974 59.4667 64.9641 62.8C64.6974 65.4667 64.4307 68 64.1641 70.4C63.7641 72.8 63.5641 74.1333 63.5641 74.4L63.5641 79.4C63.5641 79.8 63.8307 79.9333 64.3641 79.8C64.7641 79.5333 65.4307 79.4 66.3641 79.4H74.1641C74.4307 79.4 74.8974 79.3333 75.5641 79.2C76.2307 79.0667 77.0307 79 77.9641 79C78.7641 78.8667 79.5641 78.7333 80.3641 78.6C81.0307 78.4667 81.4307 78.4 81.5641 78.4C81.6974 78.4 81.8974 78.4667 82.1641 78.6C82.4307 78.7333 82.6974 78.8667 82.9641 79C83.0974 79 83.2974 79.1333 83.5641 79.4C84.0974 79.4 84.2307 79.7333 83.9641 80.4C83.9641 80.6667 83.8307 81 83.5641 81.4C83.5641 81.8 83.2307 83.4 82.5641 86.2C81.7641 89.1333 81.1641 92.5333 80.7641 96.4C79.6974 100.533 78.8307 104.133 78.1641 107.2C77.3641 110.267 76.9641 111.933 76.9641 112.2C76.9641 113.267 76.7641 113.867 76.3641 114C75.8307 114.267 75.3641 114.4 74.9641 114.4H67.3641C67.0974 114.4 66.4307 114.4 65.3641 114.4C64.2974 114.533 63.2307 114.667 62.1641 114.8L57.7641 115.2C57.3641 115.2 57.0974 115.067 56.9641 114.8C56.8307 114.533 56.5641 114.4 56.1641 114.4Z" fill="#EF8903"/>
</svg>
