<svg width="982" height="507" viewBox="0 0 982 507" fill="none" xmlns="http://www.w3.org/2000/svg">
<path d="M293.748 148.5C293.748 148.5 293.748 147.798 293.748 147.185C293.445 146.703 293.236 146.167 293.134 145.607C293.044 145.203 293.044 144.784 293.134 144.38V143.416C293.055 143.07 293.055 142.71 293.134 142.364C294.274 137.28 295.588 132.109 297.079 126.762C298.569 121.415 299.883 116.682 301.198 112.474C303.495 105.944 305.082 99.1845 305.931 92.314C306.396 87.3871 306.396 82.4275 305.931 77.5006C305.747 74.291 305.188 71.1139 304.266 68.034C303.779 66.8342 303.369 65.6046 303.039 64.3526C303.032 63.8902 302.843 63.4491 302.513 63.1254C302.513 63.1254 302.513 63.1254 301.987 63.1254C299.533 71.8907 297.604 79.9548 296.027 87.2301C294.449 94.5053 292.784 101.079 291.118 106.864C287.524 120.363 284.807 130.969 283.142 138.683C281.476 146.396 280.337 152.269 279.723 156.213C279.21 158.662 278.974 161.162 279.022 163.664C279.022 164.716 279.022 165.329 279.022 165.592C279.022 165.855 279.46 166.556 280.337 167.345C281.232 168.203 282.428 168.675 283.668 168.66C287.7 168.046 291.819 167.696 296.114 167.433H307.948H321.884C323.462 167.433 323.813 168.046 322.936 169.098C322.868 169.267 322.868 169.455 322.936 169.624C322.928 169.84 322.993 170.053 323.12 170.228C323.247 170.403 323.429 170.53 323.637 170.588L324.076 172.166C323.827 172.477 323.691 172.863 323.691 173.262C323.691 173.66 323.827 174.047 324.076 174.357C322.919 174.121 321.726 174.121 320.57 174.357H298.481H294.624H291.732H288.138H282.09H271.747C268.828 174.54 265.9 174.54 262.981 174.357L258.073 173.656C257.064 173.401 256.092 173.018 255.18 172.517C254.169 171.529 253.338 170.372 252.726 169.098C251.463 166.067 250.78 162.827 250.71 159.544C250.823 157.308 251.087 155.083 251.499 152.882C252.025 149.727 252.726 145.958 253.69 141.575C254.654 137.192 255.619 132.81 256.846 127.288C258.073 121.765 259.3 116.945 260.615 111.773C263.683 99.5892 267.013 86.0906 270.783 71.4525C270.694 70.6368 270.694 69.8139 270.783 68.9982L271.571 65.4044C271.571 64.2649 272.185 63.1254 272.536 62.0736C272.886 61.0218 272.536 60.3205 273.149 59.7946C273.629 59.2443 273.961 58.5806 274.113 57.8662C274.458 56.8962 274.722 55.8994 274.902 54.886C274.902 53.8342 275.428 52.87 275.691 52.0811C275.954 51.2922 275.691 50.7663 276.392 50.7663C277.094 50.7663 276.392 49.9775 276.392 49.4515C276.392 48.9256 277.97 48.575 280.074 48.575C283.546 48.8339 287.032 48.8339 290.505 48.575L297.78 48.0491C299.708 48.0491 301.374 48.0491 302.776 47.4355C304.088 47.313 305.409 47.313 306.72 47.4355C311.653 47.6614 316.422 49.2713 320.482 52.0811C323.868 54.5685 326.629 57.8094 328.546 61.5477C330.495 65.3061 331.799 69.3655 332.403 73.5562C332.995 77.5306 333.259 81.547 333.192 85.5647C333.168 88.8778 332.933 92.186 332.49 95.4695C332.265 97.2742 331.914 99.0609 331.439 100.816C331.439 101.605 331 103.358 330.387 105.988C329.773 108.617 329.072 111.51 328.195 114.753C327.319 117.996 326.442 121.678 325.303 125.447C324.163 129.216 323.287 132.634 322.323 135.878C321.359 139.121 320.657 141.926 319.868 144.117C319.51 145.468 319.041 146.787 318.466 148.061C316.979 147.935 315.483 147.935 313.996 148.061H306.983H300.146H296.553C295.749 148.404 294.885 148.583 294.011 148.587C294.186 149.026 293.748 148.85 293.748 148.5Z" fill="#EF8903"/>
<path d="M406.646 48.2242C409.471 49.7151 411.767 52.0415 413.22 54.8859C414.8 57.9266 415.838 61.2188 416.288 64.6154C416.692 68.5788 416.692 72.5729 416.288 76.5362C416.288 80.802 415.938 85.1847 415.236 89.6842C414.532 97.4797 413.42 105.233 411.906 112.912C410.284 121.063 407.907 129.044 404.806 136.754C401.832 144.18 397.914 151.191 393.148 157.616C388.726 163.69 382.968 168.668 376.318 172.166C374.616 172.971 372.82 173.56 370.971 173.919C368.888 174.34 366.78 174.633 364.661 174.796H358.875H355.369C354.884 174.944 354.365 174.944 353.879 174.796H352.652C351.162 174.845 349.683 174.513 348.357 173.831C347.164 173.214 346.094 172.382 345.201 171.377C341.074 168.131 338.044 163.694 336.524 158.667C334.804 152.628 334.007 146.363 334.157 140.085C334.291 132.942 335.172 125.832 336.787 118.873C338.384 111.699 340.463 104.642 343.01 97.7483C344.595 92.1919 346.617 86.7697 349.058 81.5325C351.423 76.5663 354.117 71.7639 357.122 67.1573C359.709 63.1674 362.642 59.413 365.888 55.9377C368.384 53.2534 371.356 51.0543 374.653 49.4514H375.88C376.96 49.5355 378.044 49.5355 379.123 49.4514C380.613 49.4514 381.928 48.8378 383.331 48.3995H387.363C388.468 48.5446 389.588 48.5446 390.693 48.3995H394.112C395.041 48.5501 395.988 48.5501 396.917 48.3995C397.614 48.2866 398.324 48.2866 399.021 48.3995C400.668 48.3591 402.315 48.5061 403.929 48.8378L406.646 48.2242ZM362.82 162.174C365.53 159.452 368.021 156.521 370.27 153.408C372.286 150.34 374.478 146.659 376.844 142.189C379.438 137.128 381.58 131.849 383.243 126.411C385.974 118.325 388.285 110.104 390.168 101.78C390.869 98.4495 391.57 94.8558 392.096 91.1743C392.622 87.4929 393.235 83.7238 393.498 80.13C393.715 76.6272 393.715 73.1144 393.498 69.6116C393.359 66.4325 392.829 63.2826 391.921 60.2327C391.539 60.3364 391.181 60.5152 390.869 60.7587C390.649 60.9917 390.379 61.1716 390.08 61.2846C389.879 61.2326 389.668 61.2326 389.466 61.2846C386.833 63.603 384.48 66.2212 382.454 69.0857C379.202 73.6066 376.273 78.3518 373.689 83.2856C370.371 89.2848 367.443 95.4919 364.923 101.868C362.133 108.588 360.047 115.579 358.7 122.73C357.324 129.563 356.852 136.547 357.298 143.503C357.612 150.163 359.505 156.652 362.82 162.436V162.174Z" fill="#EF8903"/>
<path d="M416.549 171.465C416.549 170.939 416.549 169.01 416.987 165.592C417.426 162.174 417.776 157.791 418.39 152.444L420.494 134.913C421.283 128.252 422.159 121.415 423.123 114.315C424.087 107.215 425.49 99.6767 426.805 92.4892C428.12 85.3016 429.259 78.9029 430.311 73.2054C431.363 67.508 432.327 62.8624 433.028 59.2686C433.285 57.2862 433.785 55.3431 434.518 53.4835C434.355 53.2695 434.266 53.0077 434.266 52.7384C434.266 52.4691 434.355 52.2073 434.518 51.9934C434.978 51.649 435.524 51.4368 436.096 51.3798H438.463C439.37 51.2844 440.257 51.0478 441.092 50.6786C441.092 50.6786 442.232 50.065 443.634 49.9773L448.367 49.4514C449.671 49.1217 450.935 48.6514 452.137 48.049C452.719 47.7491 453.365 47.5927 454.021 47.5927C454.677 47.5927 455.323 47.7491 455.906 48.049C456.431 48.049 456.87 50.065 457.308 52.9575C457.746 55.8501 458.097 59.0933 458.36 62.5994C458.623 66.1055 458.973 69.6117 459.236 72.9425C459.499 76.2733 459.236 78.4647 459.762 79.5165C459.652 80.7119 459.652 81.9149 459.762 83.1103C459.762 84.951 460.376 87.1423 460.727 89.7719C461.077 92.4015 461.515 95.2064 462.041 98.5372C462.567 101.868 463.005 104.761 463.444 107.916C464.671 115.454 465.986 123.694 467.476 132.722C467.476 132.722 467.476 131.057 467.914 128.427C468.352 125.797 468.703 122.467 469.404 118.259C470.018 110.984 470.894 103.446 472.121 95.6447C473.349 87.8436 474.576 80.656 475.978 74.082C477.381 67.508 479.046 59.0056 480.799 51.6427C480.799 50.6786 481.588 50.3279 482.464 50.5032C483.412 50.7561 484.409 50.7561 485.357 50.5032H487.11C488.092 50.2924 489.108 50.2924 490.09 50.5032C491.317 50.5737 492.546 50.5737 493.772 50.5032L497.979 49.7144C498.55 49.7007 499.108 49.8867 499.557 50.2403C499.929 50.4345 500.257 50.703 500.521 51.0292C500.629 51.4311 500.629 51.8544 500.521 52.2563C500.141 54.517 499.584 56.7444 498.856 58.918C497.905 61.7866 497.143 64.7147 496.577 67.6833C495.525 73.2054 494.385 79.6041 493.158 86.7041C491.931 93.804 490.792 101.255 489.652 108.793C488.513 116.331 487.373 123.869 486.234 131.232C485.094 138.595 485.532 143.942 484.656 149.902C483.779 155.862 483.253 161.122 482.815 165.241C482.377 169.361 482.026 171.903 482.026 173.043C481.954 173.523 481.74 173.971 481.412 174.33C481.084 174.689 480.657 174.943 480.186 175.059C479.397 175.338 478.568 175.486 477.731 175.497H470.193C468.792 175.589 467.387 175.589 465.986 175.497C464.671 175.497 463.882 174.971 463.794 174.533C463.707 174.094 463.093 173.656 461.954 173.744H459.236C458.755 173.918 458.228 173.918 457.746 173.744C457.23 173.2 456.76 172.614 456.344 171.991C456.344 171.406 455.993 169.916 455.292 167.52C455.292 165.241 454.24 162.349 453.627 158.755C453.013 155.161 452.399 151.567 451.786 147.36L449.682 134.826L444.423 101.342C444.423 102.219 443.809 104.059 443.196 107.04C442.582 110.02 441.881 113.526 441.18 117.558C440.479 121.59 439.777 126.323 438.989 130.794C438.2 135.264 437.586 140.26 437.06 144.731C436.534 149.201 436.359 151.305 436.184 154.372C436.008 157.44 436.184 160.07 435.658 162.436C435.132 164.803 435.658 166.644 435.658 168.222C435.658 169.799 435.658 170.588 435.658 170.851C435.605 171.2 435.605 171.554 435.658 171.903C435.658 172.341 435.658 172.78 435.219 173.13C435.02 173.554 434.679 173.895 434.255 174.094C433.997 174.225 433.712 174.293 433.422 174.293C433.133 174.293 432.848 174.225 432.59 174.094C431.811 174.42 430.979 174.598 430.135 174.62H426.629H421.896C420.922 174.893 419.89 174.893 418.916 174.62C418.32 174.437 417.812 174.041 417.488 173.508C417.165 172.975 417.049 172.341 417.163 171.728L416.549 171.465Z" fill="#EF8903"/>
<path d="M522.959 50.5909H525.501C526.9 50.4322 528.279 50.1387 529.621 49.7144C531.653 48.857 533.817 48.3531 536.02 48.2243C539.087 48.2243 542.769 47.6107 546.976 47.4354H560.475C565.296 47.4354 569.854 47.4354 574.236 47.4354C578.619 47.4354 583.002 47.4354 586.157 47.9613C588.802 48.0991 591.436 48.3918 594.046 48.8379C594.114 49.2735 594.114 49.717 594.046 50.1527C594.113 50.9108 594.113 51.6735 594.046 52.4317C594.046 53.3082 594.046 54.5353 593.433 56.1131L592.644 59.8822C592.644 60.7587 592.644 61.4599 592.118 61.8982C592.193 62.2743 592.193 62.6616 592.118 63.0377C591.948 63.4801 591.711 63.8939 591.417 64.2648C591.417 64.2648 591.417 64.2648 591.417 64.8784C591.463 65.3447 591.463 65.8145 591.417 66.2809C591.381 66.9232 591.381 67.5669 591.417 68.2092V68.9105C591.458 69.1718 591.458 69.438 591.417 69.6993C591.417 69.6993 591.417 69.6993 591.417 70.4006H590.365C590.344 70.6046 590.344 70.8101 590.365 71.0141L589.751 71.9783C588.854 72.3072 587.901 72.4561 586.946 72.4166H578.619L560.563 71.0141H550.482H545.749C545.03 70.8359 544.277 70.8359 543.558 71.0141C543.558 71.0141 543.558 72.5919 543.032 74.9585C542.506 77.3252 542.243 79.9548 541.805 82.7597L539.964 93.9793H548.291C549.777 94.1457 551.276 94.1457 552.761 93.9793H565.383C566.81 93.9557 568.231 94.1629 569.591 94.5929C572.045 95.2064 573.448 95.7324 573.798 96.3459C574.095 96.7255 574.277 97.1815 574.324 97.6607C574.173 98.1758 574.173 98.7234 574.324 99.2385C574.324 100.027 574.324 100.904 574.324 101.956C574.237 102.918 574.237 103.886 574.324 104.848V106.689C574.294 107.294 574.079 107.874 573.711 108.354L572.483 109.757C572.483 109.757 571.958 109.757 571.87 110.721C571.824 111.363 571.824 112.007 571.87 112.649C571.784 113.794 571.518 114.919 571.081 115.98C570.779 116.69 570.281 117.299 569.644 117.734C569.007 118.169 568.258 118.412 567.487 118.435C566.227 118.776 564.934 118.982 563.63 119.048H557.232H542.769C540.959 118.94 539.144 118.94 537.334 119.048C535.844 119.048 535.055 119.048 534.968 119.749C534.405 121.505 533.937 123.29 533.565 125.096C532.952 128.076 532.163 131.232 531.374 134.563L528.218 147.798H529.358H534.091C535.932 147.798 537.773 147.798 539.789 147.798H544.96C546.902 148.123 548.865 148.299 550.833 148.324L558.634 148.85H565.646H569.328C569.766 148.85 569.328 148.85 569.328 150.165C568.789 150.88 568.455 151.729 568.364 152.619C568.364 153.233 568.364 154.46 568.364 156.213C568.183 157.775 567.8 159.308 567.224 160.771C566.924 161.599 566.689 162.449 566.523 163.313C566.34 164.231 566.106 165.138 565.822 166.03C565.275 166.898 564.972 167.897 564.945 168.923C564.969 169.815 564.643 170.681 564.037 171.336C563.431 171.991 562.593 172.384 561.702 172.429C559.579 172.718 557.427 172.718 555.303 172.429H545.223H535.143H524.362C519.694 172.054 515.005 172.054 510.337 172.429H503.763C503.274 172.551 502.762 172.551 502.273 172.429L501.309 171.728C500.997 171.363 500.84 170.892 500.871 170.413C500.871 170.413 500.871 169.712 500.871 169.361C500.442 169.032 499.921 168.848 499.381 168.835C499.381 168.835 498.942 168.835 498.679 167.52C498.38 166.52 498.38 165.453 498.679 164.453C499.009 164.024 499.193 163.502 499.205 162.962V161.56C499.15 161.436 499.121 161.302 499.121 161.166C499.121 161.03 499.15 160.895 499.205 160.771C499.205 160.771 499.731 160.07 499.731 159.193C500.783 155.074 501.923 150.428 503.062 144.643C504.202 138.858 505.341 133.073 506.568 127.112C507.532 122.993 508.497 118.347 509.548 114.403C510.6 110.458 511.477 105.637 512.353 101.255L514.457 88.7201C515.062 84.7056 515.881 80.7263 516.911 76.7993C517.35 72.6796 517.875 68.9105 518.314 65.492C518.752 62.0735 519.278 59.0933 519.804 56.7267C520.079 54.8234 520.61 52.9659 521.382 51.2045C521.557 51.0292 522.258 50.5033 522.959 50.5909Z" fill="#EF8903"/>
<path d="M632.965 130.794C632.965 130.794 632.439 131.67 631.737 132.81L629.546 136.667C628.669 137.981 627.793 139.384 627.004 140.786L624.988 143.942C624.375 144.906 623.41 146.484 622.096 148.763C620.781 151.042 619.466 153.321 618.151 155.687C616.836 158.054 615.522 160.421 614.382 162.524C613.572 163.832 612.952 165.249 612.541 166.732C612.023 168.082 611.315 169.351 610.438 170.501C609.386 171.816 608.685 172.517 608.159 172.517C607.467 172.349 606.746 172.349 606.055 172.517C605.183 172.394 604.298 172.394 603.425 172.517C602.441 172.551 601.466 172.728 600.533 173.043C599.63 173.149 598.718 173.149 597.816 173.043C597.642 172.793 597.403 172.595 597.125 172.472C596.846 172.348 596.54 172.303 596.238 172.341C594.623 172.673 593.039 173.142 591.505 173.744C590.108 173.924 588.694 173.924 587.297 173.744C586.62 173.737 585.956 173.556 585.369 173.218C585.12 173.071 584.93 172.841 584.834 172.569C584.738 172.296 584.741 171.998 584.843 171.728C584.843 171.728 584.843 171.114 584.843 170.15C585.062 169.667 585.358 169.223 585.719 168.835C586.297 167.361 586.971 165.927 587.736 164.54C588.472 162.95 589.291 161.399 590.19 159.895C591.154 158.142 592.381 156.301 593.696 154.197C595.011 152.094 597.202 149.113 599.043 146.133L604.74 137.368L610.438 128.602C612.278 125.535 614.119 122.73 615.785 119.837L618.677 114.929C619.641 113.351 620.43 111.948 621.219 110.809L623.586 106.952L622.183 103.358C621.307 101.079 620.167 98.2744 618.765 94.593C617.362 90.9116 615.872 87.4931 614.294 83.461C612.717 79.429 611.226 75.4846 609.824 71.6278C608.36 66.4232 606.082 61.4828 603.075 56.9898C602.461 56.2009 602.286 55.7626 602.461 55.4996C602.637 55.2367 602.461 54.7108 602.023 53.9219C602.045 53.2996 602.294 52.707 602.724 52.2565L603.425 51.7305C603.939 50.75 604.775 49.9763 605.792 49.5392L607.808 48.6627C607.905 48.6217 608.009 48.6006 608.115 48.6006C608.22 48.6006 608.325 48.6217 608.422 48.6627C608.422 48.6627 609.035 48.6627 609.824 48.6627L614.733 46.822L617.362 46.2084C617.825 46.1115 618.302 46.1115 618.765 46.2084H619.904H623.235C623.936 46.2084 624.9 47.2602 626.04 48.9256C627.255 50.9742 628.31 53.1134 629.195 55.3243C630.598 58.8305 632.176 62.4242 633.841 66.281C635.506 70.1377 637.873 75.9229 640.152 81.5327C641.295 79.2888 642.583 77.1221 644.009 75.0463C645.762 72.3291 647.778 69.5242 649.882 66.281L656.193 57.5157L661.189 50.5034C661.73 49.8404 662.383 49.2769 663.117 48.838C663.933 48.3153 664.782 47.8468 665.659 47.4356C666.623 46.9096 667.763 46.4714 668.99 45.9454H671.181H674.425H678.544H680.736H682.927H685.381C686.345 45.9454 686.871 46.822 686.784 47.4356C686.728 47.955 686.514 48.4447 686.17 48.838V49.9775C686.164 50.4399 685.975 50.881 685.644 51.2047L682.664 54.8861C680.999 56.9897 679.158 59.707 677.054 62.9502C674.951 66.1934 671.357 70.6637 668.289 75.2216L659.524 88.1067C656.806 92.0511 654.527 95.4695 652.774 98.3621C651.021 101.255 650.057 102.657 650.057 102.745C649.805 102.948 649.597 103.2 649.446 103.487C649.295 103.773 649.205 104.087 649.18 104.41C649.134 104.49 649.11 104.581 649.11 104.673C649.11 104.765 649.134 104.856 649.18 104.936C649.18 104.936 649.706 105.9 650.495 107.566C651.284 109.231 652.248 111.335 653.3 113.964C654.352 116.594 655.667 119.574 657.069 122.73L661.803 133.16C662.381 134.875 663.084 136.545 663.906 138.157C664.695 139.647 665.484 141.137 666.361 142.539C668.007 145.077 669.499 147.712 670.831 150.428C671.918 152.563 672.884 154.758 673.723 157.002C674.6 159.193 675.301 161.297 675.915 163.225C676.176 163.656 676.354 164.132 676.441 164.628C676.51 165.122 676.51 165.624 676.441 166.118V166.819C676.521 167.046 676.521 167.294 676.441 167.521C676.441 168.046 676.441 168.222 675.564 168.222H672.672L670.392 169.361C669.622 169.711 668.785 169.891 667.938 169.887C666.962 170.152 665.934 170.152 664.958 169.887H662.504C661.198 169.988 659.905 170.223 658.647 170.588C657.397 170.868 656.209 171.373 655.141 172.078C654.264 172.078 653.738 172.604 653.475 172.078C653.213 171.553 652.862 171.553 652.248 170.676C651.828 170.44 651.444 170.145 651.109 169.799C650.466 168.758 650.048 167.594 649.882 166.381C649.882 165.504 649.268 164.453 648.742 163.138C648.216 161.823 647.778 160.421 647.164 159.018C646.551 157.616 645.937 156.301 645.236 154.986C644.704 153.861 644.088 152.777 643.395 151.743C642.841 149.991 642.075 148.314 641.116 146.747C640.192 145.309 639.484 143.744 639.013 142.101C638.487 141.137 637.961 139.91 637.172 138.507C636.383 137.105 635.857 135.615 635.244 134.125L632.965 130.794Z" fill="#EF8903"/>
<path d="M768.304 54.6231C769.297 55.0321 769.648 55.3827 769.355 55.6749C769.124 55.7247 768.885 55.7247 768.654 55.6749V56.2008C769.065 56.4473 769.388 56.8172 769.577 57.2578C769.766 57.6984 769.811 58.1874 769.706 58.6551C769.706 59.6193 769.092 60.3205 768.917 60.9341C768.409 62.0307 768.169 63.2325 768.216 64.4402C768.216 64.9662 767.953 65.8427 767.427 67.0698C767.442 67.3996 767.346 67.7249 767.156 67.9946C766.965 68.2643 766.691 68.4632 766.375 68.5599H765.411C765.411 68.5599 765.411 70.9266 766.2 74.5204C766.989 78.1142 766.989 82.6721 767.427 88.1066C767.865 93.5411 768.391 99.5015 768.917 105.637C769.443 111.773 769.794 118.698 770.144 125.096C770.495 131.495 770.144 136.228 770.583 141.575C771.021 146.922 770.583 151.568 770.583 155.6C770.583 159.632 770.583 162.875 770.583 165.417C770.541 166.77 770.394 168.118 770.144 169.449C770.184 170.883 769.946 172.312 769.443 173.656C769.005 173.656 768.742 174.27 768.479 174.27H766.2C765.06 174.27 764.359 174.27 764.009 174.27H762.781C761.545 174.127 760.316 173.923 759.1 173.656C757.816 173.568 756.527 173.568 755.243 173.656H751.299L747.004 174.182C745.864 174.182 745.251 174.182 745.075 174.182C744.732 173.689 744.52 173.115 744.462 172.517C743.994 172.011 743.636 171.414 743.41 170.764C743.499 170.389 743.499 169.999 743.41 169.624V168.66C743.378 168.018 743.378 167.374 743.41 166.732C743.332 166.415 743.332 166.084 743.41 165.767V161.998H737.099H730.963H724.477C723.05 161.841 721.609 161.841 720.182 161.998H717.202H714.66C714.384 161.961 714.103 162.019 713.864 162.162C713.625 162.306 713.442 162.526 713.345 162.787C713.345 163.313 712.731 164.628 712.118 166.644L711.241 169.536L710.54 171.728C710.294 172.379 710.117 173.055 710.014 173.744C709.724 173.964 709.37 174.084 709.006 174.084C708.642 174.084 708.288 173.964 707.998 173.744C706.645 173.22 705.231 172.867 703.791 172.692C702.127 172.805 700.458 172.805 698.795 172.692C696.942 172.375 695.064 172.229 693.185 172.254C692.164 172.164 691.138 172.164 690.117 172.254C687.578 172.261 687.578 172.261 685.035 172.261C684.419 172.254 684.156 172.254 684.244 172.254C684.329 172.107 684.373 171.941 684.373 171.772C684.373 171.602 684.329 171.436 684.244 171.29C683.836 170.768 683.647 170.108 683.718 169.449C683.676 169.1 683.676 168.746 683.718 168.397C683.718 168.397 684.244 166.381 685.296 162.7C686.348 159.018 687.663 153.934 689.416 148.5C691.169 143.065 693.097 136.141 695.201 128.953C697.304 121.765 699.496 114.315 701.687 106.864C703.878 99.4139 705.456 93.7164 707.209 87.4054C708.962 81.0943 710.452 75.3969 711.767 70.313C713.082 65.2291 714.134 61.0218 714.923 57.6909C715.486 55.7093 715.896 53.6873 716.15 51.6429C716.588 49.9775 717.114 49.1009 717.552 49.1009H724.652C724.652 49.1009 724.652 49.1009 724.652 48.575C726.944 48.218 729.258 48.013 731.577 47.9614H739.115C740.799 47.6984 742.514 47.6984 744.199 47.9614L750.335 49.0133C750.887 49.0948 751.448 49.0948 752 49.0133C753.39 49.1814 754.766 49.445 756.12 49.8022L759.889 50.591L763.22 51.0293H766.288C766.901 51.0293 767.164 51.0293 767.164 51.7305C767.216 51.9317 767.216 52.1428 767.164 52.3441V53.2206L768.216 53.7465L768.304 54.6231ZM782.416 37.7936C782.836 38.7692 783.102 39.8042 783.205 40.8615C783.458 42.3114 783.458 43.7943 783.205 45.2442C782.795 47.0726 782.084 48.8203 781.101 50.4157C779.871 52.4807 778.231 54.2708 776.28 55.6749C775.401 56.5013 774.464 57.2629 773.475 57.9539C770.172 60.3031 766.498 62.0809 762.606 63.2131C760.174 63.8522 757.67 64.1762 755.156 64.1773C753.24 64.1672 751.331 63.9616 749.458 63.5637C747.157 63.0348 744.943 62.1788 742.884 61.0218C740.36 59.6085 738.031 57.8698 735.96 55.8502C733.374 53.225 731.135 50.2793 729.298 47.0849H728.772C727.466 44.9976 725.938 43.0579 724.214 41.2998C722.693 39.7749 720.985 38.4495 719.13 37.3554C717.309 36.1539 715.176 35.5138 712.994 35.5147C712.357 35.3958 711.703 35.3958 711.066 35.5147L709.225 36.2159C706.896 37.093 704.663 38.2093 702.564 39.5467C701.199 40.5283 699.936 41.6441 698.795 42.8775C698.048 43.6529 697.427 44.5401 696.954 45.5071L696.516 46.7343C695.948 48.1262 695.65 49.6136 695.639 51.1169C695.658 52.461 695.895 53.793 696.34 55.0613C696.968 56.5432 697.964 57.8404 699.233 58.8304L701.336 60.4958L703.44 62.0736C704.375 63.5929 704.55 64.6448 703.966 65.2291C703.625 65.906 703.111 66.4806 702.476 66.8945C702.173 67.1596 701.783 67.3057 701.38 67.3057C700.977 67.3057 700.588 67.1596 700.285 66.8945L698.707 66.2809C697.537 65.7133 696.422 65.0385 695.376 64.2649C693.996 63.303 692.731 62.1854 691.607 60.9341C690.437 59.6326 689.595 58.0697 689.153 56.3761C688.876 54.9293 688.7 53.4648 688.627 51.9935C688.612 50.245 688.849 48.5035 689.328 46.8219C689.863 44.8406 690.69 42.9499 691.782 41.2121C693.252 38.9921 695.022 36.9862 697.042 35.2517C699.14 33.2207 701.61 31.6136 704.317 30.5184C707.118 29.4623 710.089 28.9276 713.082 28.9407C715.823 28.9423 718.535 29.5028 721.051 30.5879C723.568 31.673 725.837 33.2599 727.72 35.2517C729.423 36.8531 731.032 38.5505 732.541 40.3356L735.697 44.28C736.714 45.1655 737.626 46.1656 738.414 47.2602C739.118 48.3152 739.975 49.2604 740.956 50.0651C743.343 51.7553 745.899 53.1946 748.582 54.3601C750.859 55.3145 753.3 55.8205 755.769 55.8502C760.924 55.439 765.866 53.6197 770.057 50.591C771.16 49.649 772.159 48.5911 773.037 47.4355C773.665 46.5586 774.25 45.6518 774.79 44.7182C775.388 43.81 775.888 42.8402 776.28 41.8257C776.494 41.2006 776.494 40.5223 776.28 39.8973C774.28 38.4402 771.821 37.7553 769.355 37.9689C767.416 37.9776 765.48 38.1536 763.57 38.4949C761.647 38.8205 759.745 39.2596 757.873 39.8097L753.315 41.4751L750.948 42.6146C750.222 42.7226 749.483 42.7226 748.757 42.6146H746.916C746.633 42.621 746.354 42.5512 746.107 42.4124C745.86 42.2736 745.655 42.0709 745.514 41.8257C745.207 41.4306 744.97 40.986 744.813 40.5109C744.74 39.9288 744.74 39.3399 744.813 38.7578C744.755 38.0784 744.879 37.3959 745.172 36.78C745.465 36.1641 745.915 35.6367 746.478 35.2517C747.627 34.5209 748.828 33.8764 750.072 33.3233L752.789 32.4468L757.785 30.9567L763.483 29.7295C765.158 29.4027 766.86 29.2267 768.567 29.2036C770.676 29.1297 772.783 29.4264 774.79 30.0802C776.232 30.5528 777.571 31.2966 778.734 32.2715C779.703 33.0036 780.509 33.9288 781.101 34.9887C781.638 35.8742 782.079 36.8145 782.416 37.7936ZM739.729 137.981C739.729 129.625 739.466 122.35 738.94 116.156C738.94 110.02 738.326 104.498 737.888 99.7645C737.45 95.0312 736.924 90.9992 736.31 87.1424C735.697 83.2857 735.083 80.1302 734.382 76.7993C734.382 76.7993 734.382 76.7993 734.382 77.5882C734.462 77.9933 734.462 78.4103 734.382 78.8154C733.681 81.9709 732.804 85.1264 731.927 88.4572C731.051 91.7881 730.087 94.4177 729.123 98.0115C728.158 101.605 727.019 105.287 725.879 108.88C724.74 112.474 723.951 116.156 722.899 119.574C721.847 122.993 720.971 125.973 720.094 128.339C719.218 130.706 718.166 134.388 717.202 137.105H717.991C720.445 137.105 722.987 137.105 725.529 137.631C727.914 137.921 730.314 138.068 732.716 138.069H739.816C739.729 139.121 739.729 138.858 739.729 137.981Z" fill="#EF8903"/>
<path d="M846.926 48.2244C849.773 49.7147 852.098 52.0388 853.588 54.886C855.167 57.9267 856.205 61.219 856.656 64.6155C857.06 68.5789 857.06 72.573 856.656 76.5364C856.656 80.8022 856.305 85.1848 855.604 89.6844C854.911 97.4863 853.77 105.242 852.186 112.912C850.634 121.07 848.286 129.056 845.173 136.754C842.167 144.165 838.251 151.172 833.515 157.616C829.093 163.69 823.335 168.668 816.686 172.166C814.979 172.959 813.184 173.547 811.339 173.919C809.255 174.34 807.148 174.633 805.028 174.796H799.243H795.649C795.194 174.949 794.702 174.949 794.247 174.796H792.932C791.471 174.83 790.025 174.499 788.725 173.832C787.516 173.239 786.441 172.403 785.569 171.377C781.318 168.006 778.249 163.371 776.804 158.142C775.042 152.111 774.243 145.839 774.437 139.559C774.571 132.416 775.452 125.307 777.067 118.347C778.623 111.163 780.703 104.103 783.29 97.2226C784.875 91.6661 786.897 86.2439 789.338 81.0067C791.669 76.023 794.364 71.2182 797.402 66.6315C799.989 62.6416 802.922 58.8873 806.168 55.4119C808.662 52.7246 811.634 50.525 814.933 48.9256H816.248C817.327 49.0044 818.411 49.0044 819.491 48.9256C820.893 48.9256 822.296 48.312 823.611 47.8738H827.73C828.836 48.0189 829.956 48.0189 831.061 47.8738H834.48C835.408 48.0243 836.356 48.0243 837.285 47.8738C837.981 47.7608 838.691 47.7608 839.388 47.8738C841.036 47.8378 842.682 47.9847 844.297 48.312L846.926 48.2244ZM803.1 162.174C805.81 159.452 808.301 156.521 810.55 153.408C812.566 150.34 814.758 146.659 817.124 142.189C819.718 137.128 821.859 131.849 823.523 126.411C826.254 118.326 828.565 110.104 830.448 101.78C831.149 98.4497 831.762 94.8559 832.376 91.1745C832.99 87.493 833.428 83.7239 833.778 80.1302C833.995 76.6274 833.995 73.1146 833.778 69.6118C833.639 66.4326 833.109 63.2827 832.201 60.2329C831.819 60.3366 831.461 60.5154 831.149 60.7588C830.929 60.9918 830.659 61.1717 830.36 61.2847H829.659C827.083 63.6345 824.762 66.2493 822.734 69.0858C819.452 73.5867 816.521 78.3341 813.969 83.2857C810.65 89.285 807.723 95.492 805.203 101.868C802.426 108.6 800.312 115.587 798.892 122.73C797.501 129.561 797.059 136.551 797.578 143.503C797.781 150.169 799.65 156.678 803.012 162.437L803.1 162.174Z" fill="#EF8903"/>
<path d="M67.3397 359.13C66.7766 347.213 67.8084 335.275 70.4075 323.631C72.8558 312.205 76.257 301.005 80.5753 290.147C84.4873 280.184 89.1158 270.517 94.4245 261.222C99.5084 252.456 104.242 244.743 108.624 238.257C113.007 231.77 116.688 226.599 119.669 222.83C122.649 219.061 124.139 216.957 124.402 216.782C125.177 215.729 126.027 214.733 126.944 213.801L130.362 209.945L133.518 206.088L135.534 203.371C135.341 202.656 135.391 201.898 135.677 201.216C135.963 200.533 136.467 199.965 137.112 199.601C138.746 198.589 140.562 197.904 142.459 197.585C145.075 196.989 147.751 196.695 150.435 196.709C150.375 196.539 150.375 196.353 150.435 196.183C151.013 195.747 151.728 195.53 152.451 195.569H161.216C163.43 195.047 165.692 194.753 167.966 194.693C169.658 194.584 171.357 194.584 173.049 194.693C174.264 194.834 175.465 195.068 176.643 195.394C177.608 195.394 178.309 195.394 178.659 195.394C179.01 195.394 181.377 194.518 185.672 194.518C189.967 194.518 195.576 194.518 202.413 195.394H210.477H215.912L220.207 195.92C226.067 197.374 231.111 201.094 234.232 206.263C237.231 211.636 238.913 217.644 239.14 223.794C239.461 230.699 238.931 237.617 237.562 244.392C236.072 251.668 234.319 258.68 232.215 265.517C230.112 272.354 228.096 278.402 226.255 283.924C224.774 288.061 223.515 292.274 222.486 296.546C220.448 296.307 218.388 296.307 216.35 296.546H213.37C209.845 296.169 206.289 296.169 202.764 296.546C197.946 296.793 193.146 297.319 188.389 298.124C186.66 298.534 184.859 298.534 183.13 298.124C181.848 297.69 180.637 297.07 179.536 296.283C178.519 295.443 177.734 294.357 177.257 293.128C177.257 291.988 178.747 288.57 180.5 282.96C182.253 277.35 184.181 270.688 186.022 263.063C187.822 255.165 189.197 247.177 190.142 239.133C191.206 231.662 191.206 224.077 190.142 216.606C189.855 214.688 189.2 212.842 188.214 211.172C187.541 210.012 186.611 209.023 185.496 208.279C184.51 207.54 183.311 207.14 182.078 207.14C171.527 218.913 161.636 231.262 152.451 244.129C144.904 254.291 138.052 264.951 131.94 276.035C127.158 284.825 123.056 293.968 119.669 303.383C117.02 310.797 114.997 318.421 113.621 326.173C110.819 340.029 111.819 354.386 116.513 367.72C117.558 370.955 119.259 373.939 121.509 376.486C123.448 378.546 125.81 380.161 128.434 381.219C131.245 382.305 134.196 382.984 137.199 383.235C140.355 383.235 143.686 383.673 147.367 383.673C151.049 383.673 154.818 383.673 158.324 383.235C161.83 382.797 165.073 382.622 167.966 382.183C170.858 381.745 174.627 381.307 177.695 380.781C178.484 377.888 179.624 373.769 181.289 368.422C182.954 363.075 184.444 357.64 186.022 352.118C187.6 346.596 189.879 339.146 191.983 332.046C189.178 332.046 184.795 332.046 179.01 332.046L161.479 332.922C155.519 332.922 149.997 333.36 145.176 333.36C140.355 333.36 137.462 332.834 136.41 331.87C135.748 331.388 135.208 330.758 134.833 330.03C134.463 329.224 133.925 328.507 133.255 327.926C132.41 327.879 131.592 327.607 130.888 327.137C130.012 327.137 130.362 326.436 131.852 326.436C132.815 326.152 133.71 325.675 134.482 325.033L135.271 324.157C135.23 324.254 135.209 324.358 135.209 324.464C135.209 324.569 135.23 324.673 135.271 324.77C135.271 324.77 135.797 324.77 136.41 324.157C137.628 323.91 138.788 323.434 139.829 322.754C141.202 321.889 142.768 321.377 144.387 321.264H152.1H157.71H161.918C163.944 320.719 166.047 320.512 168.141 320.651L170.77 321.264C172.436 321.264 175.591 321.264 180.237 321.264L195.226 320.738C200.66 320.738 206.27 320.212 211.968 320.037C217.665 319.862 222.574 320.037 226.606 320.037C230.733 319.694 234.871 320.546 238.527 322.491C239.046 322.83 239.487 323.275 239.821 323.796C240.156 324.318 240.376 324.905 240.467 325.518C240.558 326.131 240.518 326.756 240.35 327.352C240.182 327.949 239.889 328.503 239.491 328.978C239.491 330.293 238.264 333.448 236.949 338.532C235.634 343.616 234.144 348.963 232.654 354.748C231.164 360.533 229.674 365.617 228.446 370.35C227.219 375.083 226.606 377.538 226.606 377.888C225.693 379.646 225.071 381.541 224.765 383.498C224.765 385.339 224.151 386.917 223.888 388.231C223.673 389.464 223.128 390.615 222.311 391.562C221.81 392.002 221.226 392.337 220.594 392.548C219.962 392.759 219.294 392.841 218.629 392.789C214.37 392.454 210.091 392.454 205.832 392.789C199.258 392.789 191.194 393.403 181.815 393.929L150.26 395.945L115.198 398.224C105.715 399.64 96.0255 398.142 87.4123 393.929C81.6478 390.778 76.7424 386.264 73.1247 380.781C69.3527 374.187 67.3592 366.727 67.3397 359.13Z" fill="#EF8903"/>
<path d="M386.483 207.052C387.974 207.753 388.587 208.367 388.236 208.718C387.889 209.027 387.465 209.239 387.009 209.331C386.839 209.391 386.654 209.391 386.483 209.331C386.483 209.331 385.87 210.032 385.87 210.208C386.557 210.549 387.096 211.129 387.386 211.839C387.676 212.548 387.698 213.34 387.448 214.064C387.009 215.467 386.571 216.694 386.22 217.658C385.427 219.417 385.067 221.341 385.169 223.268C385.169 224.145 385.169 225.459 383.854 227.388C383.889 227.903 383.742 228.414 383.437 228.831C383.132 229.248 382.69 229.544 382.189 229.667H380.786C380.786 230.28 381.312 233.436 381.925 239.133C382.539 244.831 383.153 252.018 383.854 260.608C384.555 269.198 385.432 278.752 386.22 289.183C387.009 299.614 387.623 309.782 388.236 319.95C388.85 330.117 388.85 337.48 388.938 346.246C389.025 355.011 388.938 362.111 388.938 368.509C388.938 374.908 388.499 380.08 388.236 384.112C388.199 386.233 387.964 388.345 387.535 390.423C387.647 392.7 387.258 394.974 386.396 397.084C385.782 397.786 385.344 398.136 384.906 398.136H381.312C379.559 398.136 378.332 398.136 377.806 398.136H375.877L370.005 397.172C367.962 397.036 365.912 397.036 363.869 397.172H357.733C355.411 397.34 353.099 397.633 350.809 398.049C349.832 398.305 348.805 398.305 347.828 398.049C347.339 397.211 347.012 396.29 346.864 395.331C346.123 394.569 345.582 393.635 345.286 392.614C345.346 392.002 345.346 391.386 345.286 390.773V389.196C345.37 388.131 345.546 387.075 345.812 386.04C345.812 386.04 345.812 385.427 345.812 384.638V378.59H335.82H326.09H315.747C313.504 378.354 311.242 378.354 308.998 378.59H304.265C302.922 378.665 301.576 378.665 300.233 378.59C299.093 378.59 298.392 378.59 298.129 379.817L296.288 385.952C295.675 387.706 295.236 389.283 294.798 390.598C294.511 391.766 294.13 392.91 293.659 394.017C293.659 395.156 293.045 396.208 292.782 397.172C292.406 397.623 291.881 397.923 291.302 398.02C290.723 398.116 290.129 398.002 289.627 397.698C287.51 396.881 285.303 396.322 283.053 396.033C280.38 396.093 277.708 395.887 275.076 395.419C272.172 395.022 269.242 394.846 266.311 394.893C264.799 394.468 263.235 394.262 261.665 394.279C258.918 394.112 256.172 393.936 253.426 393.754C252.549 393.754 252.111 393.754 252.286 393.052C252.417 392.81 252.485 392.539 252.485 392.263C252.485 391.988 252.417 391.717 252.286 391.475C251.691 390.633 251.412 389.609 251.497 388.582C251.412 388.001 251.412 387.41 251.497 386.829C251.497 386.829 252.286 383.673 253.952 378.064C255.617 372.454 257.721 364.74 260.526 355.624C263.331 346.508 266.311 336.165 269.291 324.683L279.459 289.622C282.527 279.103 285.419 268.848 288.224 258.855C291.029 248.863 293.396 239.834 295.499 231.77C297.603 223.706 299.268 217.132 300.583 211.873C301.434 208.709 302.049 205.486 302.424 202.231C303.213 199.602 303.914 198.287 304.703 198.287H315.835C315.835 198.287 315.835 197.761 315.835 197.41C316.005 197.47 316.191 197.47 316.361 197.41C320.007 196.757 323.701 196.405 327.405 196.358H339.326C341.973 196.008 344.655 196.008 347.302 196.358C350.02 196.358 353.263 197.323 357.032 198.111H359.662C360.363 198.111 362.554 198.111 366.236 199.251C368.216 199.838 370.238 200.278 372.284 200.566L377.368 201.267C379.001 201.391 380.642 201.391 382.276 201.267C383.24 201.267 383.679 201.267 383.679 202.406C383.781 202.659 383.781 202.942 383.679 203.195L383.065 204.685C383.694 204.879 384.286 205.175 384.818 205.562C384.915 205.603 385.019 205.624 385.125 205.624C385.23 205.624 385.335 205.603 385.432 205.562C385.371 205.732 385.371 205.918 385.432 206.088L385.87 206.702L386.483 207.052ZM340.904 339.058C340.904 325.91 340.115 314.427 339.677 304.61C339.238 294.793 338.625 286.028 337.924 278.314C337.222 270.601 336.433 264.114 335.469 258.417C334.505 252.719 333.453 247.285 332.314 242.113C332.314 241.675 332.314 242.113 332.314 243.253C332.384 243.923 332.384 244.599 332.314 245.269C331.174 250.177 329.772 255.261 328.282 260.433L323.811 275.597C322.234 281.294 320.568 287.08 318.815 293.128C317.062 299.176 315.747 304.698 314.082 310.045C312.416 315.392 311.014 320.125 309.699 324.332C308.384 328.54 306.631 333.886 305.054 338.094H306.193C310.225 338.094 314.257 338.795 318.289 338.97C322.321 339.146 325.477 339.584 329.597 339.672C333.716 339.759 337.398 339.672 340.904 340.373C341.079 340.811 341.342 340.46 340.904 339.058Z" fill="#EF8903"/>
<path d="M397.091 335.64C397.013 335.058 397.013 334.468 397.091 333.886C397.306 333.304 397.645 332.776 398.084 332.337C398.522 331.898 399.051 331.559 399.633 331.344H407.434H421.021C424.702 331.344 428.647 331.344 432.591 332.046C435.133 332.046 436.272 332.046 436.097 333.361C435.975 333.725 435.96 334.116 436.053 334.489C436.146 334.862 436.344 335.2 436.623 335.464C436.623 335.464 437.149 338.094 438.201 342.214C439.253 346.333 440.655 350.979 442.321 356.413C443.986 361.848 446.002 367.019 448.193 372.279C449.772 376.49 452.054 380.402 454.942 383.849C455.585 384.316 457.689 383.527 461.254 381.482C465.742 378.899 470.021 375.969 474.051 372.717C479.41 368.152 484.339 363.105 488.777 357.64C493.87 351.423 498.061 344.518 501.223 337.13C504.61 329.235 506.597 320.812 507.096 312.236C507.563 302.527 505.794 292.841 501.925 283.924C501.755 283.984 501.569 283.984 501.399 283.924C501.143 284.011 500.866 284.011 500.61 283.924C500.61 283.924 500.084 283.924 499.909 284.538L493.773 288.482C490.267 290.849 486.235 293.303 481.852 295.933C477.469 298.562 473.087 301.104 468.879 303.295C465.931 305.045 462.644 306.151 459.238 306.539C457.037 306.631 454.843 306.836 452.664 307.152C449.609 307.512 446.536 307.688 443.46 307.678C441.125 307.154 438.75 306.831 436.36 306.714H429.435H413.132C411.932 306.758 410.745 306.453 409.714 305.837C407.516 305.149 405.547 303.877 404.016 302.156C401.805 298.949 400.42 295.245 399.984 291.375C399.685 287.212 400.566 283.05 402.526 279.366C405.546 273.84 409.13 268.641 413.22 263.851C418.128 257.628 424.702 250.09 432.854 241.062C435.747 238.081 439.866 234.137 445.213 229.316L460.991 215.292C466.834 209.915 473.32 204.393 480.45 198.725C481.123 198.037 481.89 197.446 482.729 196.972C483.901 196.516 485.101 196.135 486.322 195.833C488.248 195.392 490.22 195.186 492.195 195.219H523.4C527.265 195.37 530.981 196.752 534.006 199.163C537.45 201.511 540.424 204.484 542.771 207.929C543.187 210.097 543.422 212.296 543.472 214.503C543.472 216.782 543.472 218.798 543.472 220.463C543.466 224.546 542.935 228.611 541.895 232.559C540.948 236.214 539.717 239.79 538.213 243.253C536.723 246.408 535.408 249.126 534.181 251.317C532.954 253.508 532.165 254.648 531.99 254.911C531.82 254.851 531.634 254.851 531.464 254.911C531.281 255.57 531.281 256.267 531.464 256.927C531.464 257.453 531.288 257.716 530.938 257.716C530.938 257.716 530.324 257.716 530.324 256.927C530.324 256.138 528.747 255.524 527.958 256.226C527.169 256.927 526.643 257.453 526.643 258.066H524.364C523.808 258.146 523.289 258.39 522.874 258.768C522.331 259.216 521.65 259.463 520.945 259.469C520.159 259.373 519.365 259.373 518.579 259.469C518.239 259.688 517.843 259.804 517.439 259.804C517.035 259.804 516.64 259.688 516.3 259.469C514.537 258.441 512.609 257.73 510.602 257.365C507.824 256.687 504.901 256.933 502.275 258.066C501.604 258.386 500.871 258.551 500.128 258.551C499.385 258.551 498.651 258.386 497.98 258.066C496.612 257.445 495.365 256.584 494.299 255.524C493.305 254.94 492.78 253.45 492.721 251.054C492.568 249.086 492.716 247.105 493.159 245.181C494.825 242.289 496.315 239.747 497.542 237.468C499.004 234.499 499.924 231.293 500.259 228.001C500.259 227.388 499.12 228.001 496.666 229.579C493.631 231.772 490.705 234.112 487.9 236.591C484.131 239.659 480.011 243.341 475.453 247.636C470.895 251.931 466.688 256.401 462.393 260.959C458.38 265.386 454.662 270.071 451.261 274.983C448.269 278.999 445.878 283.428 444.161 288.131L446.177 286.992C447.605 285.62 449.161 284.387 450.823 283.311C454.162 280.854 457.645 278.601 461.254 276.561C465.661 274.037 470.263 271.868 475.015 270.075C479.809 268.271 484.882 267.322 490.004 267.27L515.248 268.672C520.537 268.801 525.76 269.87 530.675 271.828C537.191 274.293 542.521 279.153 545.576 285.414C549.71 294.924 551.31 305.342 550.222 315.655C549.46 323.794 547.572 331.788 544.612 339.409C541.34 348.072 536.79 356.197 531.113 363.513C525.06 371.385 517.884 378.325 509.814 384.112C501.098 390.375 491.287 394.954 480.888 397.61C478.869 398.402 476.74 398.875 474.577 399.013C471.662 399.299 468.726 399.299 465.812 399.013C461.258 398.685 456.723 398.129 452.225 397.347C450.452 396.869 448.627 396.604 446.791 396.559C444.687 396.559 442.583 396.559 440.48 396.559C438.376 396.559 435.834 396.559 433.292 396.559C428.159 396.114 423.377 393.769 419.881 389.985C414.956 384.885 410.979 378.949 408.136 372.454C402.936 360.69 399.226 348.323 397.091 335.64Z" fill="#EF8903"/>
<path d="M648.305 194.693C665.836 195.336 678.282 195.949 685.645 196.534C693.008 197.235 696.69 197.848 696.69 198.462L696.164 199.338C695.725 199.864 695.375 200.127 695.024 200.127C694.804 200.417 694.685 200.771 694.685 201.135C694.685 201.5 694.804 201.854 695.024 202.143L695.638 203.283C696.164 203.896 696.251 206.088 695.638 210.032C695.278 214.015 694.302 217.919 692.745 221.602C692.745 225.109 692.745 228.264 692.745 231.069C692.745 233.962 692.745 236.328 692.219 238.257C691.693 240.185 691.693 239.133 690.729 239.133H689.327C686.786 238.588 684.207 238.236 681.613 238.081C679.509 238.081 677.318 238.081 675.127 238.081H667.676C664.959 238.081 661.365 238.081 656.983 238.081H649.62C648.043 237.996 646.463 237.996 644.886 238.081H641.468C640.328 238.081 639.364 239.484 638.488 242.113C637.415 245.597 636.537 249.138 635.858 252.719C635.069 257.102 634.193 262.274 633.316 268.146C632.44 274.019 631.388 280.242 629.985 286.553C628.145 296.283 626.129 306.363 624.025 316.882C621.921 327.4 619.905 337.305 617.977 346.684C616.049 356.063 614.383 364.214 612.981 372.015C611.578 379.817 610.526 385.339 610 389.546C609.688 390.124 609.336 390.681 608.949 391.212C608.682 391.601 608.448 392.011 608.247 392.439C608.247 392.439 607.722 393.052 607.722 393.228C607.283 394.805 606.845 395.682 606.407 395.945C605.978 396.074 605.521 396.074 605.092 395.945C604.107 395.911 603.133 395.733 602.199 395.419C601.395 395.064 600.535 394.857 599.657 394.805C599.16 395.023 598.623 395.135 598.08 395.135C597.537 395.135 597 395.023 596.502 394.805C595.366 394.677 594.219 394.677 593.083 394.805C592.305 394.49 591.469 394.341 590.629 394.367H579.76C577.744 394.367 576.079 394.367 574.764 394.805C572.637 395.355 570.405 395.355 568.278 394.805C567.597 394.25 567.132 393.475 566.963 392.614C566.655 391.849 566.421 391.056 566.262 390.247C566.22 389.605 566.22 388.961 566.262 388.319C566.148 387.77 566.148 387.203 566.262 386.654C566.153 384.323 566.389 381.99 566.963 379.729C567.664 376.31 568.453 372.454 569.417 368.334C570.381 364.214 571.433 359.569 572.572 355.361C573.712 351.154 574.764 347.21 575.728 343.966C577.218 337.655 578.621 331.081 579.848 324.157C581.075 317.232 582.214 310.308 583.179 303.295C584.143 296.283 585.896 289.008 586.772 282.346C587.649 275.685 588.35 269.636 588.876 264.29C589.402 258.943 590.191 252.193 590.629 246.759C590.58 246.088 590.58 245.414 590.629 244.743C590.803 243.787 590.803 242.807 590.629 241.85C590.574 241.426 590.428 241.018 590.201 240.655C589.974 240.292 589.672 239.982 589.314 239.747C588.701 239.221 587.474 239.747 585.72 239.747C583.237 240.293 580.665 240.293 578.182 239.747C574.589 239.747 571.082 239.747 567.401 239.747C565.254 239.627 563.227 238.722 561.704 237.205C561.439 237.006 561.239 236.734 561.13 236.422C561.02 236.109 561.007 235.772 561.09 235.452C561.5 233.278 561.793 231.083 561.967 228.878C561.967 227.037 561.967 225.109 562.405 223.18C562.843 221.252 562.405 219.586 562.405 218.009C562.141 215.093 562.141 212.159 562.405 209.243C562.539 207.009 562.803 204.785 563.194 202.582C563.589 200.67 563.881 198.739 564.07 196.797H565.21C566.226 196.37 567.284 196.047 568.365 195.832H570.644C573.975 195.306 578.358 194.781 583.88 194.43L602.638 193.378C609.562 193.378 617.013 193.378 624.814 192.852L648.305 194.693Z" fill="#EF8903"/>
<path d="M782.328 194.956C789.083 195.973 795.506 198.554 801.086 202.494C805.638 206.029 809.2 210.678 811.429 215.993C813.706 221.553 814.839 227.515 814.76 233.523C814.72 240.137 813.926 246.724 812.393 253.158C810.864 260.044 808.753 266.789 806.082 273.318C803.549 279.802 800.622 286.124 797.317 292.251C794.39 297.841 790.957 303.152 787.061 308.116C783.38 312.587 780.049 316.356 776.981 319.423C773.665 322.601 770.12 325.531 766.375 328.189C768.654 339.058 770.845 348.787 772.949 357.377L775.316 368.159C776.017 371.665 776.718 374.82 777.419 377.538C778.121 380.255 778.647 382.622 778.997 384.287C779.348 385.952 779.611 387.004 779.611 387.179C780.089 387.628 780.424 388.207 780.575 388.845C780.614 389.429 780.614 390.014 780.575 390.598C780.737 390.878 780.822 391.195 780.822 391.518C780.822 391.841 780.737 392.159 780.575 392.439C780.152 393.278 779.97 394.219 780.049 395.156C779.26 396.295 777.507 396.646 774.702 396.032C772.135 395.496 769.523 395.202 766.901 395.156H744.549C742.446 395.77 740.956 395.156 740.254 392.351C739.753 391.061 739.458 389.701 739.378 388.319C737.8 381.044 736.485 374.47 735.346 368.509C734.206 362.549 733.505 358.867 732.629 354.485C732.194 351.874 731.578 349.297 730.788 346.771C730.237 347.969 729.854 349.238 729.648 350.54C729.035 352.819 728.421 355.537 727.72 358.78C727.019 362.023 726.317 365.617 725.441 369.561C724.564 373.506 723.776 377.187 722.987 380.605L721.146 389.371C720.835 390.877 720.601 392.399 720.445 393.929C720.445 395.039 719.481 395.39 717.552 394.981C713.568 394.43 709.528 394.43 705.544 394.981H695.025C693.41 395.643 691.687 395.999 689.941 396.032H684.419C683.689 395.983 682.984 395.747 682.37 395.349C681.757 394.95 681.255 394.401 680.913 393.753C680.913 393.228 681.351 391.212 682.053 387.793C682.754 384.375 683.893 379.729 685.121 373.856C686.348 367.983 687.838 361.322 689.503 353.696C691.169 346.07 693.009 337.831 694.675 329.065C696.954 317.758 698.882 306.188 700.285 294.004C701.687 281.82 703.44 270.951 705.544 260.258C709.05 244.392 711.592 231.157 713.345 220.551C714.471 214.761 715.232 208.905 715.624 203.02C715.725 202.101 716.072 201.225 716.627 200.485C717.182 199.745 717.925 199.168 718.779 198.813L722.724 197.586C722.724 197.147 723.6 196.884 724.74 196.709H728.772H733.505H737.625C739.572 196.994 741.55 196.994 743.498 196.709L748.581 195.92L754.542 195.219C757.607 195.04 760.68 195.04 763.746 195.219C765.653 194.642 767.627 194.318 769.618 194.255H775.754L782.328 194.956ZM758.311 287.781C761.911 280.887 765.073 273.773 767.778 266.481C770.493 259.123 772.346 251.476 773.3 243.691C774.21 236.61 773.824 229.422 772.16 222.479C770.594 215.629 766.841 209.475 761.466 204.948C761.466 205.737 760.941 206.088 759.45 206.088C757.96 206.088 758.136 205.474 757.697 206.088C757.38 206.385 757.192 206.793 757.172 207.227C755.594 213.363 754.191 219.674 752.876 226.16C751.562 232.647 750.159 237.994 748.844 245.181C747.53 252.369 746.04 259.469 744.549 266.481C743.059 273.493 742.007 278.577 740.956 284.012C739.904 289.446 739.027 294.881 738.238 299.351C737.45 303.821 736.924 307.59 736.485 310.658C736.047 313.726 735.959 315.654 735.959 316.356C738.614 313.862 741.103 311.197 743.41 308.379L750.598 299.176C753.425 295.557 756.002 291.75 758.311 287.781Z" fill="#EF8903"/>
<path d="M923.011 196.972C927.445 199.378 931.073 203.036 933.441 207.49C935.934 212.32 937.593 217.535 938.35 222.917C939.213 229.189 939.448 235.532 939.051 241.85C939.051 248.6 938.087 255.524 937.298 262.624C936.197 274.98 934.442 287.269 932.039 299.439C929.539 312.31 925.781 324.905 920.819 337.042C916.162 348.845 909.973 359.985 902.412 370.175C895.495 379.742 886.506 387.622 876.116 393.228C873.317 394.49 870.373 395.403 867.351 395.945C864.053 396.627 860.716 397.095 857.358 397.347C854.438 397.495 851.513 397.495 848.593 397.347H843.071C842.358 397.786 841.541 398.028 840.704 398.049H838.776C836.43 398.088 834.111 397.546 832.026 396.471C830.141 395.498 828.449 394.191 827.03 392.614C820.202 387.287 815.257 379.916 812.918 371.577C810.208 362.033 808.966 352.132 809.237 342.213C809.498 330.915 810.878 319.669 813.356 308.642C815.89 297.268 819.199 286.081 823.261 275.159C825.728 266.364 828.954 257.8 832.903 249.564C836.548 241.652 840.797 234.033 845.613 226.774C849.77 220.487 854.526 214.616 859.812 209.243C863.723 204.962 868.426 201.48 873.662 198.988H875.678C877.424 198.903 879.157 198.639 880.849 198.199C883.128 197.732 885.32 197.206 887.423 196.621H893.91C895.681 196.553 897.442 196.318 899.169 195.92H904.603C906.115 195.925 907.619 195.718 909.074 195.307C910.124 194.965 911.214 194.759 912.317 194.693C914.941 194.597 917.566 194.863 920.118 195.482C921.132 195.875 922.102 196.375 923.011 196.972ZM853.677 377.801C857.976 373.336 861.905 368.529 865.422 363.426C869.243 357.793 872.726 351.939 875.853 345.895C879.983 337.919 883.387 329.588 886.021 321.001C890.328 308.229 893.956 295.239 896.89 282.083C898.029 276.736 899.081 271.039 900.045 265.166C901.009 259.293 901.711 253.421 902.237 247.636C902.584 242.09 902.584 236.527 902.237 230.981C902.035 225.932 901.211 220.927 899.782 216.08C899.193 216.303 898.634 216.597 898.117 216.957C897.722 217.309 897.279 217.604 896.802 217.833C896.444 217.931 896.114 218.111 895.838 218.359C891.686 222.033 887.979 226.181 884.794 230.719C879.42 237.827 874.586 245.328 870.331 253.158C865.058 262.722 860.346 272.585 856.219 282.697C851.888 293.339 848.6 304.377 846.402 315.655C844.2 326.493 843.463 337.578 844.21 348.612C844.989 358.958 848.235 368.967 853.677 377.801ZM862.442 177.776H866.825C869.739 178.065 872.675 178.065 875.59 177.776L889.176 177.25C894.198 176.982 899.231 176.982 904.253 177.25H913.018C916.261 177.25 919.329 177.25 922.222 177.25L932.214 176.373C932.682 175.906 933.646 175.906 935.107 176.373C936.907 176.656 938.741 176.656 940.541 176.373C941.505 176.373 941.944 176.899 941.944 177.864C941.868 178.121 941.868 178.395 941.944 178.652C941.944 179.441 941.944 179.967 942.82 180.143C943.169 180.508 943.464 180.921 943.697 181.37C943.828 181.596 943.896 181.853 943.896 182.115C943.896 182.376 943.828 182.633 943.697 182.86C943.502 183.271 943.401 183.72 943.401 184.175C943.401 184.629 943.502 185.078 943.697 185.489C944.048 186.02 944.287 186.616 944.398 187.242C944.836 188.031 944.398 188.47 943.258 188.557H939.226H931.513C929.647 188.388 927.769 188.388 925.903 188.557H915.034H905.042H898.643C896.629 188.416 894.608 188.416 892.595 188.557H875.064C873.462 188.376 871.845 188.376 870.243 188.557C868.16 188.984 866.052 189.276 863.932 189.434C861.39 189.434 859.988 189.434 859.637 188.557C859.287 187.681 858.673 187.418 858.585 187.505C858.498 187.593 858.585 187.505 857.884 187.505C857.183 187.505 856.657 185.402 857.183 184.876C857.585 184.374 857.829 183.764 857.884 183.123C858.196 182.16 858.737 181.287 859.462 180.581L861.04 178.915L862.442 177.776Z" fill="#EF8903"/>
<path d="M249.921 122.73C248.72 124.165 247.092 125.178 245.275 125.622C244.109 125.727 242.935 125.727 241.769 125.622H238.175C236.51 125.622 232.828 125.622 227.306 124.746L209.775 122.817L192.245 120.626C188.593 120.238 184.965 119.653 181.376 118.873H172.61C171.909 121.502 171.208 124.395 170.419 127.638C169.664 130.959 168.728 134.237 167.614 137.455C181.2 139.559 191.982 141.487 200.134 143.153C208.285 144.818 214.509 146.221 219.067 147.448C222.812 148.404 226.5 149.574 230.111 150.954C233.442 152.444 235.458 154.022 235.984 155.6C236.622 157.34 236.948 159.18 236.948 161.034C235.984 161.034 235.107 161.823 234.406 163.488C233.705 165.154 231.689 166.03 228.358 166.03H226.517C223.001 165.162 219.427 164.547 215.824 164.19L198.293 162.086L180.762 160.07C175.415 159.544 171.997 159.193 170.945 159.193C170.628 158.754 170.222 158.387 169.754 158.115C169.286 157.843 168.766 157.673 168.228 157.616H164.459C162.488 166.705 160.996 175.892 159.988 185.139C158.937 194.868 157.534 204.773 155.869 214.766V221.515C154.992 229.141 154.028 235.013 153.239 239.045C153.04 240.813 152.159 242.434 150.785 243.563C149.41 244.693 147.649 245.242 145.876 245.094C144.71 245.203 143.536 245.203 142.37 245.094C140.88 245.094 139.828 243.779 139.127 241.938C138.888 241.946 138.654 241.872 138.462 241.728C138.271 241.585 138.135 241.381 138.075 241.149C137.807 240.874 137.604 240.542 137.483 240.178C137.361 239.813 137.324 239.426 137.374 239.045C137.374 238.607 137.374 236.153 137.374 231.683C137.374 227.212 137.374 221.427 138.075 214.152C138.776 206.877 139.039 198.199 140.003 188.382C140.968 178.565 142.282 168.046 143.948 156.651H101.787C100.121 168.046 98.7187 177.425 97.6669 184.788C96.615 192.151 95.8261 198.111 95.3879 202.319C94.9525 205.575 94.6892 208.852 94.599 212.136C94.4912 213.725 94.7616 215.317 95.3879 216.782V225.547L93.1965 226.949C93.3119 228.876 93.3119 230.808 93.1965 232.734C92.974 234.784 92.5633 236.808 91.9694 238.783C91.4633 240.547 90.5979 242.189 89.4274 243.603C88.9423 244.228 88.316 244.728 87.5998 245.064C86.8836 245.399 86.098 245.559 85.3077 245.532C83.6995 245.538 82.1109 245.178 80.6621 244.48C79.9615 244.103 79.3879 243.528 79.0136 242.826C78.6393 242.124 78.4809 241.327 78.5584 240.536C78.5584 240.536 78.5584 237.818 78.5584 233.085C78.5584 228.352 78.5584 222.128 78.5584 214.503C78.5584 206.877 78.5585 198.024 79.6103 188.207C80.6621 178.389 81.1004 167.783 82.3275 156.827C71.1079 157.528 61.729 157.966 54.1032 158.229C47.7572 158.34 41.4285 158.926 35.1701 159.982H9.75064C7.9322 160.018 6.14139 159.533 4.58869 158.586C3.03598 157.639 1.7859 156.268 0.985309 154.635C0.242947 153.205 -0.0906771 151.597 0.0211173 149.99C0.398714 147.908 1.48213 146.02 3.08897 144.643C3.08897 144.643 3.52725 144.643 3.79021 144.643C4.05317 144.643 4.49145 144.205 4.49145 143.24C6.04966 142.306 7.84764 141.849 9.66296 141.926H16.3246H20.9702C22.23 141.838 23.4559 141.479 24.5641 140.874C26.1245 140.138 27.8356 139.778 29.5603 139.822H34.5565C40.4229 139.591 46.2739 139.065 52.0872 138.244C62.2665 137.025 72.5143 136.469 82.7658 136.579C83.6516 133.725 84.2391 130.788 84.5189 127.813C84.7974 125.145 85.416 122.524 86.3596 120.012C77.0683 120.012 68.8289 120.012 62.2549 120.012C56.7799 119.959 51.3147 120.488 45.9514 121.59H19.5678C17.6438 121.526 15.7946 120.83 14.3054 119.61C12.8163 118.391 11.7701 116.714 11.3284 114.841C11.4262 112.576 12.0249 110.36 13.0814 108.354C14.3086 105.988 15.3604 104.848 16.3246 104.848C17.2301 103.026 18.6751 101.526 20.463 100.554C22.2509 99.5813 24.295 99.1833 26.3171 99.4138L31.664 101.255H44.8996C50.6591 99.9345 56.5269 99.1423 62.4303 98.8879C71.1956 98.362 79.9609 98.0114 90.6546 98.0114C91.2611 97.2084 91.6803 96.28 91.8817 95.2941C91.9219 94.535 91.9219 93.7743 91.8817 93.0151C94.5113 79.4289 96.1768 68.9981 97.0533 61.5476C97.9298 54.0971 98.2804 48.4873 98.2804 44.0169C97.6356 44.0782 96.985 44.0089 96.3676 43.8131C95.7501 43.6173 95.1784 43.2991 94.6867 42.8775C94.3888 42.819 94.108 42.6941 93.8651 42.512C93.6223 42.3298 93.4237 42.0952 93.2842 41.8256C92.5829 40.0736 92.2834 38.1866 92.4077 36.3035C92.9021 33.0006 93.9387 29.802 95.4755 26.8369C96.1362 21.5601 97.8342 16.4661 100.472 11.8482C100.472 11.8482 100.998 11.8482 101.524 11.147C101.435 10.802 101.435 10.4401 101.524 10.0951C102.144 7.63021 103.118 5.26822 104.416 3.08289C104.978 2.08444 105.811 1.26601 106.82 0.722897C107.829 0.179781 108.971 -0.0656798 110.114 0.0150345C111.977 -0.0375286 113.802 0.550262 115.285 1.68043C116.561 2.70733 117.607 3.9916 118.353 5.44953C119.03 6.83496 119.502 8.3112 119.755 9.83219C119.859 11.0864 119.859 12.347 119.755 13.6013C120.021 18.4186 120.021 23.2468 119.755 28.0641C119.755 33.9368 119.054 39.7219 118.353 45.5947C117.652 51.4675 116.863 56.2884 116.162 60.4081C115.864 62.7762 115.395 65.1197 114.759 67.4204V77.7635C113.795 81.0943 112.919 84.4251 112.042 87.7559C111.165 91.0868 110.464 94.4176 109.763 97.7484H153.59C156.698 85.7517 160.773 74.0263 165.773 62.6871C170.047 52.7786 174.936 43.1472 180.412 33.8492C180.302 31.8346 180.302 29.8157 180.412 27.8011C180.782 25.0811 181.871 22.5091 183.567 20.3506V16.6691C184.46 14.6555 185.193 12.5746 185.758 10.4458C186.46 7.90382 188.651 6.67667 192.157 6.67667C192.741 6.62643 193.328 6.69362 193.885 6.87428C194.442 7.05494 194.957 7.34539 195.4 7.7285C196.165 8.52107 196.868 9.37086 197.504 10.2705L198.643 11.6729C199.437 14.1018 199.735 16.665 199.52 19.2111C199.063 25.0947 198.273 30.9477 197.153 36.7417C197.054 38.1888 196.635 39.5957 195.926 40.8615C194.88 43.4603 194.116 46.1638 193.647 48.9255C193.647 50.065 193.647 51.3798 193.647 52.6946C193.647 54.0094 193.647 55.2366 193.034 56.3761C192.42 57.5156 193.034 58.918 192.332 60.3205V62.2488H190.229C189.002 64.6155 187.687 67.4204 186.284 71.0142C184.882 74.608 183.655 77.9388 181.989 82.4968C180.022 87.9829 178.355 93.5717 176.993 99.2385C190.579 101.167 203.289 103.358 214.684 105.9C225.3 108.115 235.754 111.043 245.976 114.665C246.203 114.585 246.451 114.585 246.677 114.665C247.379 115.367 247.729 115.805 247.729 116.068C247.729 116.331 248.343 116.068 248.781 116.769C248.701 116.996 248.701 117.244 248.781 117.47L249.921 122.73ZM147.454 135.965C147.432 132.837 147.786 129.718 148.506 126.674C149.207 123.869 149.996 120.714 150.96 117.383H107.133C107.138 120.493 106.903 123.599 106.432 126.674C105.921 129.744 105.686 132.853 105.731 135.965H147.542H147.454Z" fill="#EF8903"/>
<path d="M332.664 491.75C337.924 489.734 342.745 487.893 347.215 486.315L358.785 482.634C361.604 481.62 364.558 481.029 367.55 480.881C370.519 480.946 373.479 480.532 376.316 479.654C377.183 479.418 377.99 479 378.682 478.427C390.866 475.622 404.978 472.116 419.967 467.821C468.352 454.585 492.106 455.637 567.137 446.17C619.729 439.596 662.153 434.249 705.015 427.5C727.888 429.261 750.863 429.261 773.736 427.5C781.975 426.799 794.772 425.659 810.988 425.134C823.347 425.134 834.567 424.608 844.735 425.134C854.903 425.659 863.23 425.747 869.891 426.361C873.862 426.622 877.813 427.12 881.724 427.851C884.179 429.487 884.792 431.415 883.565 433.636C882.57 435.167 881.941 436.906 881.724 438.72C880.116 440.431 878.785 442.383 877.78 444.505C876.922 446.104 876.414 447.866 876.29 449.676C876.064 451.05 875.407 452.317 874.415 453.294C873.422 454.27 872.145 454.907 870.768 455.111H843.508C842.28 455.111 837.723 455.637 829.834 456.601C821.945 457.565 813.969 458.968 805.904 460.545C799.183 460.449 792.466 460.948 785.832 462.036C781.624 462.734 777.546 464.063 773.736 465.98C769.616 467.996 666.974 480.706 663.555 480.706C660.388 480.722 657.233 480.309 654.177 479.479L646.901 477.375C646.133 477.015 645.295 476.828 644.447 476.828C643.599 476.828 642.761 477.015 641.993 477.375C639.977 478.602 429.609 499.113 424.525 499.902C419.215 500.805 413.861 501.419 408.485 501.742C402.787 501.742 397.44 502.356 392.356 502.356H381.224C376.64 502.381 372.066 502.791 367.55 503.583C364.051 504.261 360.506 504.671 356.944 504.81C354.157 505.936 351.185 506.531 348.179 506.563C344.936 506.563 343.358 505.95 343.358 504.81C342.131 502.005 340.816 500.34 339.414 499.902C338.123 499.577 336.8 499.401 335.469 499.376C333.804 499.376 333.015 498.149 333.015 495.694C332.512 494.443 332.39 493.071 332.664 491.75Z" fill="#EF8903"/>
<path d="M913.807 112.65C913.807 118.785 913.982 124.395 914.333 129.479C914.333 133.862 914.333 138.244 914.333 141.75C914.435 143.989 914.228 146.23 913.72 148.412C913.018 148.412 912.668 148.587 912.668 148.938V149.464C912.668 149.464 912.054 149.464 911.879 149.464C911.703 149.464 911.353 149.464 911.353 148.412V145.782C911.353 145.782 911.353 143.591 911.353 140.173C911.353 136.754 911.353 132.985 911.353 128.953L910.827 112.65C904.983 118.961 899.724 124.804 895.049 130.18L889.264 136.667L884.005 142.715L880.148 147.273C879.441 147.998 878.955 148.91 878.746 149.902C878.525 150.475 878.142 150.97 877.644 151.328C877.146 151.686 876.554 151.891 875.941 151.918C874.626 151.918 874.013 151.918 874.013 151.217L872.785 149.902C872.725 149.554 872.725 149.198 872.785 148.85C872.733 148.59 872.733 148.322 872.785 148.061V147.185C872.95 146.818 873.188 146.49 873.487 146.221L876.116 143.328L881.901 137.017L889.089 129.041L896.452 120.275L902.5 113.614L905.568 110.283H902.5H895.663L886.898 109.669L878.132 108.968H871.383H868.403H866.562H863.757C862.89 108.838 862.056 108.54 861.303 108.092C860.987 107.92 860.723 107.666 860.538 107.358C860.353 107.05 860.254 106.698 860.251 106.338C860.952 106.338 862.968 106.338 866.299 105.725C869.786 105.262 873.3 105.027 876.817 105.024C878.746 105.024 881.375 105.725 884.706 105.988L894.523 106.777L903.289 107.303H907.671C907.419 106.638 907.064 106.017 906.619 105.462L905.305 103.358L903.201 100.203C901.974 98.8003 899.783 96.0831 896.627 92.051L886.722 79.6043L877.519 67.8587C874.801 64.3526 873.399 62.4242 873.224 62.0736C871.988 61.5645 870.924 60.713 870.156 59.6193C869.967 59.4062 869.833 59.1503 869.766 58.8737C869.698 58.5972 869.699 58.3084 869.768 58.0322C869.837 57.756 869.972 57.5008 870.162 57.2887C870.352 57.0765 870.59 56.9137 870.857 56.8144C871.11 56.7121 871.393 56.7121 871.646 56.8144L872.435 57.3403L873.224 57.8662C874.1 57.8662 875.853 59.1811 878.483 61.8106C879.36 63.4979 880.418 65.0849 881.638 66.5439L887.686 74.608C889.965 77.6759 892.42 80.8314 895.049 84.1622C897.679 87.4931 900.046 90.6486 902.237 93.5411C904.428 96.4337 906.269 98.888 907.759 100.992C908.688 102.106 909.455 103.345 910.038 104.673C910.038 95.9078 910.389 87.756 911.09 80.2178C911.09 73.9068 911.879 67.7711 912.492 61.723C912.742 57.554 913.507 53.432 914.771 49.4515V51.8182C914.771 52.3441 914.771 52.6071 914.771 52.6071C914.771 52.6071 914.771 53.4836 914.771 55.2367C914.57 56.4556 914.57 57.6992 914.771 58.9181C914.771 61.1971 914.771 64.0896 914.771 67.6834C914.771 71.2772 914.771 74.6957 914.771 78.5524C914.771 82.4092 914.771 86.0906 914.771 89.5091C914.771 92.9276 914.771 95.8201 914.771 98.2744C914.771 100.729 914.771 102.131 914.771 102.482C920.615 95.9954 926.137 90.1519 931.338 84.9511C933.441 82.6721 935.545 80.4808 937.736 78.2895C939.928 76.0981 942.031 74.0821 944.047 72.2414L949.482 67.5081C950.693 66.4352 952.015 65.4949 953.426 64.7032V65.4921C953.529 65.7451 953.529 66.0279 953.426 66.281C953.211 66.5151 953.034 66.7812 952.901 67.0698C951.687 68.1012 950.544 69.214 949.482 70.4007C947.904 72.0661 947.115 73.2056 947.115 73.9068C947.115 74.608 946.239 75.5722 944.573 77.3253C943.181 78.7245 942 80.319 941.067 82.0585L936.685 86.7042L929.234 94.6806L921.871 102.745C920.481 104.125 919.247 105.653 918.19 107.303L927.919 108.092C930.652 108.467 933.402 108.701 936.159 108.793H943.434C945.538 108.793 948.518 109.494 952.199 109.757L964.295 110.634L975.515 111.598C977.476 111.602 979.426 111.897 981.3 112.474C982.352 113 981.3 113.526 979.021 114.052C976.309 114.596 973.548 114.86 970.782 114.841C969.379 114.841 966.75 114.841 962.893 114.841L950.096 112.825L938.35 112.036H932.214H928.621H923.274L915.911 111.247C916.732 111.92 917.442 112.719 918.014 113.614C918.891 114.666 920.031 116.243 921.521 118.259C923.011 120.275 925.202 122.993 928.007 126.499C930.812 130.005 932.477 132.635 935.195 135.878C937.912 139.121 941.593 143.591 946.151 149.376C946.502 150.253 946.852 151.042 947.203 151.743C947.904 153.321 947.904 154.11 947.203 154.11C946.824 154.095 946.455 153.983 946.132 153.783C945.809 153.583 945.544 153.303 945.362 152.97C945.185 152.626 944.923 152.333 944.601 152.118C944.279 151.903 943.907 151.774 943.522 151.743C943.389 150.795 942.923 149.925 942.207 149.289L939.84 146.747C938.139 145.04 936.585 143.193 935.195 141.224L926.429 129.917L913.807 112.65Z" fill="#EF8903"/>
</svg>
