<svg width="541" height="280" viewBox="0 0 541 280" fill="none" xmlns="http://www.w3.org/2000/svg">
<path d="M161.878 81.835C161.878 81.835 161.878 81.4486 161.878 81.1104C161.711 80.8448 161.597 80.5497 161.54 80.241C161.49 80.0183 161.49 79.7874 161.54 79.5647V79.0334C161.497 78.8426 161.497 78.6445 161.54 78.4537C162.168 75.6521 162.893 72.8022 163.714 69.8556C164.535 66.9091 165.26 64.3007 165.984 61.9821C167.25 58.3832 168.124 54.6584 168.593 50.8722C168.849 48.1571 168.849 45.4239 168.593 42.7088C168.491 40.9401 168.183 39.1893 167.675 37.492C167.406 36.8308 167.181 36.1532 166.999 35.4633C166.995 35.2084 166.891 34.9654 166.709 34.787C166.709 34.787 166.709 34.787 166.419 34.787C165.066 39.6174 164.004 44.0613 163.134 48.0706C162.265 52.0798 161.347 55.7026 160.429 58.8906C158.449 66.3294 156.951 72.1742 156.034 76.425C155.116 80.6757 154.488 83.9121 154.15 86.0857C153.867 87.4354 153.737 88.8128 153.763 90.1916C153.763 90.7712 153.763 91.1093 153.763 91.2543C153.763 91.3992 154.005 91.7856 154.488 92.2203C154.981 92.6929 155.64 92.9531 156.323 92.9449C158.545 92.6068 160.816 92.4135 163.183 92.2686H169.704H177.384C178.253 92.2686 178.447 92.6068 177.964 93.1864C177.926 93.2794 177.926 93.3833 177.964 93.4762C177.959 93.5953 177.995 93.7124 178.065 93.8088C178.135 93.9052 178.235 93.9752 178.35 94.0076L178.592 94.877C178.454 95.0484 178.38 95.2613 178.38 95.4808C178.38 95.7003 178.454 95.9133 178.592 96.0846C177.954 95.9545 177.297 95.9545 176.659 96.0846H164.487H162.361H160.767H158.787H155.454H149.754C148.146 96.1854 146.532 96.1854 144.924 96.0846L142.219 95.6982C141.663 95.5573 141.127 95.3463 140.625 95.0703C140.067 94.5262 139.609 93.8886 139.272 93.1864C138.576 91.5161 138.2 89.7303 138.161 87.9213C138.223 86.6892 138.369 85.4627 138.596 84.2502C138.886 82.5112 139.272 80.4342 139.803 78.019C140.335 75.6038 140.866 73.1886 141.542 70.1454C142.219 67.1023 142.895 64.4456 143.619 61.5957C145.31 54.8814 147.146 47.4426 149.223 39.3759C149.174 38.9263 149.174 38.4729 149.223 38.0234L149.657 36.0429C149.657 35.4149 149.996 34.787 150.189 34.2073C150.382 33.6277 150.189 33.2413 150.527 32.9514C150.792 32.6482 150.974 32.2824 151.058 31.8888C151.248 31.3542 151.393 30.8049 151.493 30.2464C151.493 29.6668 151.783 29.1354 151.928 28.7007C152.073 28.266 151.928 27.9761 152.314 27.9761C152.701 27.9761 152.314 27.5414 152.314 27.2516C152.314 26.9618 153.184 26.7685 154.343 26.7685C156.256 26.9112 158.178 26.9112 160.091 26.7685L164.1 26.4787C165.163 26.4787 166.081 26.4787 166.854 26.1406C167.577 26.0731 168.304 26.0731 169.027 26.1406C171.745 26.2651 174.374 27.1523 176.611 28.7007C178.477 30.0714 179.998 31.8574 181.055 33.9175C182.129 35.9887 182.848 38.2258 183.18 40.5352C183.507 42.7254 183.652 44.9387 183.615 47.1528C183.602 48.9786 183.473 50.8017 183.229 52.6111C183.105 53.6057 182.911 54.5903 182.649 55.5577C182.649 55.9924 182.408 56.9585 182.069 58.4076C181.731 59.8567 181.345 61.4508 180.862 63.238C180.379 65.0252 179.896 67.054 179.268 69.1311C178.64 71.2081 178.157 73.092 177.625 74.8792C177.094 76.6665 176.708 78.2122 176.273 79.4198C176.075 80.1643 175.817 80.8913 175.5 81.5935C174.68 81.5236 173.856 81.5236 173.037 81.5935H169.172H165.405H163.424C162.981 81.7822 162.505 81.8807 162.023 81.8833C162.12 82.1248 161.878 82.0282 161.878 81.835Z" fill="#FFEFDB"/>
<path d="M224.095 26.5753C225.652 27.3969 226.917 28.679 227.718 30.2464C228.588 31.9221 229.16 33.7364 229.408 35.6081C229.631 37.7923 229.631 39.9934 229.408 42.1775C229.408 44.5283 229.215 46.9435 228.829 49.4231C228.441 53.719 227.828 57.9917 226.993 62.2236C226.1 66.7151 224.79 71.1137 223.081 75.3623C221.442 79.4545 219.283 83.3184 216.656 86.8586C214.219 90.206 211.046 92.9493 207.382 94.877C206.444 95.3209 205.454 95.6455 204.435 95.8431C203.287 96.0751 202.125 96.2364 200.957 96.3261H197.769H195.837C195.57 96.4082 195.284 96.4082 195.016 96.3261H194.34C193.518 96.3532 192.704 96.1704 191.973 95.7948C191.315 95.4544 190.726 94.9959 190.234 94.4423C187.959 92.6535 186.29 90.2082 185.452 87.4382C184.504 84.1098 184.065 80.6575 184.148 77.1978C184.221 73.2614 184.707 69.3435 185.597 65.5083C186.477 61.5552 187.623 57.666 189.026 53.867C189.9 50.805 191.014 47.8169 192.359 44.9308C193.662 42.194 195.147 39.5475 196.803 37.009C198.229 34.8102 199.845 32.7412 201.634 30.826C203.009 29.3468 204.647 28.1349 206.464 27.2516H207.14C207.735 27.2979 208.333 27.2979 208.928 27.2516C209.749 27.2516 210.473 26.9134 211.246 26.6719H213.468C214.077 26.7519 214.694 26.7519 215.304 26.6719H217.187C217.699 26.7549 218.221 26.7549 218.733 26.6719C219.117 26.6097 219.509 26.6097 219.893 26.6719C220.8 26.6496 221.708 26.7307 222.598 26.9134L224.095 26.5753ZM199.943 89.3704C201.436 87.8708 202.809 86.2556 204.049 84.54C205.16 82.8494 206.367 80.8206 207.672 78.3571C209.101 75.5685 210.281 72.6589 211.198 69.6624C212.703 65.2066 213.976 60.6761 215.014 56.089C215.4 54.2534 215.787 52.273 216.076 50.2442C216.366 48.2155 216.704 46.1384 216.849 44.1579C216.968 42.2276 216.968 40.2918 216.849 38.3615C216.772 36.6095 216.48 34.8737 215.98 33.1929C215.769 33.2501 215.572 33.3486 215.4 33.4828C215.279 33.6112 215.131 33.7103 214.965 33.7726C214.855 33.744 214.738 33.744 214.627 33.7726C213.176 35.0503 211.879 36.493 210.763 38.0716C208.971 40.563 207.357 43.178 205.933 45.8969C204.104 49.203 202.491 52.6235 201.102 56.1373C199.565 59.8405 198.415 63.6932 197.673 67.6336C196.914 71.3993 196.654 75.2483 196.9 79.0817C197.073 82.7515 198.116 86.3276 199.943 89.5153V89.3704Z" fill="#FFEFDB"/>
<path d="M229.552 94.4906C229.552 94.2008 229.552 93.1381 229.793 91.2543C230.035 89.3704 230.228 86.9552 230.566 84.0087L231.725 74.3479C232.16 70.6768 232.643 66.9091 233.175 62.9965C233.706 59.0839 234.479 54.9298 235.203 50.9688C235.928 47.0079 236.556 43.4817 237.135 40.342C237.715 37.2022 238.246 34.6421 238.633 32.6617C238.774 31.5692 239.05 30.4984 239.454 29.4736C239.364 29.3557 239.315 29.2114 239.315 29.063C239.315 28.9146 239.364 28.7704 239.454 28.6524C239.708 28.4626 240.008 28.3457 240.324 28.3143H241.628C242.128 28.2617 242.617 28.1313 243.077 27.9279C243.077 27.9279 243.705 27.5897 244.478 27.5414L247.086 27.2516C247.804 27.0699 248.501 26.8108 249.163 26.4788C249.484 26.3135 249.84 26.2273 250.202 26.2273C250.563 26.2273 250.919 26.3135 251.24 26.4788C251.53 26.4788 251.772 27.5897 252.013 29.1838C252.255 30.7778 252.448 32.5651 252.593 34.4972C252.738 36.4294 252.931 38.3615 253.076 40.1971C253.221 42.0326 253.076 43.2402 253.366 43.8199C253.305 44.4786 253.305 45.1416 253.366 45.8003C253.366 46.8147 253.704 48.0223 253.897 49.4714C254.09 50.9205 254.332 52.4663 254.621 54.3018C254.911 56.1373 255.153 57.7314 255.394 59.4703C256.071 63.6245 256.795 68.165 257.616 73.1403C257.616 73.1403 257.616 72.2225 257.858 70.7734C258.099 69.3243 258.293 67.4888 258.679 65.1702C259.017 61.161 259.5 57.0068 260.176 52.7078C260.853 48.4087 261.529 44.4478 262.302 40.825C263.075 37.2022 263.992 32.5167 264.959 28.4592C264.959 27.9279 265.393 27.7347 265.876 27.8313C266.398 27.9706 266.948 27.9706 267.47 27.8313H268.436C268.978 27.7151 269.537 27.7151 270.079 27.8313C270.754 27.8701 271.432 27.8701 272.107 27.8313L274.426 27.3965C274.741 27.389 275.048 27.4915 275.296 27.6864C275.501 27.7934 275.681 27.9414 275.827 28.1211C275.886 28.3426 275.886 28.5758 275.827 28.7973C275.617 30.0432 275.311 31.2706 274.909 32.4684C274.385 34.0493 273.965 35.6629 273.653 37.2988C273.074 40.342 272.446 43.8682 271.769 47.7808C271.093 51.6934 270.465 55.7992 269.837 59.9534C269.209 64.1075 268.581 68.2616 267.953 72.3192C267.325 76.3767 267.567 79.3232 267.084 82.6079C266.601 85.8926 266.311 88.7908 266.069 91.0611C265.828 93.3314 265.635 94.7322 265.635 95.3601C265.595 95.6249 265.477 95.8719 265.296 96.0696C265.116 96.2674 264.88 96.4072 264.62 96.4711C264.186 96.6253 263.729 96.7069 263.268 96.7126H259.114C258.342 96.7636 257.567 96.7636 256.795 96.7126C256.071 96.7126 255.636 96.4228 255.588 96.1813C255.539 95.9398 255.201 95.6983 254.573 95.7466H253.076C252.81 95.8425 252.52 95.8425 252.255 95.7466C251.97 95.4472 251.711 95.1239 251.482 94.7805C251.482 94.4584 251.289 93.6373 250.902 92.317C250.902 91.0611 250.322 89.4671 249.984 87.4866C249.646 85.5061 249.308 83.5257 248.97 81.2071L247.811 74.2996L244.912 55.8475C244.912 56.3306 244.574 57.345 244.236 58.9873C243.898 60.6296 243.512 62.5618 243.125 64.7838C242.739 67.0057 242.352 69.6141 241.918 72.0776C241.483 74.5411 241.145 77.2945 240.855 79.758C240.565 82.2215 240.468 83.3807 240.372 85.0714C240.275 86.762 240.372 88.2111 240.082 89.5153C239.792 90.8196 240.082 91.8339 240.082 92.7034C240.082 93.5729 240.082 94.0076 240.082 94.1525C240.053 94.3446 240.053 94.5401 240.082 94.7322C240.082 94.9737 240.082 95.2152 239.84 95.4084C239.73 95.6419 239.543 95.8298 239.309 95.9398C239.167 96.0119 239.01 96.0495 238.85 96.0495C238.691 96.0495 238.534 96.0119 238.391 95.9398C237.962 96.119 237.504 96.2173 237.039 96.2296H235.107H232.498C231.961 96.3801 231.393 96.3801 230.856 96.2296C230.527 96.1287 230.247 95.9105 230.069 95.6166C229.891 95.3227 229.827 94.9735 229.89 94.6355L229.552 94.4906Z" fill="#FFEFDB"/>
<path d="M288.193 27.8795H289.593C290.364 27.7921 291.124 27.6303 291.864 27.3965C292.984 26.924 294.176 26.6463 295.39 26.5754C297.08 26.5754 299.109 26.2372 301.428 26.1406H308.867C311.523 26.1406 314.035 26.1406 316.45 26.1406C318.865 26.1406 321.281 26.1406 323.02 26.4304C324.477 26.5064 325.929 26.6677 327.367 26.9135C327.404 27.1536 327.404 27.3979 327.367 27.638C327.404 28.0559 327.404 28.4761 327.367 28.8939C327.367 29.377 327.367 30.0532 327.029 30.9227L326.594 32.9998C326.594 33.4828 326.594 33.8692 326.304 34.1108C326.346 34.318 326.346 34.5315 326.304 34.7387C326.211 34.9825 326.08 35.2106 325.918 35.415C325.918 35.415 325.918 35.415 325.918 35.7531C325.943 36.0101 325.943 36.269 325.918 36.526C325.898 36.8799 325.898 37.2347 325.918 37.5886V37.9751C325.94 38.1191 325.94 38.2658 325.918 38.4098C325.918 38.4098 325.918 38.4098 325.918 38.7962H325.338C325.327 38.9087 325.327 39.0219 325.338 39.1344L325 39.6657C324.506 39.8469 323.98 39.929 323.454 39.9072H318.865L308.915 39.1344H303.36H300.752C300.355 39.0362 299.94 39.0362 299.544 39.1344C299.544 39.1344 299.544 40.0038 299.254 41.308C298.964 42.6123 298.819 44.0614 298.578 45.6071L297.564 51.79H302.152C302.971 51.8817 303.797 51.8817 304.616 51.79H311.572C312.358 51.777 313.141 51.8912 313.89 52.1281C315.243 52.4662 316.016 52.7561 316.209 53.0942C316.372 53.3034 316.473 53.5547 316.499 53.8188C316.415 54.1026 316.415 54.4044 316.499 54.6882C316.499 55.123 316.499 55.606 316.499 56.1856C316.451 56.7159 316.451 57.2494 316.499 57.7797V58.7941C316.482 59.1272 316.364 59.4473 316.16 59.7118L315.484 60.4847C315.484 60.4847 315.194 60.4847 315.146 61.016C315.121 61.3698 315.121 61.7249 315.146 62.0787C315.099 62.7097 314.952 63.3292 314.711 63.9143C314.545 64.3055 314.27 64.6409 313.919 64.8806C313.568 65.1204 313.156 65.2544 312.731 65.2668C312.037 65.4549 311.324 65.5682 310.606 65.6049H307.079H299.109C298.112 65.5456 297.112 65.5456 296.114 65.6049C295.293 65.6049 294.858 65.6049 294.81 65.9913C294.5 66.959 294.242 67.9426 294.037 68.9379C293.699 70.5802 293.264 72.3191 292.83 74.1547L291.091 81.4486H291.719H294.327C295.341 81.4486 296.356 81.4486 297.467 81.4486H300.317C301.387 81.6274 302.469 81.7243 303.553 81.7384L307.852 82.0282H311.717H313.745C313.987 82.0282 313.745 82.0282 313.745 82.7528C313.448 83.1467 313.264 83.6144 313.214 84.1053C313.214 84.4434 313.214 85.1197 313.214 86.0858C313.114 86.9467 312.903 87.791 312.586 88.5976C312.42 89.0535 312.291 89.522 312.2 89.9984C312.099 90.5043 311.97 91.0042 311.813 91.4958C311.512 91.9739 311.345 92.5247 311.33 93.0898C311.343 93.5814 311.164 94.0588 310.83 94.4198C310.496 94.7808 310.034 94.9969 309.543 95.022C308.373 95.181 307.187 95.181 306.017 95.022H300.462H294.907H288.965C286.393 94.8156 283.809 94.8156 281.237 95.022H277.614C277.344 95.0895 277.062 95.0895 276.793 95.022L276.261 94.6355C276.09 94.4347 276.003 94.1747 276.02 93.911C276.02 93.911 276.02 93.5246 276.02 93.3313C275.784 93.15 275.496 93.0485 275.199 93.0415C275.199 93.0415 274.957 93.0415 274.812 92.317C274.647 91.7655 274.647 91.1778 274.812 90.6263C274.994 90.3904 275.095 90.1027 275.102 89.8051V89.0323C275.071 88.9639 275.056 88.8899 275.056 88.8149C275.056 88.74 275.071 88.6659 275.102 88.5976C275.102 88.5976 275.392 88.2111 275.392 87.7281C275.972 85.4578 276.6 82.8977 277.228 79.7097C277.855 76.5216 278.483 73.3335 279.16 70.0489C279.691 67.7786 280.222 65.2185 280.802 63.0448C281.382 60.8711 281.865 58.2144 282.348 55.7992L283.507 48.8918C283.841 46.6795 284.292 44.4865 284.86 42.3224C285.101 40.0521 285.391 37.9751 285.632 36.0912C285.874 34.2074 286.164 32.565 286.454 31.2608C286.605 30.212 286.898 29.1884 287.323 28.2177C287.42 28.1211 287.806 27.8312 288.193 27.8795Z" fill="#FFEFDB"/>
<path d="M348.814 72.0778C348.814 72.0778 348.524 72.5608 348.138 73.1887L346.93 75.3141C346.447 76.0387 345.964 76.8115 345.53 77.5844L344.419 79.3233C344.08 79.8547 343.549 80.7241 342.825 81.98C342.1 83.236 341.375 84.4919 340.651 85.7961C339.926 87.1003 339.202 88.4045 338.574 89.5638C338.127 90.2846 337.786 91.0653 337.559 91.8823C337.274 92.6264 336.884 93.3259 336.4 93.9594C335.82 94.684 335.434 95.0704 335.144 95.0704C334.763 94.9782 334.366 94.9782 333.985 95.0704C333.504 95.003 333.016 95.003 332.536 95.0704C331.993 95.0893 331.456 95.1869 330.942 95.3602C330.444 95.419 329.942 95.419 329.444 95.3602C329.349 95.2225 329.217 95.1137 329.064 95.0455C328.91 94.9774 328.741 94.9526 328.575 94.9738C327.685 95.1564 326.812 95.415 325.966 95.7467C325.197 95.8457 324.418 95.8457 323.648 95.7467C323.275 95.7429 322.909 95.6431 322.585 95.4569C322.448 95.376 322.344 95.2494 322.29 95.0991C322.237 94.9489 322.239 94.7848 322.295 94.6357C322.295 94.6357 322.295 94.2975 322.295 93.7662C322.416 93.5002 322.579 93.2555 322.778 93.0417C323.097 92.2294 323.468 91.4387 323.889 90.6747C324.295 89.7983 324.747 88.9437 325.242 88.1146C325.773 87.1486 326.449 86.1342 327.174 84.9749C327.899 83.8156 329.106 82.1733 330.121 80.5309L333.26 75.7005L336.4 70.8702C337.414 69.1795 338.429 67.6338 339.347 66.0398L340.941 63.3347C341.472 62.4653 341.907 61.6924 342.341 61.0645L343.646 58.9391L342.873 56.9586C342.39 55.7027 341.762 54.157 340.989 52.1282C340.216 50.0995 339.395 48.2156 338.525 45.9936C337.656 43.7717 336.835 41.598 336.062 39.4726C335.255 36.6044 334 33.8819 332.343 31.4059C332.004 30.9711 331.908 30.7296 332.004 30.5847C332.101 30.4398 332.004 30.15 331.763 29.7152C331.775 29.3723 331.912 29.0457 332.149 28.7975L332.536 28.5076C332.819 27.9673 333.28 27.5409 333.84 27.3L334.951 26.817C335.004 26.7944 335.062 26.7828 335.12 26.7828C335.178 26.7828 335.236 26.7944 335.289 26.817C335.289 26.817 335.627 26.817 336.062 26.817L338.767 25.8026L340.216 25.4645C340.471 25.4111 340.734 25.4111 340.989 25.4645H341.617H343.452C343.839 25.4645 344.37 26.0441 344.998 26.9619C345.668 28.0908 346.249 29.2697 346.737 30.4881C347.51 32.4203 348.379 34.4007 349.297 36.5261C350.215 38.6515 351.519 41.8395 352.775 44.931C353.405 43.6944 354.115 42.5004 354.9 41.3565C355.867 39.8591 356.978 38.3133 358.137 36.5261L361.615 31.6957L364.368 27.8314C364.666 27.466 365.026 27.1555 365.431 26.9136C365.88 26.6256 366.348 26.3674 366.832 26.1408C367.363 25.8509 367.991 25.6094 368.667 25.3196H369.875H371.662H373.932H375.14H376.347H377.7C378.231 25.3196 378.521 25.8026 378.473 26.1408C378.442 26.427 378.324 26.6969 378.135 26.9136V27.5416C378.131 27.7964 378.027 28.0395 377.845 28.2178L376.203 30.2466C375.285 31.4059 374.27 32.9033 373.111 34.6905C371.952 36.4778 369.971 38.9413 368.281 41.4531L363.45 48.5538C361.953 50.7274 360.697 52.6113 359.731 54.2053C358.765 55.7993 358.233 56.5722 358.233 56.6205C358.094 56.7323 357.98 56.8715 357.897 57.0293C357.814 57.1872 357.764 57.3604 357.75 57.5383C357.725 57.5823 357.712 57.6323 357.712 57.6832C357.712 57.7341 357.725 57.784 357.75 57.8281C357.75 57.8281 358.04 58.3594 358.475 59.2772C358.91 60.195 359.441 61.3543 360.021 62.8034C360.6 64.2525 361.325 65.8949 362.098 67.6338L364.706 73.382C365.025 74.3267 365.413 75.247 365.866 76.1353C366.3 76.9564 366.735 77.7776 367.218 78.5505C368.125 79.9492 368.948 81.4009 369.681 82.8978C370.281 84.0744 370.813 85.2839 371.276 86.5206C371.759 87.7282 372.145 88.8875 372.483 89.9502C372.627 90.1874 372.725 90.4496 372.773 90.7231C372.811 90.9954 372.811 91.2718 372.773 91.5442V91.9307C372.817 92.0557 372.817 92.1921 372.773 92.3171C372.773 92.6069 372.773 92.7035 372.29 92.7035H370.696L369.44 93.3315C369.015 93.5244 368.554 93.6233 368.087 93.6213C367.55 93.767 366.983 93.767 366.445 93.6213H365.093C364.373 93.6769 363.661 93.8064 362.967 94.0077C362.279 94.1616 361.624 94.4398 361.035 94.8289C360.552 94.8289 360.262 95.1187 360.117 94.8289C359.972 94.5391 359.779 94.5391 359.441 94.056C359.21 93.9261 358.998 93.7634 358.813 93.573C358.459 92.9991 358.228 92.3574 358.137 91.6891C358.137 91.2061 357.799 90.6265 357.509 89.9019C357.219 89.1773 356.978 88.4045 356.639 87.6316C356.301 86.8588 355.963 86.1342 355.577 85.4096C355.283 84.7895 354.944 84.1921 354.562 83.6224C354.257 82.6572 353.835 81.7326 353.306 80.8691C352.797 80.0768 352.407 79.2143 352.147 78.309C351.857 77.7776 351.568 77.1014 351.133 76.3285C350.698 75.5556 350.408 74.7345 350.07 73.9133L348.814 72.0778Z" fill="#FFEFDB"/>
<path d="M423.396 30.1017C423.944 30.3271 424.137 30.5203 423.976 30.6813C423.849 30.7087 423.717 30.7087 423.59 30.6813V30.9711C423.816 31.107 423.994 31.3108 424.098 31.5536C424.202 31.7964 424.227 32.0659 424.169 32.3236C424.169 32.855 423.831 33.2414 423.734 33.5795C423.454 34.1839 423.322 34.8461 423.348 35.5117C423.348 35.8015 423.203 36.2846 422.913 36.9608C422.921 37.1426 422.869 37.3218 422.764 37.4704C422.659 37.6191 422.508 37.7287 422.334 37.782H421.802C421.802 37.782 421.802 39.0862 422.237 41.0666C422.672 43.0471 422.672 45.5589 422.913 48.5538C423.155 51.5486 423.445 54.8333 423.734 58.2145C424.024 61.5958 424.218 65.4118 424.411 68.938C424.604 72.4642 424.411 75.0726 424.652 78.0191C424.894 80.9657 424.652 83.5258 424.652 85.7478C424.652 87.9697 424.652 89.757 424.652 91.1578C424.629 91.9035 424.548 92.6464 424.411 93.3798C424.433 94.1703 424.301 94.9576 424.024 95.6984C423.783 95.6984 423.638 96.0365 423.493 96.0365H422.237C421.609 96.0365 421.223 96.0365 421.029 96.0365H420.353C419.672 95.9581 418.995 95.8452 418.324 95.6984C417.617 95.6496 416.907 95.6496 416.199 95.6984H414.025L411.658 95.9882C411.031 95.9882 410.692 95.9882 410.596 95.9882C410.406 95.7163 410.29 95.4003 410.258 95.0704C410 94.7918 409.803 94.4629 409.678 94.1043C409.727 93.8979 409.727 93.6828 409.678 93.4764V92.945C409.66 92.591 409.66 92.2363 409.678 91.8823C409.635 91.7078 409.635 91.5255 409.678 91.351V89.2739H406.2H402.819H399.244C398.458 89.187 397.664 89.187 396.878 89.2739H395.235H393.834C393.682 89.2533 393.527 89.2852 393.396 89.3642C393.264 89.4432 393.163 89.5647 393.11 89.7087C393.11 89.9985 392.772 90.7231 392.434 91.8341L391.95 93.4281L391.564 94.6357C391.428 94.9947 391.331 95.3671 391.274 95.7467C391.115 95.8681 390.919 95.9339 390.719 95.9339C390.518 95.9339 390.323 95.8681 390.163 95.7467C389.417 95.4582 388.639 95.2635 387.845 95.167C386.928 95.2291 386.008 95.2291 385.091 95.167C384.07 94.9925 383.036 94.9117 382 94.9255C381.437 94.8761 380.872 94.8761 380.309 94.9255C378.91 94.9293 378.91 94.9293 377.509 94.9293C377.169 94.9255 377.025 94.9255 377.073 94.9255C377.12 94.8447 377.144 94.7531 377.144 94.6598C377.144 94.5666 377.12 94.4749 377.073 94.3942C376.848 94.1067 376.744 93.7428 376.783 93.3798C376.76 93.1873 376.76 92.9926 376.783 92.8001C376.783 92.8001 377.073 91.6891 377.653 89.6604C378.232 87.6316 378.957 84.83 379.923 81.8351C380.889 78.8403 381.952 75.0243 383.111 71.0634C384.27 67.1024 385.478 62.9966 386.685 58.8908C387.893 54.785 388.762 51.6452 389.728 48.1673C390.695 44.6894 391.516 41.5497 392.24 38.748C392.965 35.9464 393.545 33.6278 393.979 31.7923C394.29 30.7003 394.516 29.586 394.656 28.4593C394.897 27.5416 395.187 27.0585 395.428 27.0585H399.341C399.341 27.0585 399.341 27.0585 399.341 26.7687C400.604 26.5719 401.879 26.459 403.157 26.4306H407.311C408.239 26.2856 409.184 26.2856 410.113 26.4306L413.494 27.0102C413.798 27.0552 414.108 27.0552 414.412 27.0102C415.178 27.1029 415.936 27.2481 416.682 27.4449L418.759 27.8797L420.595 28.1212H422.285C422.623 28.1212 422.768 28.1212 422.768 28.5076C422.797 28.6185 422.797 28.7349 422.768 28.8457V29.3288L423.348 29.6186L423.396 30.1017ZM431.173 20.8273C431.405 21.3649 431.552 21.9353 431.608 22.5179C431.748 23.3169 431.748 24.1342 431.608 24.9331C431.382 25.9408 430.99 26.9039 430.449 27.7831C429.771 28.921 428.867 29.9075 427.792 30.6813C427.308 31.1367 426.791 31.5564 426.246 31.9372C424.426 33.2318 422.401 34.2115 420.257 34.8354C418.916 35.1876 417.536 35.3662 416.151 35.3668C415.095 35.3612 414.043 35.2479 413.011 35.0287C411.743 34.7372 410.523 34.2654 409.388 33.6278C407.997 32.849 406.714 31.8908 405.572 30.7779C404.147 29.3312 402.913 27.7079 401.901 25.9475H401.611C400.892 24.7973 400.049 23.7283 399.099 22.7595C398.261 21.9192 397.32 21.1887 396.298 20.5858C395.294 19.9237 394.119 19.5709 392.917 19.5714C392.565 19.5059 392.205 19.5059 391.854 19.5714L390.84 19.9578C389.556 20.4412 388.325 21.0563 387.168 21.7934C386.416 22.3343 385.721 22.9492 385.091 23.6289C384.68 24.0562 384.338 24.5452 384.077 25.078L383.835 25.7543C383.523 26.5214 383.359 27.3411 383.352 28.1695C383.363 28.9102 383.494 29.6442 383.739 30.3432C384.085 31.1598 384.634 31.8747 385.333 32.4202L386.492 33.338L387.651 34.2075C388.167 35.0448 388.263 35.6244 387.941 35.9464C387.753 36.3195 387.47 36.6361 387.12 36.8642C386.953 37.0103 386.738 37.0908 386.516 37.0908C386.294 37.0908 386.08 37.0103 385.913 36.8642L385.043 36.5261C384.398 36.2133 383.784 35.8414 383.208 35.4151C382.447 34.885 381.75 34.2691 381.13 33.5795C380.485 32.8623 380.022 32.001 379.778 31.0677C379.625 30.2704 379.528 29.4634 379.488 28.6525C379.48 27.689 379.61 26.7293 379.875 25.8026C380.17 24.7107 380.625 23.6688 381.227 22.7112C382.037 21.4877 383.012 20.3823 384.125 19.4265C385.282 18.3073 386.643 17.4216 388.135 16.8181C389.678 16.2361 391.315 15.9414 392.965 15.9486C394.475 15.9495 395.97 16.2584 397.357 16.8564C398.744 17.4544 399.994 18.3289 401.032 19.4265C401.97 20.309 402.857 21.2444 403.688 22.2281L405.427 24.4018C405.988 24.8898 406.49 25.4409 406.925 26.0441C407.313 26.6255 407.785 27.1464 408.326 27.5899C409.641 28.5213 411.049 29.3145 412.528 29.9567C413.783 30.4827 415.128 30.7615 416.489 30.7779C419.329 30.5513 422.053 29.5487 424.362 27.8797C424.971 27.3605 425.521 26.7776 426.005 26.1407C426.351 25.6575 426.673 25.1578 426.971 24.6433C427.301 24.1428 427.576 23.6084 427.792 23.0493C427.91 22.7048 427.91 22.331 427.792 21.9866C426.69 21.1836 425.335 20.8062 423.976 20.9239C422.907 20.9287 421.84 21.0257 420.788 21.2137C419.728 21.3932 418.68 21.6351 417.648 21.9383L415.136 22.8561L413.832 23.484C413.432 23.5435 413.025 23.5435 412.625 23.484H411.61C411.454 23.4876 411.3 23.4491 411.164 23.3726C411.028 23.2961 410.915 23.1844 410.837 23.0493C410.668 22.8316 410.537 22.5865 410.451 22.3247C410.411 22.0039 410.411 21.6794 410.451 21.3586C410.419 20.9842 410.488 20.6081 410.649 20.2687C410.81 19.9293 411.059 19.6387 411.369 19.4265C412.002 19.0238 412.664 18.6686 413.349 18.3638L414.847 17.8808L417.6 17.0596L420.74 16.3834C421.663 16.2033 422.601 16.1062 423.541 16.0935C424.704 16.0528 425.865 16.2163 426.971 16.5766C427.766 16.8371 428.503 17.2469 429.144 17.7842C429.678 18.1876 430.122 18.6975 430.449 19.2816C430.745 19.7696 430.987 20.2877 431.173 20.8273ZM407.649 76.0387C407.649 71.4337 407.504 67.4245 407.215 64.011C407.215 60.6297 406.876 57.5866 406.635 54.9782C406.393 52.3697 406.104 50.1478 405.765 48.0224C405.427 45.897 405.089 44.1581 404.703 42.3225C404.703 42.3225 404.703 42.3225 404.703 42.7573C404.747 42.9805 404.747 43.2103 404.703 43.4335C404.316 45.1725 403.833 46.9114 403.35 48.747C402.867 50.5825 402.336 52.0316 401.804 54.0121C401.273 55.9926 400.645 58.0213 400.017 60.0018C399.389 61.9822 398.955 64.011 398.375 65.8949C397.795 67.7787 397.312 69.421 396.829 70.7252C396.346 72.0294 395.766 74.0582 395.235 75.5556H395.67C397.022 75.5556 398.423 75.5556 399.824 75.8454C401.138 76.0056 402.461 76.0863 403.785 76.087H407.698C407.649 76.6666 407.649 76.5217 407.649 76.0387Z" fill="#FFEFDB"/>
<path d="M466.724 26.5755C468.293 27.3967 469.574 28.6775 470.395 30.2466C471.265 31.9222 471.837 33.7365 472.085 35.6083C472.308 37.7924 472.308 39.9935 472.085 42.1776C472.085 44.5284 471.892 46.9436 471.506 49.4232C471.124 53.7227 470.495 57.9966 469.622 62.2237C468.767 66.7192 467.473 71.1199 465.758 75.3624C464.101 79.4461 461.943 83.3079 459.333 86.8587C456.896 90.2061 453.723 92.9494 450.059 94.8772C449.118 95.314 448.129 95.6382 447.112 95.8432C445.964 96.0752 444.803 96.2365 443.634 96.3263H440.446H438.466C438.215 96.4109 437.944 96.4109 437.693 96.3263H436.969C436.163 96.3452 435.366 96.1626 434.65 95.795C433.984 95.4682 433.392 95.0078 432.911 94.4424C430.568 92.5845 428.877 90.0303 428.081 87.1485C427.11 83.825 426.67 80.369 426.776 76.9081C426.85 72.9717 427.336 69.0539 428.225 65.2186C429.083 61.2598 430.23 57.369 431.655 53.5773C432.529 50.5153 433.643 47.5272 434.988 44.6411C436.272 41.8947 437.758 39.2469 439.432 36.7193C440.858 34.5205 442.474 32.4516 444.262 30.5364C445.637 29.0554 447.275 27.8433 449.093 26.9619H449.817C450.412 27.0053 451.01 27.0053 451.605 26.9619C452.377 26.9619 453.15 26.6238 453.875 26.3822H456.145C456.754 26.4622 457.371 26.4622 457.981 26.3822H459.865C460.376 26.4652 460.898 26.4652 461.41 26.3822C461.794 26.32 462.186 26.32 462.57 26.3822C463.477 26.3624 464.385 26.4434 465.275 26.6238L466.724 26.5755ZM442.572 89.3705C444.065 87.8709 445.438 86.2558 446.678 84.5401C447.789 82.8495 448.996 80.8207 450.3 78.3572C451.73 75.5686 452.91 72.6591 453.827 69.6625C455.331 65.2068 456.605 60.6763 457.643 56.0891C458.029 54.2536 458.367 52.2731 458.705 50.2444C459.043 48.2156 459.285 46.1385 459.478 44.1581C459.597 42.2278 459.597 40.2919 459.478 38.3616C459.401 36.6097 459.109 34.8738 458.609 33.1931C458.398 33.2502 458.201 33.3488 458.029 33.4829C457.908 33.6114 457.759 33.7105 457.594 33.7727H457.208C455.788 35.0677 454.509 36.5087 453.392 38.0718C451.583 40.5521 449.968 43.1683 448.561 45.897C446.733 49.2031 445.119 52.6237 443.731 56.1374C442.2 59.8472 441.035 63.6976 440.253 67.6338C439.487 71.3983 439.243 75.2506 439.529 79.0818C439.641 82.7551 440.67 86.3419 442.523 89.5154L442.572 89.3705Z" fill="#FFEFDB"/>
<path d="M212.983 114.102C213.804 114.488 214.142 114.827 213.949 115.02C213.757 115.19 213.524 115.307 213.273 115.358C213.179 115.391 213.077 115.391 212.983 115.358C212.983 115.358 212.645 115.744 212.645 115.841C213.023 116.029 213.32 116.349 213.48 116.74C213.64 117.131 213.652 117.567 213.514 117.966C213.273 118.739 213.031 119.415 212.838 119.947C212.401 120.916 212.202 121.976 212.258 123.038C212.258 123.521 212.258 124.246 211.534 125.308C211.553 125.592 211.472 125.874 211.304 126.104C211.136 126.334 210.892 126.497 210.616 126.564H209.843C209.843 126.903 210.133 128.641 210.471 131.781C210.809 134.921 211.147 138.882 211.534 143.616C211.92 148.349 212.403 153.615 212.838 159.363C213.273 165.111 213.611 170.714 213.949 176.317C214.287 181.921 214.287 185.978 214.335 190.809C214.384 195.639 214.335 199.552 214.335 203.078C214.335 206.604 214.094 209.454 213.949 211.676C213.928 212.845 213.799 214.009 213.562 215.154C213.624 216.409 213.409 217.662 212.934 218.825C212.596 219.211 212.355 219.404 212.113 219.404H210.133C209.167 219.404 208.491 219.404 208.201 219.404H207.138L203.902 218.873C202.776 218.798 201.646 218.798 200.52 218.873H197.139C195.859 218.966 194.586 219.127 193.323 219.356C192.785 219.497 192.219 219.497 191.681 219.356C191.411 218.895 191.231 218.387 191.149 217.859C190.741 217.438 190.443 216.924 190.28 216.361C190.313 216.024 190.313 215.684 190.28 215.347V214.478C190.326 213.891 190.423 213.309 190.57 212.739C190.57 212.739 190.57 212.4 190.57 211.966V208.633H185.063H179.701H174.002C172.765 208.503 171.519 208.503 170.282 208.633H167.674C166.934 208.674 166.192 208.674 165.452 208.633C164.824 208.633 164.437 208.633 164.292 209.309L163.278 212.69C162.94 213.656 162.698 214.526 162.457 215.25C162.299 215.894 162.089 216.524 161.829 217.134C161.829 217.762 161.491 218.342 161.346 218.873C161.139 219.121 160.849 219.287 160.53 219.34C160.211 219.393 159.884 219.331 159.607 219.163C158.44 218.713 157.224 218.405 155.984 218.245C154.511 218.278 153.039 218.165 151.588 217.907C149.988 217.688 148.373 217.591 146.758 217.617C145.925 217.383 145.063 217.269 144.198 217.279C142.684 217.187 141.171 217.09 139.657 216.989C139.174 216.989 138.933 216.989 139.029 216.603C139.101 216.469 139.139 216.32 139.139 216.168C139.139 216.016 139.101 215.867 139.029 215.733C138.702 215.27 138.548 214.705 138.595 214.139C138.548 213.819 138.548 213.494 138.595 213.173C138.595 213.173 139.029 211.434 139.947 208.343C140.865 205.251 142.024 201.001 143.57 195.977C145.116 190.954 146.758 185.254 148.4 178.926L154.004 159.604C155.694 153.808 157.288 148.156 158.834 142.65C160.38 137.143 161.684 132.168 162.843 127.724C164.003 123.28 164.92 119.657 165.645 116.759C166.114 115.015 166.453 113.239 166.659 111.445C167.094 109.996 167.48 109.272 167.915 109.272H174.05C174.05 109.272 174.05 108.982 174.05 108.789C174.144 108.822 174.246 108.822 174.34 108.789C176.349 108.429 178.385 108.235 180.426 108.209H186.995C188.454 108.016 189.932 108.016 191.391 108.209C192.888 108.209 194.676 108.74 196.753 109.175H198.202C198.588 109.175 199.796 109.175 201.825 109.803C202.916 110.126 204.03 110.369 205.158 110.527L207.959 110.914C208.86 110.982 209.764 110.982 210.664 110.914C211.196 110.914 211.437 110.914 211.437 111.542C211.493 111.681 211.493 111.837 211.437 111.977L211.099 112.798C211.445 112.904 211.772 113.068 212.065 113.281C212.118 113.303 212.176 113.315 212.234 113.315C212.292 113.315 212.35 113.303 212.403 113.281C212.37 113.375 212.37 113.477 212.403 113.571L212.645 113.909L212.983 114.102ZM187.865 186.848C187.865 179.602 187.43 173.274 187.188 167.864C186.947 162.454 186.609 157.624 186.222 153.373C185.836 149.122 185.401 145.548 184.87 142.408C184.339 139.268 183.759 136.273 183.131 133.424C183.131 133.182 183.131 133.424 183.131 134.052C183.169 134.421 183.169 134.793 183.131 135.162C182.503 137.867 181.73 140.669 180.909 143.519L178.445 151.876C177.576 155.015 176.658 158.203 175.692 161.536C174.726 164.869 174.002 167.913 173.084 170.859C172.166 173.806 171.393 176.414 170.669 178.733C169.944 181.051 168.978 183.998 168.108 186.316H168.736C170.958 186.316 173.18 186.703 175.402 186.799C177.624 186.896 179.363 187.137 181.634 187.186C183.904 187.234 185.933 187.186 187.865 187.572C187.961 187.814 188.106 187.621 187.865 186.848Z" fill="#FFEFDB"/>
<path d="M218.829 184.964C218.786 184.643 218.786 184.318 218.829 183.998C218.948 183.677 219.134 183.386 219.376 183.144C219.618 182.902 219.909 182.715 220.23 182.597H224.529H232.016C234.045 182.597 236.219 182.597 238.392 182.983C239.793 182.983 240.421 182.983 240.324 183.708C240.257 183.909 240.249 184.125 240.3 184.33C240.352 184.535 240.461 184.722 240.614 184.867C240.614 184.867 240.904 186.316 241.484 188.587C242.063 190.857 242.836 193.417 243.754 196.412C244.672 199.407 245.783 202.257 246.99 205.155C247.86 207.476 249.118 209.632 250.71 211.531C251.064 211.789 252.223 211.354 254.188 210.227C256.661 208.804 259.019 207.188 261.24 205.396C264.193 202.881 266.909 200.1 269.355 197.088C272.162 193.662 274.471 189.857 276.214 185.785C278.08 181.435 279.176 176.793 279.451 172.067C279.708 166.716 278.733 161.378 276.601 156.465C276.507 156.498 276.405 156.498 276.311 156.465C276.17 156.512 276.017 156.512 275.876 156.465C275.876 156.465 275.586 156.465 275.49 156.803L272.108 158.976C270.176 160.281 267.954 161.633 265.539 163.082C263.124 164.531 260.709 165.932 258.39 167.14C256.765 168.104 254.954 168.713 253.077 168.927C251.864 168.978 250.655 169.091 249.454 169.265C247.771 169.463 246.077 169.56 244.382 169.555C243.095 169.266 241.786 169.088 240.469 169.024H236.653H227.669C227.007 169.048 226.353 168.88 225.785 168.541C224.574 168.161 223.489 167.46 222.645 166.512C221.427 164.744 220.664 162.704 220.423 160.57C220.258 158.277 220.744 155.983 221.824 153.953C223.488 150.907 225.463 148.042 227.717 145.403C230.422 141.973 234.045 137.819 238.537 132.844C240.131 131.202 242.401 129.028 245.348 126.371L254.043 118.643C257.263 115.68 260.837 112.637 264.766 109.513C265.137 109.134 265.56 108.809 266.022 108.547C266.668 108.296 267.33 108.086 268.003 107.919C269.064 107.676 270.15 107.563 271.239 107.581H288.435C290.565 107.664 292.613 108.426 294.28 109.755C296.178 111.048 297.817 112.687 299.11 114.585C299.34 115.78 299.469 116.992 299.497 118.208C299.497 119.464 299.497 120.575 299.497 121.493C299.493 123.743 299.201 125.983 298.627 128.159C298.105 130.173 297.427 132.143 296.598 134.052C295.777 135.791 295.053 137.288 294.377 138.496C293.7 139.703 293.266 140.331 293.169 140.476C293.075 140.443 292.973 140.443 292.879 140.476C292.778 140.839 292.778 141.224 292.879 141.587C292.879 141.877 292.782 142.022 292.589 142.022C292.589 142.022 292.251 142.022 292.251 141.587C292.251 141.152 291.382 140.814 290.947 141.201C290.512 141.587 290.222 141.877 290.222 142.215H288.966C288.66 142.259 288.374 142.393 288.145 142.601C287.846 142.848 287.471 142.985 287.083 142.988C286.649 142.935 286.212 142.935 285.778 142.988C285.591 143.108 285.373 143.173 285.15 143.173C284.928 143.173 284.71 143.108 284.522 142.988C283.551 142.422 282.489 142.029 281.383 141.829C279.852 141.455 278.241 141.591 276.794 142.215C276.424 142.391 276.02 142.482 275.61 142.482C275.201 142.482 274.797 142.391 274.427 142.215C273.673 141.873 272.986 141.398 272.398 140.814C271.851 140.492 271.561 139.671 271.529 138.351C271.445 137.266 271.526 136.175 271.77 135.114C272.688 133.52 273.509 132.119 274.185 130.864C274.991 129.228 275.498 127.461 275.683 125.647C275.683 125.309 275.055 125.647 273.702 126.516C272.03 127.724 270.418 129.014 268.872 130.38C266.795 132.071 264.525 134.1 262.013 136.467C259.501 138.834 257.183 141.297 254.816 143.809C252.604 146.249 250.555 148.83 248.681 151.538C247.032 153.75 245.714 156.191 244.768 158.783L245.879 158.155C246.666 157.399 247.524 156.72 248.439 156.126C250.28 154.773 252.199 153.531 254.188 152.407C256.617 151.016 259.152 149.821 261.771 148.833C264.413 147.839 267.209 147.315 270.031 147.287L283.943 148.06C286.857 148.131 289.736 148.72 292.444 149.799C296.035 151.157 298.972 153.835 300.656 157.286C302.934 162.526 303.816 168.268 303.216 173.951C302.796 178.436 301.756 182.842 300.125 187.041C298.322 191.815 295.814 196.293 292.686 200.325C289.35 204.663 285.395 208.487 280.948 211.676C276.145 215.128 270.738 217.651 265.008 219.115C263.895 219.551 262.722 219.811 261.53 219.888C259.924 220.045 258.306 220.045 256.699 219.888C254.19 219.707 251.691 219.4 249.212 218.97C248.235 218.706 247.23 218.56 246.218 218.535C245.058 218.535 243.899 218.535 242.74 218.535C241.58 218.535 240.179 218.535 238.779 218.535C235.95 218.29 233.315 216.998 231.388 214.912C228.674 212.102 226.482 208.831 224.915 205.252C222.05 198.769 220.005 191.953 218.829 184.964Z" fill="#FFEFDB"/>
<path d="M357.268 107.291C366.929 107.645 373.788 107.983 377.845 108.305C381.903 108.692 383.932 109.03 383.932 109.368L383.642 109.851C383.4 110.141 383.207 110.286 383.014 110.286C382.892 110.446 382.827 110.641 382.827 110.841C382.827 111.042 382.892 111.237 383.014 111.397L383.352 112.025C383.642 112.363 383.69 113.571 383.352 115.744C383.154 117.939 382.616 120.09 381.758 122.12C381.758 124.053 381.758 125.792 381.758 127.337C381.758 128.931 381.758 130.235 381.468 131.298C381.178 132.361 381.178 131.781 380.647 131.781H379.874C378.474 131.481 377.053 131.287 375.623 131.202C374.464 131.202 373.256 131.202 372.049 131.202H367.943C366.446 131.202 364.465 131.202 362.05 131.202H357.992C357.124 131.155 356.253 131.155 355.384 131.202H353.5C352.872 131.202 352.341 131.974 351.858 133.424C351.267 135.343 350.783 137.295 350.409 139.268C349.974 141.684 349.491 144.533 349.008 147.77C348.525 151.006 347.945 154.436 347.172 157.914C346.158 163.275 345.047 168.83 343.888 174.627C342.728 180.423 341.617 185.882 340.555 191.05C339.492 196.219 338.574 200.711 337.801 205.01C337.028 209.309 336.449 212.352 336.159 214.671C335.987 214.989 335.793 215.296 335.579 215.588C335.433 215.803 335.303 216.029 335.193 216.265C335.193 216.265 334.903 216.603 334.903 216.699C334.662 217.569 334.42 218.052 334.179 218.197C333.942 218.268 333.69 218.268 333.454 218.197C332.911 218.178 332.374 218.08 331.86 217.907C331.417 217.712 330.943 217.597 330.459 217.569C330.185 217.689 329.889 217.75 329.59 217.75C329.29 217.75 328.994 217.689 328.72 217.569C328.094 217.498 327.462 217.498 326.836 217.569C326.407 217.395 325.947 217.313 325.484 217.327H319.494C318.383 217.327 317.465 217.327 316.741 217.569C315.569 217.872 314.339 217.872 313.166 217.569C312.792 217.263 312.535 216.836 312.442 216.361C312.272 215.94 312.143 215.503 312.055 215.057C312.032 214.703 312.032 214.348 312.055 213.994C311.993 213.692 311.993 213.379 312.055 213.077C311.995 211.793 312.126 210.507 312.442 209.261C312.828 207.377 313.263 205.251 313.794 202.981C314.326 200.711 314.905 198.151 315.533 195.832C316.161 193.514 316.741 191.34 317.272 189.553C318.093 186.075 318.866 182.452 319.542 178.636C320.219 174.82 320.847 171.004 321.378 167.14C321.909 163.275 322.875 159.266 323.359 155.595C323.842 151.924 324.228 148.591 324.518 145.644C324.808 142.698 325.242 138.978 325.484 135.984C325.457 135.614 325.457 135.242 325.484 134.873C325.58 134.346 325.58 133.806 325.484 133.279C325.453 133.045 325.373 132.82 325.248 132.62C325.123 132.42 324.956 132.249 324.759 132.119C324.421 131.829 323.745 132.119 322.779 132.119C321.41 132.421 319.993 132.421 318.625 132.119C316.644 132.119 314.712 132.119 312.683 132.119C311.5 132.053 310.383 131.555 309.544 130.718C309.398 130.609 309.288 130.459 309.227 130.287C309.167 130.115 309.159 129.929 309.205 129.752C309.432 128.554 309.593 127.345 309.688 126.13C309.688 125.115 309.689 124.053 309.93 122.99C310.172 121.927 309.93 121.009 309.93 120.14C309.785 118.533 309.785 116.916 309.93 115.31C310.004 114.078 310.149 112.853 310.365 111.638C310.582 110.585 310.744 109.521 310.848 108.45H311.476C312.036 108.215 312.619 108.037 313.215 107.919H314.471C316.306 107.629 318.721 107.339 321.764 107.146L332.101 106.567C335.918 106.567 340.023 106.567 344.322 106.277L357.268 107.291Z" fill="#FFEFDB"/>
<path d="M431.125 107.436C434.847 107.996 438.387 109.419 441.462 111.59C443.97 113.538 445.934 116.1 447.162 119.029C448.417 122.093 449.041 125.379 448.997 128.69C448.976 132.334 448.538 135.964 447.693 139.51C446.851 143.305 445.687 147.022 444.215 150.62C442.819 154.193 441.206 157.677 439.385 161.053C437.772 164.134 435.88 167.061 433.733 169.796C431.705 172.26 429.869 174.337 428.178 176.028C426.351 177.779 424.398 179.393 422.334 180.858C423.59 186.848 424.797 192.209 425.956 196.943L427.261 202.885C427.647 204.817 428.034 206.556 428.42 208.053C428.806 209.55 429.096 210.855 429.289 211.772C429.483 212.69 429.628 213.27 429.628 213.366C429.891 213.613 430.076 213.933 430.159 214.284C430.18 214.606 430.18 214.929 430.159 215.25C430.248 215.404 430.295 215.579 430.295 215.757C430.295 215.936 430.248 216.11 430.159 216.265C429.926 216.727 429.825 217.246 429.869 217.762C429.434 218.39 428.468 218.583 426.923 218.245C425.508 217.949 424.069 217.788 422.623 217.762H410.306C409.147 218.1 408.325 217.762 407.939 216.216C407.663 215.506 407.5 214.756 407.456 213.994C406.587 209.985 405.862 206.362 405.234 203.078C404.606 199.793 404.22 197.764 403.737 195.349C403.497 193.91 403.158 192.49 402.722 191.098C402.419 191.759 402.207 192.458 402.094 193.175C401.756 194.431 401.418 195.929 401.032 197.716C400.645 199.503 400.259 201.484 399.776 203.657C399.293 205.831 398.858 207.86 398.423 209.744L397.409 214.574C397.238 215.404 397.109 216.243 397.022 217.086C397.022 217.698 396.491 217.891 395.428 217.665C393.233 217.362 391.006 217.362 388.811 217.665H383.014C382.124 218.03 381.174 218.227 380.213 218.245H377.17C376.767 218.218 376.378 218.088 376.04 217.868C375.702 217.648 375.426 217.346 375.237 216.989C375.237 216.699 375.479 215.588 375.865 213.705C376.252 211.821 376.88 209.261 377.556 206.024C378.232 202.788 379.053 199.117 379.971 194.914C380.889 190.712 381.903 186.171 382.821 181.341C384.077 175.11 385.14 168.734 385.912 162.019C386.685 155.305 387.651 149.315 388.811 143.422C390.743 134.679 392.144 127.386 393.11 121.541C393.73 118.35 394.15 115.123 394.366 111.88C394.422 111.373 394.613 110.891 394.918 110.483C395.224 110.075 395.634 109.757 396.105 109.561L398.278 108.885C398.278 108.644 398.761 108.499 399.389 108.402H401.611H404.22H406.49C407.563 108.559 408.653 108.559 409.726 108.402L412.528 107.967L415.813 107.581C417.502 107.482 419.195 107.482 420.885 107.581C421.935 107.263 423.024 107.084 424.121 107.05H427.502L431.125 107.436ZM417.89 158.59C419.874 154.791 421.616 150.87 423.106 146.852C424.603 142.797 425.624 138.583 426.15 134.293C426.652 130.391 426.439 126.43 425.522 122.603C424.659 118.829 422.59 115.437 419.629 112.943C419.629 113.377 419.339 113.571 418.518 113.571C417.696 113.571 417.793 113.232 417.552 113.571C417.377 113.734 417.273 113.959 417.262 114.199C416.392 117.58 415.619 121.058 414.895 124.632C414.17 128.207 413.397 131.153 412.673 135.114C411.948 139.075 411.127 142.988 410.306 146.852C409.485 150.716 408.905 153.518 408.326 156.513C407.746 159.508 407.263 162.502 406.828 164.966C406.393 167.429 406.104 169.506 405.862 171.197C405.621 172.888 405.572 173.95 405.572 174.337C407.035 172.963 408.407 171.494 409.678 169.941L413.639 164.869C415.197 162.875 416.617 160.777 417.89 158.59Z" fill="#FFEFDB"/>
<path d="M508.652 108.547C511.096 109.873 513.095 111.889 514.4 114.344C515.774 117.005 516.688 119.879 517.105 122.845C517.581 126.301 517.71 129.797 517.492 133.279C517.492 136.998 516.96 140.814 516.526 144.727C515.919 151.536 514.952 158.308 513.627 165.014C512.25 172.108 510.179 179.048 507.445 185.737C504.878 192.241 501.467 198.38 497.301 203.996C493.489 209.268 488.535 213.611 482.81 216.7C481.267 217.395 479.645 217.898 477.979 218.197C476.162 218.573 474.323 218.831 472.472 218.97C470.863 219.051 469.251 219.051 467.642 218.97H464.599C464.206 219.212 463.756 219.345 463.295 219.356H462.232C460.939 219.378 459.662 219.079 458.513 218.487C457.474 217.951 456.541 217.231 455.759 216.361C451.997 213.426 449.271 209.364 447.982 204.768C446.489 199.509 445.805 194.052 445.954 188.587C446.098 182.36 446.858 176.163 448.224 170.086C449.62 163.818 451.444 157.653 453.682 151.634C455.042 146.788 456.82 142.068 458.996 137.529C461.005 133.17 463.346 128.971 466 124.97C468.291 121.506 470.912 118.27 473.825 115.31C475.98 112.95 478.572 111.031 481.457 109.658H482.568C483.53 109.611 484.485 109.466 485.418 109.223C486.674 108.966 487.881 108.676 489.041 108.354H492.615C493.591 108.316 494.562 108.187 495.513 107.967H498.508C499.341 107.97 500.17 107.856 500.972 107.629C501.551 107.441 502.151 107.327 502.759 107.291C504.205 107.238 505.652 107.385 507.058 107.726C507.617 107.943 508.151 108.218 508.652 108.547ZM470.444 208.198C472.813 205.738 474.978 203.088 476.916 200.276C479.022 197.172 480.941 193.946 482.665 190.615C484.941 186.22 486.816 181.629 488.268 176.897C490.641 169.859 492.641 162.7 494.258 155.45C494.885 152.504 495.465 149.364 495.996 146.128C496.528 142.891 496.914 139.655 497.204 136.467C497.395 133.41 497.395 130.345 497.204 127.289C497.093 124.507 496.639 121.748 495.852 119.077C495.527 119.2 495.219 119.362 494.934 119.56C494.716 119.754 494.472 119.917 494.209 120.043C494.012 120.097 493.83 120.196 493.678 120.333C491.39 122.357 489.347 124.643 487.592 127.144C484.63 131.062 481.966 135.195 479.621 139.51C476.716 144.781 474.119 150.216 471.845 155.788C469.458 161.653 467.646 167.736 466.434 173.951C465.221 179.923 464.815 186.032 465.227 192.113C465.656 197.814 467.445 203.33 470.444 208.198ZM475.274 97.9685H477.689C479.296 98.1277 480.914 98.1277 482.52 97.9685L490.007 97.6787C492.774 97.5312 495.548 97.5312 498.315 97.6787H503.145C504.933 97.6787 506.623 97.6787 508.217 97.6787L513.724 97.1957C513.982 96.938 514.513 96.938 515.318 97.1957C516.31 97.3513 517.321 97.3513 518.313 97.1957C518.844 97.1957 519.086 97.4855 519.086 98.0169C519.044 98.1588 519.044 98.3096 519.086 98.4516C519.086 98.8863 519.086 99.1761 519.569 99.2727C519.761 99.4742 519.924 99.7019 520.052 99.949C520.124 100.074 520.162 100.215 520.162 100.36C520.162 100.504 520.124 100.645 520.052 100.77C519.944 100.997 519.889 101.244 519.889 101.495C519.889 101.745 519.944 101.993 520.052 102.219C520.245 102.511 520.377 102.84 520.438 103.185C520.68 103.62 520.438 103.862 519.81 103.91H517.588H513.338C512.309 103.817 511.275 103.817 510.246 103.91H504.256H498.75H495.224C494.114 103.832 493 103.832 491.891 103.91H482.23C481.347 103.81 480.456 103.81 479.573 103.91C478.425 104.145 477.264 104.306 476.095 104.393C474.694 104.393 473.922 104.393 473.728 103.91C473.535 103.427 473.197 103.282 473.149 103.33C473.1 103.379 473.149 103.33 472.762 103.33C472.376 103.33 472.086 102.171 472.376 101.881C472.598 101.605 472.732 101.268 472.762 100.915C472.934 100.384 473.232 99.9036 473.632 99.5143L474.501 98.5965L475.274 97.9685Z" fill="#FFEFDB"/>
<path d="M137.726 67.6337C137.065 68.4247 136.168 68.9833 135.166 69.2278C134.523 69.2856 133.877 69.2856 133.234 69.2278H131.253C130.336 69.2278 128.307 69.2278 125.264 68.7447L115.603 67.682L105.942 66.4744C103.93 66.2606 101.93 65.9381 99.9524 65.5084H95.122C94.7356 66.9575 94.3492 68.5515 93.9144 70.3387C93.4986 72.169 92.9825 73.9751 92.3687 75.7488C99.8558 76.9081 105.797 77.9708 110.289 78.8885C114.782 79.8063 118.211 80.5792 120.723 81.2554C122.787 81.7821 124.819 82.4273 126.809 83.1876C128.645 84.0087 129.756 84.8782 130.046 85.7477C130.397 86.707 130.577 87.7208 130.577 88.7425C130.046 88.7425 129.563 89.1773 129.176 90.0951C128.79 91.0128 127.679 91.4958 125.843 91.4958H124.829C122.891 91.0176 120.922 90.6786 118.936 90.4815L109.275 89.3222L99.6143 88.2112C96.6678 87.9214 94.7839 87.7281 94.2043 87.7281C94.0297 87.4862 93.8061 87.2838 93.5481 87.134C93.2901 86.9842 93.0035 86.8904 92.7068 86.8587H90.6298C89.5437 91.8679 88.7214 96.9306 88.1663 102.026C87.5866 107.388 86.8137 112.846 85.896 118.353V122.072C85.4129 126.275 84.8816 129.511 84.4468 131.733C84.3371 132.707 83.8519 133.6 83.0943 134.223C82.3367 134.845 81.3664 135.148 80.3893 135.066C79.7467 135.126 79.0998 135.126 78.4572 135.066C77.636 135.066 77.0564 134.341 76.6699 133.327C76.5383 133.331 76.4092 133.29 76.3038 133.211C76.1985 133.132 76.1231 133.02 76.0903 132.892C75.9425 132.741 75.8309 132.558 75.764 132.357C75.6971 132.156 75.6765 131.943 75.7038 131.733C75.7038 131.491 75.7038 130.139 75.7038 127.675C75.7038 125.212 75.7039 122.024 76.0903 118.015C76.4767 114.005 76.6216 109.223 77.153 103.813C77.6843 98.4033 78.4089 92.6068 79.3266 86.3273H56.0925C55.1747 92.6068 54.4018 97.7754 53.8222 101.833C53.2425 105.89 52.8078 109.175 52.5663 111.494C52.3264 113.288 52.1813 115.094 52.1316 116.904C52.0722 117.779 52.2211 118.657 52.5663 119.464V124.294L51.3587 125.067C51.4223 126.129 51.4223 127.193 51.3587 128.255C51.2361 129.384 51.0097 130.5 50.6824 131.588C50.4035 132.561 49.9266 133.465 49.2816 134.245C49.0143 134.589 48.6691 134.865 48.2744 135.049C47.8797 135.234 47.4468 135.323 47.0113 135.308C46.125 135.311 45.2496 135.113 44.4512 134.728C44.0651 134.52 43.749 134.203 43.5428 133.816C43.3365 133.43 43.2492 132.99 43.2919 132.554C43.2919 132.554 43.2919 131.057 43.2919 128.448C43.2919 125.84 43.2919 122.41 43.2919 118.208C43.2919 114.005 43.2919 109.127 43.8716 103.717C44.4512 98.3067 44.6927 92.4619 45.369 86.4239C39.1861 86.8104 34.0176 87.0519 29.8151 87.1968C26.318 87.2577 22.8304 87.5806 19.3815 88.1629H5.37337C4.37127 88.1825 3.38439 87.9156 2.52873 87.3936C1.67307 86.8717 0.98417 86.1163 0.542983 85.2164C0.133883 84.4281 -0.0499703 83.5422 0.0116373 82.6562C0.219723 81.5089 0.81677 80.4683 1.70227 79.7097C1.70227 79.7097 1.94379 79.7097 2.08871 79.7097C2.23362 79.7097 2.47515 79.4682 2.47515 78.9368C3.33384 78.4219 4.32467 78.1699 5.32506 78.2123H8.99617H11.5563C12.2505 78.164 12.9261 77.9663 13.5367 77.6326C14.3966 77.227 15.3396 77.0285 16.2901 77.053H19.0434C22.2762 76.9259 25.5006 76.6357 28.7042 76.1835C34.3138 75.5117 39.9611 75.2052 45.6105 75.2657C46.0987 73.6933 46.4224 72.0746 46.5766 70.4354C46.7301 68.965 47.071 67.5202 47.591 66.1363C42.4708 66.1363 37.9302 66.1363 34.3074 66.1363C31.2902 66.1072 28.2785 66.3986 25.3229 67.0058H10.7834C9.72315 66.9704 8.70407 66.5871 7.88343 65.9148C7.06279 65.2426 6.48625 64.3189 6.24285 63.2864C6.29675 62.0381 6.62668 60.8173 7.20891 59.7119C7.88516 58.4077 8.46482 57.7797 8.99617 57.7797C9.49515 56.7753 10.2915 55.9489 11.2767 55.413C12.262 54.8772 13.3885 54.6579 14.5028 54.7849L17.4493 55.7993H24.7432C27.9172 55.0718 31.1508 54.6353 34.404 54.4951C39.2344 54.2053 44.0648 54.012 49.9579 54.012C50.2921 53.5696 50.5231 53.0579 50.6341 52.5146C50.6562 52.0963 50.6562 51.677 50.6341 51.2587C52.0832 43.7716 53.001 38.0234 53.4841 33.9176C53.9671 29.8118 54.1603 26.7203 54.1603 24.2568C53.8049 24.2906 53.4464 24.2524 53.1062 24.1445C52.7659 24.0366 52.4509 23.8612 52.1799 23.6289C52.0157 23.5967 51.861 23.5278 51.7271 23.4275C51.5933 23.3271 51.4839 23.1978 51.407 23.0492C51.0205 22.0837 50.8554 21.0438 50.924 20.0061C51.1964 18.1859 51.7676 16.4233 52.6146 14.7893C52.9787 11.8813 53.9144 9.07411 55.3679 6.5293C55.3679 6.5293 55.6577 6.52929 55.9476 6.14286C55.8985 5.95277 55.8985 5.75332 55.9476 5.56322C56.2894 4.20485 56.8263 2.90321 57.5416 1.69891C57.8511 1.14869 58.3105 0.697674 58.8664 0.398374C59.4222 0.0990734 60.0516 -0.0361948 60.6813 0.00828518C61.7083 -0.0206812 62.7142 0.303238 63.5313 0.926053C64.2345 1.49195 64.8105 2.19969 65.2219 3.00312C65.5949 3.76661 65.8552 4.58013 65.9948 5.41832C66.0517 6.1095 66.0517 6.8042 65.9948 7.49539C66.141 10.1501 66.141 12.8108 65.9948 15.4655C65.9948 18.7019 65.6083 21.8899 65.2219 25.1263C64.8355 28.3627 64.4007 31.0194 64.0143 33.2897C63.85 34.5947 63.5917 35.8861 63.2414 37.154V42.8538C62.7101 44.6894 62.2271 46.5249 61.744 48.3605C61.261 50.196 60.8745 52.0316 60.4881 53.8671H84.6401C86.3531 47.256 88.5986 40.7944 91.3543 34.5456C93.7092 29.0852 96.4034 23.7775 99.4211 18.6536C99.361 17.5434 99.361 16.4308 99.4211 15.3206C99.6251 13.8217 100.225 12.4043 101.16 11.2148V9.18601C101.652 8.07634 102.056 6.9296 102.368 5.75644C102.754 4.35563 103.962 3.67937 105.894 3.67937C106.215 3.65169 106.539 3.68872 106.846 3.78827C107.153 3.88783 107.437 4.04789 107.681 4.25901C108.103 4.69578 108.49 5.16408 108.84 5.65983L109.468 6.43269C109.905 7.77118 110.07 9.18375 109.951 10.5868C109.7 13.8292 109.264 17.0546 108.647 20.2476C108.592 21.045 108.361 21.8204 107.971 22.5179C107.395 23.9501 106.974 25.4399 106.715 26.9618C106.715 27.5898 106.715 28.3144 106.715 29.0389C106.715 29.7635 106.715 30.4397 106.377 31.0677C106.039 31.6956 106.377 32.4685 105.99 33.2414V34.304H104.831C104.155 35.6082 103.43 37.154 102.657 39.1344C101.885 41.1149 101.208 42.9504 100.291 45.4623C99.2067 48.4856 98.2875 51.5654 97.5372 54.6883C105.024 55.751 112.028 56.9586 118.308 58.3594C124.158 59.5799 129.919 61.1937 135.552 63.1898C135.677 63.1456 135.814 63.1456 135.939 63.1898C136.325 63.5762 136.518 63.8177 136.518 63.9626C136.518 64.1075 136.857 63.9626 137.098 64.3491C137.054 64.4741 137.054 64.6105 137.098 64.7355L137.726 67.6337ZM81.2588 74.9276C81.2469 73.2039 81.4416 71.4849 81.8385 69.8074C82.2249 68.2617 82.6596 66.5227 83.191 64.6872H59.039C59.0415 66.4013 58.9123 68.1131 58.6526 69.8074C58.3707 71.4991 58.2414 73.2128 58.2661 74.9276H81.3071H81.2588Z" fill="#FFEFDB"/>
<path d="M183.324 270.993C186.222 269.882 188.879 268.868 191.343 267.998L197.719 265.97C199.272 265.411 200.9 265.085 202.549 265.004C204.185 265.039 205.816 264.811 207.379 264.327C207.857 264.197 208.302 263.967 208.684 263.651C215.398 262.105 223.175 260.173 231.435 257.806C258.099 250.512 271.189 251.092 312.537 245.875C341.519 242.252 364.898 239.306 388.519 235.586C401.124 236.557 413.785 236.557 426.389 235.586C430.93 235.2 437.982 234.572 446.919 234.282C453.729 234.282 459.912 233.992 465.515 234.282C471.119 234.572 475.708 234.62 479.379 234.959C481.567 235.103 483.744 235.377 485.9 235.78C487.252 236.681 487.59 237.744 486.914 238.968C486.366 239.812 486.019 240.77 485.9 241.769C485.013 242.712 484.28 243.788 483.726 244.957C483.253 245.838 482.974 246.81 482.905 247.807C482.78 248.564 482.418 249.262 481.871 249.801C481.325 250.339 480.621 250.69 479.862 250.802H464.839C464.163 250.802 461.651 251.092 457.304 251.623C452.956 252.155 448.561 252.928 444.117 253.797C440.413 253.744 436.711 254.019 433.055 254.618C430.736 255.003 428.489 255.736 426.389 256.792C424.119 257.903 367.555 264.907 365.671 264.907C363.926 264.916 362.187 264.688 360.503 264.231L356.494 263.071C356.07 262.873 355.609 262.77 355.141 262.77C354.674 262.77 354.212 262.873 353.789 263.071C352.678 263.748 236.748 275.051 233.947 275.485C231.021 275.983 228.07 276.322 225.107 276.5C221.967 276.5 219.021 276.838 216.219 276.838H210.085C207.558 276.852 205.037 277.078 202.549 277.514C200.621 277.888 198.667 278.114 196.704 278.19C195.169 278.811 193.53 279.139 191.874 279.157C190.087 279.157 189.217 278.818 189.217 278.19C188.541 276.645 187.816 275.727 187.044 275.485C186.332 275.307 185.603 275.209 184.87 275.196C183.952 275.196 183.517 274.519 183.517 273.167C183.24 272.477 183.173 271.721 183.324 270.993Z" fill="#FFEFDB"/>
<path d="M503.58 62.0788C503.58 65.4601 503.677 68.5515 503.87 71.3532C503.87 73.7684 503.87 76.1836 503.87 78.1157C503.926 79.3491 503.812 80.5844 503.532 81.7868C503.145 81.7868 502.952 81.8834 502.952 82.0766V82.3665C502.952 82.3665 502.614 82.3665 502.517 82.3665C502.421 82.3665 502.228 82.3665 502.228 81.7868V80.3377C502.228 80.3377 502.228 79.1301 502.228 77.2462C502.228 75.3624 502.228 73.2853 502.228 71.0633L501.938 62.0788C498.718 65.5567 495.819 68.777 493.243 71.7396L490.055 75.3141L487.157 78.6471L485.031 81.1589C484.642 81.5589 484.374 82.0614 484.259 82.608C484.137 82.9234 483.926 83.1964 483.651 83.3938C483.377 83.5911 483.051 83.7041 482.713 83.719C481.988 83.719 481.65 83.719 481.65 83.3325L480.974 82.608C480.94 82.4162 480.94 82.2201 480.974 82.0283C480.945 81.8848 480.945 81.7371 480.974 81.5936V81.1105C481.064 80.9085 481.196 80.7276 481.36 80.5792L482.809 78.9852L485.997 75.5073L489.958 71.1116L494.016 66.2813L497.349 62.6102L499.04 60.7746H497.349H493.581L488.751 60.4365L483.92 60.0501H480.201H478.559H477.544H475.999C475.521 59.9784 475.061 59.8144 474.646 59.567C474.472 59.4723 474.327 59.3328 474.225 59.1629C474.123 58.993 474.068 58.799 474.066 58.6009C474.453 58.6009 475.564 58.6009 477.399 58.2628C479.321 58.0074 481.257 57.8784 483.196 57.8764C484.259 57.8764 485.708 58.2628 487.543 58.4077L492.953 58.8425L497.784 59.1323H500.199C500.06 58.7661 499.864 58.4238 499.619 58.1179L498.895 56.9586L497.735 55.2197C497.059 54.4468 495.851 52.9494 494.112 50.7274L488.654 43.8682L483.582 37.3955C482.085 35.4634 481.312 34.4007 481.215 34.2075C480.534 33.9269 479.948 33.4577 479.525 32.855C479.421 32.7375 479.347 32.5965 479.31 32.4441C479.272 32.2917 479.273 32.1325 479.311 31.9803C479.349 31.8281 479.424 31.6875 479.528 31.5706C479.633 31.4537 479.764 31.364 479.911 31.3092C480.051 31.2528 480.207 31.2528 480.346 31.3092L480.781 31.599L481.215 31.8889C481.698 31.8889 482.665 32.6134 484.114 34.0626C484.597 34.9924 485.18 35.8669 485.853 36.671L489.186 41.1149C490.441 42.8056 491.794 44.5445 493.243 46.38C494.692 48.2156 495.996 49.9545 497.204 51.5486C498.412 53.1426 499.426 54.4951 500.247 55.6544C500.759 56.2682 501.182 56.9512 501.503 57.6832C501.503 52.8528 501.696 48.3605 502.083 44.2064C502.083 40.7285 502.517 37.3472 502.856 34.0142C502.993 31.7168 503.415 29.4453 504.111 27.2517V28.5559C504.111 28.8457 504.111 28.9907 504.111 28.9907C504.111 28.9907 504.111 29.4737 504.111 30.4398C504.001 31.1115 504.001 31.7968 504.111 32.4685C504.111 33.7244 504.111 35.3185 504.111 37.2989C504.111 39.2794 504.111 41.1632 504.111 43.2886C504.111 45.414 504.111 47.4427 504.111 49.3266C504.111 51.2104 504.111 52.8045 504.111 54.157C504.111 55.5095 504.111 56.2823 504.111 56.4756C507.332 52.9011 510.375 49.6808 513.241 46.8148C514.4 45.5589 515.559 44.3513 516.767 43.1437C517.975 41.9361 519.134 40.8251 520.245 39.8107L523.24 37.2023C523.907 36.6111 524.636 36.0929 525.413 35.6566V36.0913C525.47 36.2307 525.47 36.3866 525.413 36.526C525.295 36.6551 525.197 36.8017 525.124 36.9608C524.455 37.5291 523.825 38.1424 523.24 38.7963C522.37 39.7141 521.936 40.3421 521.936 40.7285C521.936 41.1149 521.453 41.6463 520.535 42.6124C519.768 43.3834 519.117 44.2621 518.603 45.2207L516.187 47.7809L512.082 52.1765L508.024 56.6205C507.258 57.3811 506.578 58.2234 505.995 59.1323L511.357 59.567C512.863 59.7738 514.378 59.9028 515.898 59.9535H519.907C521.066 59.9535 522.708 60.3399 524.737 60.4848L531.403 60.9678L537.586 61.4992C538.667 61.5015 539.741 61.6643 540.774 61.9822C541.354 62.272 540.774 62.5619 539.518 62.8517C538.024 63.1513 536.502 63.297 534.978 63.2864C534.205 63.2864 532.756 63.2864 530.63 63.2864L523.578 62.1754L517.105 61.7407H513.724H511.743H508.797L504.739 61.306C505.192 61.6769 505.583 62.1171 505.899 62.6102C506.382 63.1898 507.01 64.0593 507.831 65.1703C508.652 66.2813 509.86 67.7787 511.405 69.7108C512.951 71.643 513.869 73.0921 515.366 74.8794C516.864 76.6666 518.892 79.1301 521.404 82.3181C521.597 82.8012 521.791 83.2359 521.984 83.6224C522.37 84.4918 522.37 84.9266 521.984 84.9266C521.775 84.9187 521.572 84.8567 521.394 84.7466C521.216 84.6365 521.07 84.4821 520.97 84.2986C520.872 84.109 520.727 83.9475 520.55 83.8292C520.372 83.7108 520.168 83.6397 519.955 83.6224C519.882 83.0998 519.625 82.6203 519.231 82.2698L517.926 80.869C516.989 79.9284 516.133 78.9104 515.366 77.8259L510.536 71.5947L503.58 62.0788Z" fill="#FFEFDB"/>
<path d="M37.1096 197.909C36.7993 191.342 37.3679 184.763 38.8002 178.346C40.1494 172.05 42.0238 165.878 44.4035 159.894C46.5593 154.403 49.1099 149.076 52.0355 143.954C54.8371 139.123 57.4455 134.873 59.8607 131.298C62.2759 127.724 64.3047 124.874 65.947 122.797C67.5894 120.72 68.4105 119.56 68.5554 119.464C68.9828 118.884 69.4509 118.335 69.9562 117.821L71.8401 115.696L73.579 113.571L74.69 112.073C74.5837 111.68 74.6114 111.262 74.7688 110.886C74.9263 110.51 75.2045 110.197 75.5595 109.996C76.4603 109.438 77.4611 109.061 78.506 108.885C79.9479 108.557 81.4228 108.394 82.9017 108.402C82.8685 108.308 82.8685 108.206 82.9017 108.112C83.2205 107.872 83.614 107.752 84.0127 107.774H88.8431C90.0631 107.486 91.3094 107.324 92.5624 107.291C93.4954 107.231 94.4312 107.231 95.3641 107.291C96.0332 107.369 96.6953 107.498 97.3446 107.678C97.8759 107.678 98.2623 107.678 98.4555 107.678C98.6487 107.678 99.953 107.195 102.32 107.195C104.687 107.195 107.778 107.195 111.546 107.678H115.99H118.985L121.352 107.967C124.581 108.769 127.361 110.819 129.08 113.667C130.733 116.628 131.66 119.939 131.785 123.328C131.962 127.133 131.67 130.946 130.916 134.68C130.095 138.689 129.129 142.553 127.969 146.321C126.81 150.088 125.699 153.421 124.685 156.465C123.868 158.744 123.175 161.066 122.607 163.42C121.484 163.288 120.349 163.288 119.226 163.42H117.584C115.641 163.213 113.682 163.213 111.739 163.42C109.084 163.556 106.439 163.846 103.817 164.29C102.864 164.516 101.872 164.516 100.919 164.29C100.213 164.051 99.5453 163.709 98.9386 163.275C98.3782 162.813 97.9458 162.214 97.6827 161.536C97.6827 160.909 98.5038 159.025 99.4699 155.933C100.436 152.842 101.499 149.171 102.513 144.968C103.505 140.616 104.262 136.214 104.783 131.781C105.37 127.664 105.37 123.484 104.783 119.367C104.625 118.31 104.264 117.293 103.721 116.372C103.35 115.733 102.838 115.188 102.223 114.778C101.68 114.371 101.019 114.15 100.339 114.15C94.5252 120.639 89.0746 127.444 84.0127 134.535C79.8538 140.135 76.0775 146.009 72.7096 152.117C70.0745 156.961 67.8137 161.999 65.947 167.188C64.4872 171.274 63.3723 175.475 62.614 179.747C61.0704 187.383 61.6212 195.295 64.2081 202.643C64.784 204.425 65.7213 206.07 66.9614 207.473C68.0297 208.609 69.3316 209.499 70.7774 210.082C72.3264 210.68 73.953 211.054 75.6078 211.193C77.3467 211.193 79.1823 211.434 81.211 211.434C83.2398 211.434 85.3169 211.434 87.249 211.193C89.1812 210.951 90.9684 210.855 92.5624 210.613C94.1565 210.372 96.2335 210.13 97.9242 209.84C98.3589 208.246 98.9869 205.976 99.9047 203.03C100.822 200.083 101.644 197.088 102.513 194.045C103.383 191.002 104.638 186.896 105.798 182.983C104.252 182.983 101.837 182.983 98.6488 182.983L88.988 183.466C85.7033 183.466 82.6602 183.708 80.0034 183.708C77.3467 183.708 75.7527 183.418 75.173 182.887C74.8082 182.621 74.5104 182.274 74.3036 181.872C74.0996 181.428 73.8032 181.033 73.4341 180.713C72.9683 180.687 72.518 180.537 72.1299 180.278C71.6469 180.278 71.8401 179.892 72.6613 179.892C73.1919 179.736 73.6851 179.473 74.1104 179.119L74.5451 178.636C74.5225 178.69 74.5109 178.747 74.5109 178.805C74.5109 178.863 74.5225 178.921 74.5451 178.974C74.5451 178.974 74.8349 178.974 75.173 178.636C75.8443 178.5 76.4835 178.238 77.0569 177.863C77.8134 177.386 78.6764 177.104 79.5687 177.042H83.8195H86.9109H89.2295C90.3464 176.742 91.5051 176.628 92.6591 176.704L94.1082 177.042C95.0259 177.042 96.7649 177.042 99.325 177.042L107.585 176.752C110.58 176.752 113.671 176.462 116.811 176.366C119.951 176.269 122.656 176.366 124.878 176.366C127.152 176.176 129.433 176.646 131.447 177.718C131.733 177.905 131.976 178.15 132.161 178.437C132.345 178.725 132.466 179.048 132.517 179.386C132.567 179.724 132.545 180.068 132.452 180.397C132.359 180.726 132.198 181.031 131.978 181.293C131.978 182.017 131.302 183.756 130.578 186.558C129.853 189.36 129.032 192.306 128.211 195.494C127.39 198.682 126.568 201.484 125.892 204.092C125.216 206.701 124.878 208.053 124.878 208.246C124.375 209.215 124.032 210.259 123.863 211.338C123.863 212.352 123.525 213.222 123.38 213.946C123.262 214.625 122.961 215.26 122.511 215.782C122.235 216.024 121.913 216.209 121.565 216.325C121.216 216.441 120.848 216.486 120.482 216.458C118.135 216.273 115.777 216.273 113.43 216.458C109.807 216.458 105.363 216.796 100.194 217.086L82.8051 218.197L63.4835 219.453C58.2575 220.233 52.9177 219.408 48.1712 217.086C44.9945 215.35 42.2912 212.862 40.2976 209.84C38.2189 206.207 37.1203 202.095 37.1096 197.909Z" fill="#FFEFDB"/>
</svg>
