<svg width="32" height="32" viewBox="0 0 32 32" fill="none" xmlns="http://www.w3.org/2000/svg">
<circle cx="16" cy="16" r="15.5" stroke="white"/>
<g clip-path="url(#clip0_95_72)">
<path d="M19.3333 9.33334H12.6667C10.8257 9.33334 9.33334 10.8257 9.33334 12.6667V19.3333C9.33334 21.1743 10.8257 22.6667 12.6667 22.6667H19.3333C21.1743 22.6667 22.6667 21.1743 22.6667 19.3333V12.6667C22.6667 10.8257 21.1743 9.33334 19.3333 9.33334Z" fill="white"/>
<path d="M18.6667 15.58C18.7489 16.1348 18.6542 16.7015 18.3958 17.1994C18.1375 17.6972 17.7288 18.101 17.2278 18.3531C16.7267 18.6053 16.159 18.6931 15.6052 18.604C15.0514 18.5149 14.5398 18.2534 14.1432 17.8568C13.7466 17.4602 13.4852 16.9486 13.3961 16.3948C13.3069 15.8411 13.3947 15.2733 13.6469 14.7723C13.8991 14.2713 14.3028 13.8625 14.8007 13.6042C15.2985 13.3458 15.8652 13.2511 16.42 13.3334C16.986 13.4173 17.5099 13.681 17.9145 14.0856C18.319 14.4901 18.5828 15.0141 18.6667 15.58Z" stroke="#311835" stroke-width="1.25" stroke-linecap="round" stroke-linejoin="round"/>
</g>
<defs>
<clipPath id="clip0_95_72">
<rect width="16" height="16" fill="white" transform="translate(8 8)"/>
</clipPath>
</defs>
</svg>
