<svg width="32" height="32" viewBox="0 0 32 32" fill="none" xmlns="http://www.w3.org/2000/svg">
<circle cx="16" cy="16" r="15.5" stroke="white"/>
<path d="M23.3333 9.99999C22.6949 10.4503 21.9881 10.7947 21.24 11.02C20.8385 10.5583 20.3049 10.2311 19.7113 10.0826C19.1178 9.9341 18.493 9.97145 17.9214 10.1896C17.3498 10.4078 16.859 10.7963 16.5153 11.3025C16.1717 11.8087 15.9918 12.4082 16 13.02V13.6867C14.8284 13.717 13.6675 13.4572 12.6207 12.9303C11.5738 12.4034 10.6735 11.6257 9.99999 10.6667C9.99999 10.6667 7.33332 16.6667 13.3333 19.3333C11.9603 20.2653 10.3248 20.7326 8.66666 20.6667C14.6667 24 22 20.6667 22 13C21.9994 12.8143 21.9815 12.6291 21.9467 12.4467C22.6271 11.7757 23.1072 10.9285 23.3333 9.99999Z" fill="white"/>
</svg>
